{
.appVersion = "1349";
DisplayStrings = (
"0/zero.osf 1/one.osf 2/two.osf 3/three.osf 4/four.osf 5/five.osf 6/six.osf 7/seven.osf 8/eight.osf 9/nine.osf"
);
classes = (
{
automatic = 1;
code = "A Aacute Abreve Abreveacute Abrevedotbelow Abrevegrave Abrevehookabove Abrevetilde Acaron Acircumflex Acircumflexacute Acircumflexdotbelow Acircumflexgrave Acircumflexhookabove Acircumflextilde Adieresis Adotbelow Agrave Ahookabove Ainvertedbreve Amacron Aogonek Aring Aringacute Atilde AE AEacute B C Cacute Ccaron Ccedilla Ccircumflex Cdotaccent D Eth Dcaron Dcroat E Eacute Ebreve Ecaron Ecircumflex Ecircumflexacute Ecircumflexdotbelow Ecircumflexgrave Ecircumflexhookabove Ecircumflextilde Edieresis Edotaccent Edotbelow Egrave Ehookabove Einvertedbreve Emacron Eogonek Etilde F G Gbreve Gcaron Gcircumflex Gcommaaccent Gdotaccent H Hbar Hcircumflex I Iacute Ibreve Icaron Icircumflex Idieresis Idotaccent Idotbelow Igrave Ihookabove Iinvertedbreve Imacron Iogonek Itilde J J.ss01 Jcircumflex K Kcommaaccent L Lacute Lcaron Lcommaaccent Ldot Lslash M N Nacute Ncaron Ncommaaccent Eng Ntilde O Oacute Obreve Ocaron Ocircumflex Ocircumflexacute Ocircumflexdotbelow Ocircumflexgrave Ocircumflexhookabove Ocircumflextilde Odieresis Odieresismacron Odotaccentmacron Odotbelow Ograve Ohookabove Ohorn Ohornacute Ohorndotbelow Ohorngrave Ohornhookabove Ohorntilde Ohungarumlaut Oinvertedbreve Omacron Oogonek Oslash Oslashacute Otilde Otildemacron OE P Thorn Q R Racute Rcaron Rcommaaccent Rinvertedbreve S Sacute Scaron Scedilla Scircumflex Scommaaccent Germandbls T Tbar Tcaron Tcedilla Tcommaaccent U Uacute Ubreve Ucaron Ucircumflex Udieresis Udieresisacute Udieresiscaron Udieresisgrave Udieresismacron Udotbelow Ugrave Uhookabove Uhorn Uhornacute Uhorndotbelow Uhorngrave Uhornhookabove Uhorntilde Uhungarumlaut Uinvertedbreve Umacron Uogonek Uring Utilde V W Wacute Wcircumflex Wdieresis Wgrave X Y Yacute Ycircumflex Ydieresis Ydotbelow Ygrave Yhookabove Ymacron Ytilde Z Zacute Zcaron Zdotaccent";

glyphs = (
{
glyphname = A;
lastChange = "2020-11-11 18:49:22 +0000";
layers = (
{
anchors = (
{
name = bottom;
position = "{748, 0}";
},
{
name = ogonek;
position = "{1401, 0}";
},
{
name = top;
position = "{738, 1400}";
}
);
layerId = "14A1E899-FED4-4F52-86F4-A1F822586E10";
paths = (
{
closed = 1;
nodes = (
"453 0 LINE",
"453 64 LINE",
"339 64 OFFCURVE",
"304 65 OFFCURVE",
"304 102 CURVE SMOOTH",
"304 121 OFFCURVE",
"310 137 OFFCURVE",
"319 161 CURVE SMOOTH",
"425 440 LINE",
"1008 440 LINE",
"1129 134 LINE SMOOTH",
"1139 108 OFFCURVE",
"1142 100 OFFCURVE",
"1142 87 CURVE SMOOTH",
"1142 64 OFFCURVE",
"1128 64 OFFCURVE",
"1002 64 CURVE",
"1002 0 LINE",
"1411 0 LINE",
"1411 64 LINE",
"1303 64 OFFCURVE",
"1282 71 OFFCURVE",
"1243 171 CURVE SMOOTH",
"754 1410 LINE",
"714 1410 LINE",
"706 1385 OFFCURVE",
"681 1358 OFFCURVE",
"653 1343 CURVE",
"676 1290 LINE",
"229 161 LINE SMOOTH",
"197 80 OFFCURVE",
"178 64 OFFCURVE",
"40 64 CURVE",
"40 0 LINE"
);
},
{
closed = 1;
nodes = (
"715 1190 LINE",
"984 508 LINE",
"452 508 LINE"
);
}
);
width = 1451;
},
{
anchors = (
{
name = bottom;
position = "{791, 0}";
},
{
name = ogonek;
position = "{1552, 0}";
},
{
name = top;
position = "{841, 1400}";
}
);
layerId = "72F22432-F665-4153-96BB-74D91BCC5F28";
paths = (
{
closed = 1;
nodes = (
"489 0 LINE",
"489 64 LINE",
"390 64 OFFCURVE",
"367 86 OFFCURVE",
"367 128 CURVE SMOOTH",
"367 146 OFFCURVE",
"376 173 OFFCURVE",
"386 201 CURVE SMOOTH",
"488 475 LINE",
"946 475 LINE",
"1058 197 LINE SMOOTH",
"1068 172 OFFCURVE",
"1074 145 OFFCURVE",
"1074 129 CURVE SMOOTH",
"1074 78 OFFCURVE",
"1051 64 OFFCURVE",
"970 64 CURVE",
"970 0 LINE",
"1552 0 LINE",
"1552 64 LINE",
"1535 64 OFFCURVE",
"1424 87 OFFCURVE",
"1372 218 CURVE SMOOTH",
"902 1410 LINE",
"839 1410 LINE",
"802 1331 OFFCURVE",
"701 1248 OFFCURVE",
"626 1205 CURVE",
"648 1159 LINE",
"279 222 LINE SMOOTH",
"230 97 OFFCURVE",
"137 64 OFFCURVE",
"39 64 CURVE",
"39 0 LINE"
);
},
{
closed = 1;
nodes = (
"710 1061 LINE",
"918 543 LINE",
"515 543 LINE"
);
}
);
width = 1591;
}
);
leftKerningGroup = A;
rightKerningGroup = A;
unicode = 0041;
},
{
glyphname = AE;
lastChange = "2020-11-11 18:49:25 +0000";
layers = (
{
anchors = (
{
name = bottom;
position = "{1075, 0}";
},
{
name = top;
position = "{1075, 1400}";
}
);
components = (
{
name = E;
transform = "{1, 0, 0, 1, 756, 0}";
}
);
layerId = "14A1E899-FED4-4F52-86F4-A1F822586E10";
paths = (
{
closed = 1;
nodes = (
"1111 1336 LINE",
"1020 1336 LINE",
"241 153 LINE SMOOTH",
"184 66 OFFCURVE",
"155 54 OFFCURVE",
"40 54 CURVE",
"40 -10 LINE",
"475 -10 LINE",
"475 54 LINE",
"366 54 OFFCURVE",
"321 57 OFFCURVE",
"321 97 CURVE SMOOTH",
"321 114 OFFCURVE",
"337 146 OFFCURVE",
"355 174 CURVE SMOOTH"
);
},
{
closed = 1;
nodes = (
"484 430 LINE",
"1130 430 LINE",
"1130 495 LINE",
"504 495 LINE"
);
}
);
width = 2059;
},
{
anchors = (
{
name = bottom;
position = "{1022, 0}";
},
{
name = top;
position = "{1022, 1400}";
}
);
components = (
{
name = E;
transform = "{1, 0, 0, 1, 719, 0}";
}
);
layerId = "72F22432-F665-4153-96BB-74D91BCC5F28";
paths = (
{
closed = 1;
nodes = (
"1067 1336 LINE",
"970 1336 LINE",
"269 211 LINE SMOOTH",
"207 112 OFFCURVE",
"158 54 OFFCURVE",
"39 54 CURVE",
"39 -10 LINE",
"463 -10 LINE",
"463 54 LINE",
"359 54 OFFCURVE",
"345 75 OFFCURVE",
"345 115 CURVE SMOOTH",
"345 129 OFFCURVE",
"332 146 OFFCURVE",
"349 174 CURVE SMOOTH"
);
},
{
closed = 1;
nodes = (
"497 483 LINE",
"1110 483 LINE",
"1110 548 LINE",
"516 548 LINE"
);
}
);
width = 2221;
}
);
leftKerningGroup = A;
leftMetricsKey = A;
rightKerningGroup = E;
rightMetricsKey = E;
unicode = 00C6;
},
{
glyphname = B;
lastChange = "2020-11-11 22:17:55 +0000";
layers = (
{
anchors = (
{
name = bottom;
position = "{627, 0}";
},
{
name = top;
position = "{627, 1400}";
}
);
layerId = "14A1E899-FED4-4F52-86F4-A1F822586E10";
paths = (
{
closed = 1;
nodes = (
"707 0 LINE SMOOTH",
"1021 0 OFFCURVE",
"1219 138 OFFCURVE",
"1219 380 CURVE SMOOTH",
"1219 624 OFFCURVE",
"1013 725 OFFCURVE",
"809 725 CURVE",
"967 725 OFFCURVE",
"1157 842 OFFCURVE",
"1157 1066 CURVE SMOOTH",
"1157 1308 OFFCURVE",
"944 1400 OFFCURVE",
"722 1400 CURVE SMOOTH",
"115 1400 LINE",
"115 1336 LINE",
"265 1336 OFFCURVE",
"297 1332 OFFCURVE",
"297 1274 CURVE SMOOTH",
"297 134 LINE SMOOTH",
"297 66 OFFCURVE",
"265 64 OFFCURVE",
"115 64 CURVE",
"115 0 LINE"
);
},
{
closed = 1;
nodes = (
"412 692 LINE",
"688 692 LINE SMOOTH",
"938 692 OFFCURVE",
"1083 595 OFFCURVE",
"1083 377 CURVE SMOOTH",
"1083 149 OFFCURVE",
"931 64 OFFCURVE",
"688 64 CURVE SMOOTH",
"412 64 LINE"
);
},
{
closed = 1;
nodes = (
"412 1336 LINE",
"707 1336 LINE SMOOTH",
"918 1336 OFFCURVE",
"1028 1254 OFFCURVE",
"1028 1060 CURVE SMOOTH",
"1028 864 OFFCURVE",
"927 758 OFFCURVE",
"674 758 CURVE SMOOTH",
"412 758 LINE"
);
}
);
width = 1294;
},
{
anchors = (
{
name = bottom;
position = "{757, 0}";
},
{
name = top;
position = "{757, 1400}";
}
);
layerId = "72F22432-F665-4153-96BB-74D91BCC5F28";
paths = (
{
closed = 1;
nodes = (
"857 0 LINE SMOOTH",
"1191 0 OFFCURVE",
"1401 157 OFFCURVE",
"1401 389 CURVE SMOOTH",
"1401 660 OFFCURVE",
"1159 737 OFFCURVE",
"948 737 CURVE",
"1062 737 OFFCURVE",
"1339 829 OFFCURVE",
"1339 1071 CURVE SMOOTH",
"1339 1313 OFFCURVE",
"1075 1400 OFFCURVE",
"802 1400 CURVE SMOOTH",
"110 1400 LINE",
"110 1336 LINE",
"253 1336 OFFCURVE",
"283 1332 OFFCURVE",
"283 1239 CURVE SMOOTH",
"283 169 LINE SMOOTH",
"283 84 OFFCURVE",
"253 64 OFFCURVE",
"110 64 CURVE",
"110 0 LINE"
);
},
{
closed = 1;
nodes = (
"553 692 LINE",
"813 692 LINE SMOOTH",
"977 692 OFFCURVE",
"1065 592 OFFCURVE",
"1065 374 CURVE SMOOTH",
"1065 160 OFFCURVE",
"993 64 OFFCURVE",
"815 64 CURVE SMOOTH",
"553 64 LINE"
);
},
{
closed = 1;
nodes = (
"553 1336 LINE",
"750 1336 LINE SMOOTH",
"941 1336 OFFCURVE",
"1031 1246 OFFCURVE",
"1031 1058 CURVE SMOOTH",
"1031 874 OFFCURVE",
"967 758 OFFCURVE",
"800 758 CURVE SMOOTH",
"553 758 LINE"
);
}
);
width = 1471;
}
);
leftKerningGroup = H;
leftMetricsKey = H;
rightKerningGroup = O;
rightMetricsKey = "=O-40";
unicode = 0042;
},
{
glyphname = C;
lastChange = "2020-11-11 22:13:56 +0000";
layers = (
{
anchors = (
{
name = bottom;
position = "{748, 0}";
},
{
name = top;
position = "{748, 1400}";
}
);
layerId = "14A1E899-FED4-4F52-86F4-A1F822586E10";
paths = (
{
closed = 1;
nodes = (
"1014 -22 OFFCURVE",
"1136 71 OFFCURVE",
"1313 234 CURVE",
"1261 287 LINE",
"1117 157 OFFCURVE",
"1003 60 OFFCURVE",
"829 60 CURVE SMOOTH",
"544 60 OFFCURVE",
"254 251 OFFCURVE",
"254 719 CURVE SMOOTH",
"254 1137 OFFCURVE",
"484 1350 OFFCURVE",
"769 1350 CURVE SMOOTH",
"1003 1350 OFFCURVE",
"1153 1240 OFFCURVE",
"1194 938 CURVE",
"1240 938 LINE",
"1251 1291 LINE",
"1211 1314 OFFCURVE",
"1007 1416 OFFCURVE",
"778 1416 CURVE SMOOTH",
"428 1416 OFFCURVE",
"115 1158 OFFCURVE",
"115 706 CURVE SMOOTH",
"115 244 OFFCURVE",
"448 -22 OFFCURVE",
"798 -22 CURVE SMOOTH"
);
}
);
width = 1428;
},
{
anchors = (
{
name = bottom;
position = "{819, 0}";
},
{
name = top;
position = "{819, 1400}";
}
);
layerId = "72F22432-F665-4153-96BB-74D91BCC5F28";
paths = (
{
closed = 1;
nodes = (
"1160 -22 OFFCURVE",
"1287 81 OFFCURVE",
"1445 234 CURVE",
"1372 298 LINE",
"1246 178 OFFCURVE",
"1128 66 OFFCURVE",
"890 66 CURVE SMOOTH",
"512 66 OFFCURVE",
"443 494 OFFCURVE",
"443 752 CURVE SMOOTH",
"443 1047 OFFCURVE",
"502 1354 OFFCURVE",
"880 1354 CURVE SMOOTH",
"1074 1354 OFFCURVE",
"1223 1214 OFFCURVE",
"1248 951 CURVE",
"1381 951 LINE",
"1415 1288 LINE",
"1322 1368 OFFCURVE",
"1116 1425 OFFCURVE",
"863 1425 CURVE SMOOTH",
"423 1425 OFFCURVE",
"110 1136 OFFCURVE",
"110 692 CURVE SMOOTH",
"110 255 OFFCURVE",
"427 -22 OFFCURVE",
"866 -22 CURVE SMOOTH"
);
}
);
width = 1555;
}
);
leftKerningGroup = O;
leftMetricsKey = O;
rightKerningGroup = C;
unicode = 0043;
},
{
glyphname = D;
lastChange = "2020-11-11 18:49:22 +0000";
layers = (
{
anchors = (
{
name = bottom;
position = "{684, 0}";
},
{
name = center;
position = "{684, 700}";
},
{
name = top;
position = "{684, 1400}";
}
);
layerId = "14A1E899-FED4-4F52-86F4-A1F822586E10";
paths = (
{
closed = 1;
nodes = (
"566 0 LINE SMOOTH",
"988 0 OFFCURVE",
"1329 246 OFFCURVE",
"1329 702 CURVE SMOOTH",
"1329 1154 OFFCURVE",
"1010 1400 OFFCURVE",
"588 1400 CURVE SMOOTH",
"115 1400 LINE",
"115 1336 LINE",
"260 1336 OFFCURVE",
"299 1334 OFFCURVE",
"299 1274 CURVE SMOOTH",
"299 138 LINE SMOOTH",
"299 70 OFFCURVE",
"262 64 OFFCURVE",
"115 64 CURVE",
"115 0 LINE"
);
},
{
closed = 1;
nodes = (
"415 1336 LINE",
"589 1336 LINE SMOOTH",
"1010 1336 OFFCURVE",
"1194 1060 OFFCURVE",
"1194 702 CURVE SMOOTH",
"1194 326 OFFCURVE",
"975 64 OFFCURVE",
"566 64 CURVE SMOOTH",
"415 64 LINE"
);
}
);
width = 1444;
},
{
anchors = (
{
name = bottom;
position = "{811, 0}";
},
{
name = center;
position = "{811, 700}";
},
{
name = top;
position = "{811, 1400}";
}
);
layerId = "72F22432-F665-4153-96BB-74D91BCC5F28";
paths = (
{
closed = 1;
nodes = (
"699 0 LINE SMOOTH",
"1171 0 OFFCURVE",
"1478 246 OFFCURVE",
"1478 702 CURVE SMOOTH",
"1478 1154 OFFCURVE",
"1156 1400 OFFCURVE",
"684 1400 CURVE SMOOTH",
"110 1400 LINE",
"110 1336 LINE",
"248 1336 OFFCURVE",
"285 1334 OFFCURVE",
"285 1239 CURVE SMOOTH",
"285 173 LINE SMOOTH",
"285 88 OFFCURVE",
"250 64 OFFCURVE",
"110 64 CURVE",
"110 0 LINE"
);
},
{
closed = 1;
nodes = (
"556 1336 LINE",
"721 1336 LINE SMOOTH",
"1081 1336 OFFCURVE",
"1135 994 OFFCURVE",
"1135 702 CURVE SMOOTH",
"1135 358 OFFCURVE",
"1068 64 OFFCURVE",
"699 64 CURVE SMOOTH",
"556 64 LINE"
);
}
);
width = 1588;
}
);
leftKerningGroup = H;
leftMetricsKey = H;
rightKerningGroup = O;
rightMetricsKey = O;
unicode = 0044;
},
{
glyphname = Eth;
lastChange = "2020-11-11 18:49:25 +0000";
layers = (
{
components = (
{
name = D;
transform = "{1, 0, 0, 1, 1, 0}";
}
);
layerId = "14A1E899-FED4-4F52-86F4-A1F822586E10";
paths = (
{
closed = 1;
nodes = (
"817 664 LINE",
"817 736 LINE",
"115 736 LINE",
"115 664 LINE"
);
}
);
width = 1445;
},
{
components = (
{
name = D;
transform = "{1, 0, 0, 1, 2, 0}";
}
);
layerId = "72F22432-F665-4153-96BB-74D91BCC5F28";
paths = (
{
closed = 1;
nodes = (
"777 655 LINE",
"777 745 LINE",
"110 745 LINE",
"110 655 LINE"
);
}
);
width = 1590;
}
);
leftKerningGroup = D;
leftMetricsKey = D;
rightKerningGroup = D;
rightMetricsKey = D;
unicode = 00D0;
},
{
glyphname = E;
lastChange = "2020-11-11 19:24:22 +0000";
layers = (
{
anchors = (
{
name = bottom;
position = "{668, 0}";
},
{
name = ogonek;
position = "{1160, 0}";
},
{
name = top;
position = "{668, 1400}";
},
{
name = topleft;
position = "{6, 1400}";
}
);
layerId = "14A1E899-FED4-4F52-86F4-A1F822586E10";
paths = (
{
closed = 1;
nodes = (
"727 703 LINE SMOOTH",
"853 703 OFFCURVE",
"866 652 OFFCURVE",
"866 526 CURVE",
"940 526 LINE",
"940 934 LINE",
"866 934 LINE",
"866 808 OFFCURVE",
"853 767 OFFCURVE",
"727 767 CURVE SMOOTH",
"402 767 LINE",
"402 703 LINE"
);
},
{
closed = 1;
nodes = (
"415 1336 LINE",
"902 1336 LINE SMOOTH",
"1023 1336 OFFCURVE",
"1087 1184 OFFCURVE",
"1121 1044 CURVE",
"1179 1044 LINE",
"1131 1400 LINE",
"115 1400 LINE",
"115 1336 LINE",
"261 1336 OFFCURVE",
"299 1331 OFFCURVE",
"299 1280 CURVE SMOOTH",
"299 136 LINE SMOOTH",
"299 68 OFFCURVE",
"257 64 OFFCURVE",
"115 64 CURVE",
"115 0 LINE",
"1160 0 LINE",
"1207 396 LINE",
"1150 396 LINE",
"1115 246 OFFCURVE",
"1061 64 OFFCURVE",
"905 64 CURVE SMOOTH",
"415 64 LINE"
);
}
);
width = 1303;
},
{
anchors = (
{
name = bottom;
position = "{759, 0}";
},
{
name = ogonek;
position = "{1353, 0}";
},
{
name = top;
position = "{759, 1400}";
},
{
name = topleft;
position = "{-17, 1400}";
}
);
layerId = "72F22432-F665-4153-96BB-74D91BCC5F28";
paths = (
{
closed = 1;
nodes = (
"760 703 LINE SMOOTH",
"909 703 OFFCURVE",
"913 640 OFFCURVE",
"913 509 CURVE",
"1019 509 LINE",
"1019 952 LINE",
"913 952 LINE",
"913 821 OFFCURVE",
"909 767 OFFCURVE",
"760 767 CURVE SMOOTH",
"531 767 LINE",
"531 703 LINE"
);
},
{
closed = 1;
nodes = (
"556 1336 LINE",
"893 1336 LINE SMOOTH",
"1068 1336 OFFCURVE",
"1166 1189 OFFCURVE",
"1199 1049 CURVE",
"1343 1049 LINE",
"1290 1400 LINE",
"110 1400 LINE",
"110 1336 LINE",
"249 1336 OFFCURVE",
"285 1331 OFFCURVE",
"285 1245 CURVE SMOOTH",
"285 171 LINE SMOOTH",
"285 86 OFFCURVE",
"245 64 OFFCURVE",
"110 64 CURVE",
"110 0 LINE",
"1353 0 LINE",
"1406 391 LINE",
"1262 391 LINE",
"1229 241 OFFCURVE",
"1140 64 OFFCURVE",
"932 64 CURVE SMOOTH",
"556 64 LINE"
);
}
);
width = 1502;
}
);
leftKerningGroup = H;
leftMetricsKey = H;
rightKerningGroup = E;
unicode = 0045;
},
{
glyphname = F;
lastChange = "2020-11-11 19:24:03 +0000";
layers = (
{
anchors = (
{
name = bottom;
position = "{554, 0}";
},
{
name = top;
position = "{554, 1400}";
}
);
layerId = "14A1E899-FED4-4F52-86F4-A1F822586E10";
paths = (
{
closed = 1;
nodes = (
"596 0 LINE",
"596 64 LINE",
"479 64 OFFCURVE",
"412 65 OFFCURVE",
"412 136 CURVE",
"412 1336 LINE",
"905 1336 LINE SMOOTH",
"1017 1336 OFFCURVE",
"1062 1184 OFFCURVE",
"1097 1044 CURVE",
"1154 1044 LINE",
"1117 1400 LINE",
"115 1400 LINE",
"115 1336 LINE",
"259 1336 OFFCURVE",
"299 1335 OFFCURVE",
"299 1281 CURVE SMOOTH",
"299 136 LINE SMOOTH",
"299 65 OFFCURVE",
"256 64 OFFCURVE",
"115 64 CURVE",
"115 0 LINE"
);
},
{
closed = 1;
nodes = (
"791 650 LINE SMOOTH",
"897 650 OFFCURVE",
"910 599 OFFCURVE",
"910 473 CURVE",
"984 473 LINE",
"984 881 LINE",
"910 881 LINE",
"910 755 OFFCURVE",
"897 714 OFFCURVE",
"791 714 CURVE SMOOTH",
"406 714 LINE",
"406 650 LINE"
);
}
);
width = 1210;
},
{
anchors = (
{
name = bottom;
position = "{688, 0}";
},
{
name = top;
position = "{688, 1400}";
}
);
layerId = "72F22432-F665-4153-96BB-74D91BCC5F28";
paths = (
{
closed = 1;
nodes = (
"728 0 LINE",
"728 64 LINE",
"617 64 OFFCURVE",
"553 79 OFFCURVE",
"553 171 CURVE",
"553 1336 LINE",
"896 1336 LINE SMOOTH",
"1064 1336 OFFCURVE",
"1153 1195 OFFCURVE",
"1186 1047 CURVE",
"1329 1047 LINE",
"1269 1400 LINE",
"110 1400 LINE",
"110 1336 LINE",
"229 1336 OFFCURVE",
"285 1323 OFFCURVE",
"285 1246 CURVE SMOOTH",
"285 171 LINE SMOOTH",
"285 79 OFFCURVE",
"244 64 OFFCURVE",
"110 64 CURVE",
"110 0 LINE"
);
},
{
closed = 1;
nodes = (
"729 641 LINE SMOOTH",
"858 641 OFFCURVE",
"882 578 OFFCURVE",
"882 447 CURVE",
"988 447 LINE",
"988 890 LINE",
"882 890 LINE",
"882 759 OFFCURVE",
"858 705 OFFCURVE",
"729 705 CURVE SMOOTH",
"500 705 LINE",
"500 641 LINE"
);
}
);
width = 1385;
}
);
leftKerningGroup = H;
leftMetricsKey = H;
rightKerningGroup = F;
rightMetricsKey = "=E-40";
unicode = 0046;
},
{
glyphname = G;
lastChange = "2020-11-11 22:15:19 +0000";
layers = (
{
anchors = (
{
name = bottom;
position = "{717, 0}";
},
{
name = top;
position = "{717, 1400}";
}
);
layerId = "14A1E899-FED4-4F52-86F4-A1F822586E10";
paths = (
{
closed = 1;
nodes = (
"1097 -22 OFFCURVE",
"1223 120 OFFCURVE",
"1253 168 CURVE",
"1253 518 LINE SMOOTH",
"1253 578 OFFCURVE",
"1311 578 OFFCURVE",
"1385 578 CURVE",
"1385 642 LINE",
"912 642 LINE",
"912 578 LINE",
"1082 578 OFFCURVE",
"1140 578 OFFCURVE",
"1140 512 CURVE SMOOTH",
"1140 262 LINE SMOOTH",
"1140 146 OFFCURVE",
"1024 50 OFFCURVE",
"778 50 CURVE SMOOTH",
"421 50 OFFCURVE",
"255 330 OFFCURVE",
"255 728 CURVE SMOOTH",
"255 1106 OFFCURVE",
"421 1350 OFFCURVE",
"778 1350 CURVE SMOOTH",
"1005 1350 OFFCURVE",
"1148 1261 OFFCURVE",
"1190 958 CURVE",
"1240 958 LINE",
"1252 1290 LINE",
"1211 1315 OFFCURVE",
"1009 1416 OFFCURVE",
"766 1416 CURVE SMOOTH",
"407 1416 OFFCURVE",
"115 1150 OFFCURVE",
"115 698 CURVE SMOOTH",
"115 246 OFFCURVE",
"407 -22 OFFCURVE",
"766 -22 CURVE SMOOTH"
);
}
);
width = 1481;
},
{
anchors = (
{
name = bottom;
position = "{825, 0}";
},
{
name = top;
position = "{825, 1400}";
}
);
layerId = "72F22432-F665-4153-96BB-74D91BCC5F28";
paths = (
{
closed = 1;
nodes = (
"1185 -22 OFFCURVE",
"1431 85 OFFCURVE",
"1459 116 CURVE",
"1459 396 LINE SMOOTH",
"1459 497 OFFCURVE",
"1487 526 OFFCURVE",
"1567 526 CURVE",
"1567 590 LINE",
"957 590 LINE",
"957 526 LINE",
"1137 526 OFFCURVE",
"1173 496 OFFCURVE",
"1173 390 CURVE SMOOTH",
"1173 245 LINE SMOOTH",
"1173 154 OFFCURVE",
"1146 50 OFFCURVE",
"883 50 CURVE SMOOTH",
"544 50 OFFCURVE",
"464 435 OFFCURVE",
"464 746 CURVE SMOOTH",
"464 1071 OFFCURVE",
"542 1359 OFFCURVE",
"871 1359 CURVE SMOOTH",
"1129 1359 OFFCURVE",
"1230 1179 OFFCURVE",
"1258 966 CURVE",
"1391 966 LINE",
"1424 1290 LINE",
"1340 1364 OFFCURVE",
"1114 1425 OFFCURVE",
"869 1425 CURVE SMOOTH",
"439 1425 OFFCURVE",
"110 1150 OFFCURVE",
"110 698 CURVE SMOOTH",
"110 246 OFFCURVE",
"442 -22 OFFCURVE",
"871 -22 CURVE SMOOTH"
);
}
);
width = 1663;
}
);
leftKerningGroup = O;
leftMetricsKey = O;
rightKerningGroup = G;
rightMetricsKey = E;
unicode = 0047;
},
{
glyphname = H;
lastChange = "2020-11-11 22:14:36 +0000";
layers = (
{
anchors = (
{
name = bottom;
position = "{790, 0}";
},
{
name = center;
position = "{790, 700}";
},
{
name = top;
position = "{790, 1400}";
},
{
name = topleft;
position = "{145, 1400}";
}
);
layerId = "14A1E899-FED4-4F52-86F4-A1F822586E10";
paths = (
{
closed = 1;
nodes = (
"1464 0 LINE",
"1464 64 LINE",
"1328 64 OFFCURVE",
"1273 65 OFFCURVE",
"1273 146 CURVE SMOOTH",
"1273 1264 LINE SMOOTH",
"1273 1335 OFFCURVE",
"1342 1336 OFFCURVE",
"1464 1336 CURVE",
"1464 1400 LINE",
"1163 1400 LINE",
"1163 0 LINE"
);
},
{
closed = 1;
nodes = (
"416 0 LINE",
"416 1400 LINE",
"115 1400 LINE",
"115 1336 LINE",
"237 1336 OFFCURVE",
"306 1335 OFFCURVE",
"306 1264 CURVE SMOOTH",
"306 146 LINE SMOOTH",
"306 65 OFFCURVE",
"251 64 OFFCURVE",
"115 64 CURVE",
"115 0 LINE"
);
},
{
closed = 1;
nodes = (
"606 0 LINE",
"606 64 LINE",
"471 64 OFFCURVE",
"416 65 OFFCURVE",
"416 146 CURVE SMOOTH",
"416 1264 LINE SMOOTH",
"416 1335 OFFCURVE",
"485 1336 OFFCURVE",
"606 1336 CURVE",
"606 1400 LINE",
"306 1400 LINE",
"306 0 LINE"
);
},
{
closed = 1;
nodes = (
"1199 688 LINE",
"1199 760 LINE",
"344 760 LINE",
"344 688 LINE"
);
},
{
closed = 1;
nodes = (
"1273 0 LINE",
"1273 1400 LINE",
"972 1400 LINE",
"972 1336 LINE",
"1094 1336 OFFCURVE",
"1163 1335 OFFCURVE",
"1163 1264 CURVE SMOOTH",
"1163 146 LINE SMOOTH",
"1163 65 OFFCURVE",
"1107 64 OFFCURVE",
"972 64 CURVE",
"972 0 LINE"
);
}
);
width = 1579;
},
{
anchors = (
{
name = bottom;
position = "{885, 1400}";
},
{
name = center;
position = "{885, -700}";
},
{
name = top;
position = "{885, 1400}";
},
{
name = topleft;
position = "{-121, 1400}";
}
);
layerId = "72F22432-F665-4153-96BB-74D91BCC5F28";
paths = (
{
closed = 1;
nodes = (
"1659 0 LINE",
"1659 64 LINE",
"1529 64 OFFCURVE",
"1477 74 OFFCURVE",
"1477 181 CURVE SMOOTH",
"1477 1229 LINE SMOOTH",
"1477 1332 OFFCURVE",
"1543 1336 OFFCURVE",
"1659 1336 CURVE",
"1659 1400 LINE",
"1199 1400 LINE",
"1199 0 LINE"
);
},
{
closed = 1;
nodes = (
"571 0 LINE",
"571 1400 LINE",
"110 1400 LINE",
"110 1336 LINE",
"226 1336 OFFCURVE",
"291 1332 OFFCURVE",
"291 1229 CURVE SMOOTH",
"291 181 LINE SMOOTH",
"291 74 OFFCURVE",
"239 64 OFFCURVE",
"110 64 CURVE",
"110 0 LINE"
);
},
{
closed = 1;
nodes = (
"751 0 LINE",
"751 64 LINE",
"623 64 OFFCURVE",
"571 74 OFFCURVE",
"571 181 CURVE SMOOTH",
"571 1229 LINE SMOOTH",
"571 1332 OFFCURVE",
"636 1336 OFFCURVE",
"751 1336 CURVE",
"751 1400 LINE",
"291 1400 LINE",
"291 0 LINE"
);
},
{
closed = 1;
nodes = (
"1233 688 LINE",
"1233 762 LINE",
"413 762 LINE",
"413 688 LINE"
);
},
{
closed = 1;
nodes = (
"1477 0 LINE",
"1477 1400 LINE",
"1017 1400 LINE",
"1017 1336 LINE",
"1133 1336 OFFCURVE",
"1199 1332 OFFCURVE",
"1199 1229 CURVE SMOOTH",
"1199 181 LINE SMOOTH",
"1199 74 OFFCURVE",
"1145 64 OFFCURVE",
"1017 64 CURVE",
"1017 0 LINE"
);
}
);
width = 1769;
}
);
leftKerningGroup = H;
rightKerningGroup = H;
unicode = 0048;
},
{
glyphname = Hbar;
lastChange = "2020-11-11 22:37:30 +0000";
layers = (
{
components = (
{
name = H;
}
);
layerId = "14A1E899-FED4-4F52-86F4-A1F822586E10";
paths = (
{
closed = 1;
nodes = (
"1453 1014 LINE",
"1453 1074 LINE",
"127 1074 LINE",
"127 1014 LINE"
);
}
);
width = 1579;
},
{
components = (
{
name = H;
}
);
layerId = "72F22432-F665-4153-96BB-74D91BCC5F28";
paths = (
{
closed = 1;
nodes = (
"1686 997 LINE",
"1686 1074 LINE",
"83 1074 LINE",
"83 997 LINE"
);
}
);
width = 1769;
}
);
unicode = 0126;
},
{
glyphname = I;
lastChange = "2020-11-11 18:49:22 +0000";
layers = (
{
anchors = (
{
name = bottom;
position = "{359, 0}";
},
{
name = ogonek;
position = "{602, 0}";
},
{
name = top;
position = "{359, 1400}";
},
{
name = topleft;
position = "{-37, 1400}";
}
);
layerId = "14A1E899-FED4-4F52-86F4-A1F822586E10";
paths = (
{
closed = 1;
nodes = (
"602 0 LINE",
"602 64 LINE",
"467 64 OFFCURVE",
"412 70 OFFCURVE",
"412 146 CURVE SMOOTH",
"412 1264 LINE SMOOTH",
"412 1333 OFFCURVE",
"481 1336 OFFCURVE",
"602 1336 CURVE",
"602 1400 LINE",
"115 1400 LINE",
"115 1336 LINE",
"237 1336 OFFCURVE",
"306 1333 OFFCURVE",
"306 1264 CURVE SMOOTH",
"306 146 LINE SMOOTH",
"306 70 OFFCURVE",
"251 64 OFFCURVE",
"115 64 CURVE",
"115 0 LINE"
);
}
);
width = 717;
},
{
anchors = (
{
name = bottom;
position = "{431, 0}";
},
{
name = ogonek;
position = "{751, 0}";
},
{
name = top;
position = "{431, 1400}";
},
{
name = topleft;
position = "{55, 1400}";
}
);
layerId = "72F22432-F665-4153-96BB-74D91BCC5F28";
paths = (
{
closed = 1;
nodes = (
"751 0 LINE",
"751 64 LINE",
"623 64 OFFCURVE",
"571 70 OFFCURVE",
"571 181 CURVE SMOOTH",
"571 1229 LINE SMOOTH",
"571 1333 OFFCURVE",
"636 1336 OFFCURVE",
"751 1336 CURVE",
"751 1400 LINE",
"110 1400 LINE",
"110 1336 LINE",
"226 1336 OFFCURVE",
"291 1333 OFFCURVE",
"291 1229 CURVE SMOOTH",
"291 181 LINE SMOOTH",
"291 70 OFFCURVE",
"239 64 OFFCURVE",
"110 64 CURVE",
"110 0 LINE"
);
}
);
width = 861;
}
);
leftKerningGroup = H;
leftMetricsKey = H;
rightKerningGroup = H;
rightMetricsKey = H;
unicode = 0049;
},
{
glyphname = J;
lastChange = "2020-11-11 22:16:41 +0000";
layers = (
{
anchors = (
{
name = bottom;
position = "{555, 0}";
},
{
name = top;
position = "{555, 1400}";
}
);
layerId = "14A1E899-FED4-4F52-86F4-A1F822586E10";
paths = (
{
closed = 1;
nodes = (
"498 1336 OFFCURVE",
"577 1333 OFFCURVE",
"577 1264 CURVE SMOOTH",
"577 339 LINE SMOOTH",
"577 163 OFFCURVE",
"526 37 OFFCURVE",
"369 37 CURVE SMOOTH",
"214 37 OFFCURVE",
"160 144 OFFCURVE",
"142 488 CURVE",
"93 488 LINE",
"56 132 LINE",
"95 67 OFFCURVE",
"178 -29 OFFCURVE",
"363 -29 CURVE SMOOTH",
"555 -29 OFFCURVE",
"682 107 OFFCURVE",
"682 335 CURVE SMOOTH",
"682 1264 LINE SMOOTH",
"682 1333 OFFCURVE",
"741 1336 OFFCURVE",
"863 1336 CURVE",
"863 1400 LINE",
"376 1400 LINE",
"376 1336 LINE"
);
}
);
width = 928;
},
{
anchors = (
{
name = bottom;
position = "{592, 0}";
},
{
name = top;
position = "{592, 1400}";
}
);
layerId = "72F22432-F665-4153-96BB-74D91BCC5F28";
paths = (
{
closed = 1;
nodes = (
"538 1336 OFFCURVE",
"613 1333 OFFCURVE",
"613 1229 CURVE SMOOTH",
"613 349 LINE SMOOTH",
"613 208 OFFCURVE",
"582 44 OFFCURVE",
"433 44 CURVE SMOOTH",
"290 44 OFFCURVE",
"234 215 OFFCURVE",
"224 471 CURVE",
"101 471 LINE",
"43 100 LINE",
"123 22 OFFCURVE",
"268 -29 OFFCURVE",
"428 -29 CURVE SMOOTH",
"689 -29 OFFCURVE",
"888 110 OFFCURVE",
"888 363 CURVE SMOOTH",
"888 1229 LINE SMOOTH",
"888 1333 OFFCURVE",
"944 1336 OFFCURVE",
"1060 1336 CURVE",
"1060 1400 LINE",
"422 1400 LINE",
"422 1336 LINE"
);
}
);
width = 1120;
}
);
leftKerningGroup = J;
rightKerningGroup = J;
rightMetricsKey = "=H-50";
unicode = 004A;
},
{
glyphname = J.ss01;
lastChange = "2020-10-13 20:10:10 +0000";
layers = (
{
anchors = (
{
name = bottom;
position = "{330, -360}";
},
{
name = top;
position = "{299, 1400}";
}
);
layerId = "14A1E899-FED4-4F52-86F4-A1F822586E10";
paths = (
{
closed = 1;
nodes = (
"172 1336 OFFCURVE",
"251 1333 OFFCURVE",
"251 1244 CURVE SMOOTH",
"251 -34 LINE SMOOTH",
"251 -190 OFFCURVE",
"225 -260 OFFCURVE",
"60 -314 CURVE",
"80 -370 LINE",
"330 -281 OFFCURVE",
"364 -224 OFFCURVE",
"364 -16 CURVE SMOOTH",
"364 1244 LINE SMOOTH",
"364 1333 OFFCURVE",
"423 1336 OFFCURVE",
"545 1336 CURVE",
"545 1400 LINE",
"50 1400 LINE",
"50 1336 LINE"
);
}
);
width = 605;
},
{
anchors = (
{
name = bottom;
position = "{344, -367}";
},
{
name = top;
position = "{354, 1400}";
}
);
layerId = "72F22432-F665-4153-96BB-74D91BCC5F28";
paths = (
{
closed = 1;
nodes = (
"164 1336 OFFCURVE",
"239 1333 OFFCURVE",
"239 1244 CURVE SMOOTH",
"239 -34 LINE SMOOTH",
"239 -159 OFFCURVE",
"235 -253 OFFCURVE",
"58 -314 CURVE",
"77 -370 LINE",
"314 -281 OFFCURVE",
"507 -224 OFFCURVE",
"507 -16 CURVE SMOOTH",
"507 1244 LINE SMOOTH",
"507 1333 OFFCURVE",
"563 1336 OFFCURVE",
"679 1336 CURVE",
"679 1400 LINE",
"48 1400 LINE",
"48 1336 LINE"
);
}
);
width = 736;
}
);
},
{
glyphname = K;
lastChange = "2020-11-11 22:18:12 +0000";
layers = (
{
anchors = (
{
name = bottom;
position = "{681, 0}";
},
{
name = top;
position = "{681, 1400}";
}
);
layerId = "14A1E899-FED4-4F52-86F4-A1F822586E10";
paths = (
{
closed = 1;
nodes = (
"1322 0 LINE",
"1322 64 LINE",
"1235 64 OFFCURVE",
"1178 77 OFFCURVE",
"1131 136 CURVE SMOOTH",
"627 761 LINE",
"1120 1288 LINE SMOOTH",
"1160 1331 OFFCURVE",
"1175 1336 OFFCURVE",
"1290 1336 CURVE",
"1290 1400 LINE",
"888 1400 LINE",
"888 1336 LINE",
"968 1336 OFFCURVE",
"1021 1335 OFFCURVE",
"1021 1316 CURVE SMOOTH",
"1021 1300 OFFCURVE",
"1005 1281 OFFCURVE",
"985 1260 CURVE SMOOTH",
"368 599 LINE",
"370 483 LINE",
"553 681 LINE",
"975 159 LINE SMOOTH",
"1007 120 OFFCURVE",
"1012 110 OFFCURVE",
"1012 92 CURVE SMOOTH",
"1012 65 OFFCURVE",
"982 64 OFFCURVE",
"869 64 CURVE",
"869 0 LINE"
);
},
{
closed = 1;
nodes = (
"602 0 LINE",
"602 64 LINE",
"466 64 OFFCURVE",
"411 65 OFFCURVE",
"411 146 CURVE SMOOTH",
"411 1264 LINE SMOOTH",
"411 1336 OFFCURVE",
"480 1336 OFFCURVE",
"602 1336 CURVE",
"602 1400 LINE",
"115 1400 LINE",
"115 1336 LINE",
"237 1336 OFFCURVE",
"306 1336 OFFCURVE",
"306 1264 CURVE SMOOTH",
"306 146 LINE SMOOTH",
"306 65 OFFCURVE",
"251 64 OFFCURVE",
"115 64 CURVE",
"115 0 LINE"
);
}
);
width = 1362;
},
{
anchors = (
{
name = bottom;
position = "{823, 0}";
},
{
name = top;
position = "{823, 1400}";
}
);
layerId = "72F22432-F665-4153-96BB-74D91BCC5F28";
paths = (
{
closed = 1;
nodes = (
"1588 0 LINE",
"1588 64 LINE",
"1516 64 OFFCURVE",
"1450 72 OFFCURVE",
"1407 136 CURVE SMOOTH",
"913 883 LINE",
"1361 1288 LINE SMOOTH",
"1412 1334 OFFCURVE",
"1487 1336 OFFCURVE",
"1540 1336 CURVE",
"1540 1400 LINE",
"1088 1400 LINE",
"1088 1336 LINE",
"1163 1336 OFFCURVE",
"1182 1323 OFFCURVE",
"1182 1283 CURVE SMOOTH",
"1182 1264 OFFCURVE",
"1166 1237 OFFCURVE",
"1120 1197 CURVE SMOOTH",
"557 708 LINE",
"557 560 LINE",
"700 685 LINE",
"1003 214 LINE SMOOTH",
"1030 172 OFFCURVE",
"1044 149 OFFCURVE",
"1044 130 CURVE SMOOTH",
"1044 78 OFFCURVE",
"956 64 OFFCURVE",
"894 64 CURVE",
"894 0 LINE"
);
},
{
closed = 1;
nodes = (
"748 0 LINE",
"748 64 LINE",
"619 64 OFFCURVE",
"566 74 OFFCURVE",
"566 181 CURVE SMOOTH",
"566 1229 LINE SMOOTH",
"566 1331 OFFCURVE",
"632 1336 OFFCURVE",
"748 1336 CURVE",
"748 1400 LINE",
"110 1400 LINE",
"110 1336 LINE",
"226 1336 OFFCURVE",
"291 1331 OFFCURVE",
"291 1229 CURVE SMOOTH",
"291 181 LINE SMOOTH",
"291 74 OFFCURVE",
"239 64 OFFCURVE",
"110 64 CURVE",
"110 0 LINE"
);
}
);
width = 1627;
}
);
leftKerningGroup = H;
leftMetricsKey = H;
rightKerningGroup = K;
rightMetricsKey = A;
unicode = 004B;
},
{
glyphname = L;
lastChange = "2020-11-11 19:22:08 +0000";
layers = (
{
anchors = (
{
name = bottom;
position = "{565, 0}";
},
{
name = center;
position = "{361, 700}";
},
{
name = top;
position = "{363, 1400}";
},
{
name = topright;
position = "{773, 826}";
}
);
layerId = "14A1E899-FED4-4F52-86F4-A1F822586E10";
paths = (
{
closed = 1;
nodes = (
"602 0 LINE",
"602 64 LINE",
"467 64 OFFCURVE",
"412 69 OFFCURVE",
"412 146 CURVE SMOOTH",
"412 1264 LINE SMOOTH",
"412 1334 OFFCURVE",
"481 1336 OFFCURVE",
"602 1336 CURVE",
"602 1400 LINE",
"306 1400 LINE",
"306 0 LINE"
);
},
{
closed = 1;
nodes = (
"412 0 LINE",
"412 1400 LINE",
"115 1400 LINE",
"115 1336 LINE",
"237 1336 OFFCURVE",
"306 1334 OFFCURVE",
"306 1264 CURVE SMOOTH",
"306 146 LINE SMOOTH",
"306 69 OFFCURVE",
"251 64 OFFCURVE",
"115 64 CURVE",
"115 0 LINE"
);
},
{
closed = 1;
nodes = (
"1083 0 LINE",
"1130 406 LINE",
"1063 406 LINE",
"1028 236 OFFCURVE",
"974 64 OFFCURVE",
"817 64 CURVE SMOOTH",
"494 64 LINE",
"494 0 LINE"
);
}
);
width = 1226;
},
{
anchors = (
{
name = bottom;
position = "{665, 0}";
},
{
name = center;
position = "{698, 700}";
},
{
name = top;
position = "{431, 1400}";
},
{
name = topright;
position = "{935, 826}";
}
);
layerId = "72F22432-F665-4153-96BB-74D91BCC5F28";
paths = (
{
closed = 1;
nodes = (
"751 0 LINE",
"751 64 LINE",
"623 64 OFFCURVE",
"571 71 OFFCURVE",
"571 181 CURVE SMOOTH",
"571 1229 LINE SMOOTH",
"571 1332 OFFCURVE",
"636 1336 OFFCURVE",
"751 1336 CURVE",
"751 1400 LINE",
"291 1400 LINE",
"291 0 LINE"
);
},
{
closed = 1;
nodes = (
"571 0 LINE",
"571 1400 LINE",
"110 1400 LINE",
"110 1336 LINE",
"226 1336 OFFCURVE",
"291 1332 OFFCURVE",
"291 1229 CURVE SMOOTH",
"291 181 LINE SMOOTH",
"291 71 OFFCURVE",
"239 64 OFFCURVE",
"110 64 CURVE",
"110 0 LINE"
);
},
{
closed = 1;
nodes = (
"1258 0 LINE",
"1300 404 LINE",
"1183 404 LINE",
"1149 267 OFFCURVE",
"1080 64 OFFCURVE",
"862 64 CURVE SMOOTH",
"649 64 LINE",
"649 0 LINE"
);
}
);
width = 1396;
}
);
leftKerningGroup = H;
leftMetricsKey = H;
rightKerningGroup = L;
rightMetricsKey = E;
unicode = 004C;
},
{
glyphname = Lslash;
lastChange = "2020-11-11 18:49:25 +0000";
layers = (
{
components = (
{
name = L;
transform = "{1, 0, 0, 1, 80, 0}";
}
);
layerId = "14A1E899-FED4-4F52-86F4-A1F822586E10";
paths = (
{
closed = 1;
nodes = (
"163 326 LINE",
"751 880 LINE",
"704 929 LINE",
"115 376 LINE"
);
}
);
width = 1306;
},
{
components = (
{
name = L;
transform = "{1, 0, 0, 1, 77, 0}";
}
);
layerId = "72F22432-F665-4153-96BB-74D91BCC5F28";
paths = (
{
closed = 1;
nodes = (
"186 295 LINE",
"891 983 LINE",
"816 1064 LINE",
"110 376 LINE"
);
}
);
width = 1473;
}
);
leftKerningGroup = L;
leftMetricsKey = L;
rightKerningGroup = L;
rightMetricsKey = L;
unicode = 0141;
},
{
glyphname = M;
lastChange = "2020-11-11 18:49:22 +0000";
layers = (
{
anchors = (
{
name = bottom;
position = "{977, 0}";
},
{
name = top;
position = "{977, 1400}";
}
);
layerId = "14A1E899-FED4-4F52-86F4-A1F822586E10";
paths = (
{
closed = 1;
nodes = (
"575 0 LINE",
"575 64 LINE",
"458 64 OFFCURVE",
"391 64 OFFCURVE",
"391 116 CURVE SMOOTH",
"391 1270 LINE",
"855 0 LINE",
"902 0 LINE",
"1361 1214 LINE",
"1361 116 LINE SMOOTH",
"1361 64 OFFCURVE",
"1295 64 OFFCURVE",
"1177 64 CURVE",
"1177 0 LINE",
"1648 0 LINE",
"1648 64 LINE",
"1531 64 OFFCURVE",
"1464 64 OFFCURVE",
"1464 116 CURVE SMOOTH",
"1464 1284 LINE SMOOTH",
"1464 1336 OFFCURVE",
"1531 1336 OFFCURVE",
"1648 1336 CURVE",
"1648 1400 LINE",
"1345 1400 LINE",
"894 202 LINE",
"465 1400 LINE",
"115 1400 LINE",
"115 1336 LINE",
"233 1336 OFFCURVE",
"299 1336 OFFCURVE",
"299 1284 CURVE SMOOTH",
"299 116 LINE SMOOTH",
"299 64 OFFCURVE",
"233 64 OFFCURVE",
"115 64 CURVE",
"115 0 LINE"
);
}
);
width = 1763;
},
{
anchors = (
{
name = bottom;
position = "{913, 0}";
},
{
name = top;
position = "{913, 1400}";
}
);
layerId = "72F22432-F665-4153-96BB-74D91BCC5F28";
paths = (
{
closed = 1;
nodes = (
"567 0 LINE",
"567 64 LINE",
"434 64 OFFCURVE",
"392 71 OFFCURVE",
"392 134 CURVE SMOOTH",
"392 1253 LINE",
"872 0 LINE",
"977 0 LINE",
"1421 1184 LINE",
"1421 134 LINE SMOOTH",
"1421 71 OFFCURVE",
"1380 64 OFFCURVE",
"1246 64 CURVE",
"1246 0 LINE",
"1872 0 LINE",
"1872 64 LINE",
"1740 64 OFFCURVE",
"1698 71 OFFCURVE",
"1698 134 CURVE SMOOTH",
"1698 1267 LINE SMOOTH",
"1698 1329 OFFCURVE",
"1740 1336 OFFCURVE",
"1872 1336 CURVE",
"1872 1400 LINE",
"1408 1400 LINE",
"1042 432 LINE",
"667 1400 LINE",
"110 1400 LINE",
"110 1336 LINE",
"243 1336 OFFCURVE",
"285 1329 OFFCURVE",
"285 1267 CURVE SMOOTH",
"285 134 LINE SMOOTH",
"285 71 OFFCURVE",
"243 64 OFFCURVE",
"110 64 CURVE",
"110 0 LINE"
);
}
);
width = 1982;
}
);
leftKerningGroup = H;
leftMetricsKey = H;
rightKerningGroup = H;
rightMetricsKey = H;
unicode = 004D;
},
{
glyphname = N;
lastChange = "2020-11-11 18:49:22 +0000";
layers = (
{
anchors = (
{
name = bottom;
position = "{823, 0}";
},
{
name = top;
position = "{823, 1400}";
}
);
layerId = "14A1E899-FED4-4F52-86F4-A1F822586E10";
paths = (
{
closed = 1;
nodes = (
"587 0 LINE",
"587 64 LINE",
"469 64 OFFCURVE",
"403 64 OFFCURVE",
"403 106 CURVE SMOOTH",
"403 1274 LINE",
"1224 0 LINE",
"1290 0 LINE",
"1290 1294 LINE SMOOTH",
"1290 1336 OFFCURVE",
"1357 1336 OFFCURVE",
"1474 1336 CURVE",
"1474 1400 LINE",
"1003 1400 LINE",
"1003 1336 LINE",
"1120 1336 OFFCURVE",
"1187 1336 OFFCURVE",
"1187 1294 CURVE SMOOTH",
"1187 258 LINE",
"459 1400 LINE",
"115 1400 LINE",
"115 1336 LINE",
"233 1336 OFFCURVE",
"299 1336 OFFCURVE",
"299 1294 CURVE SMOOTH",
"299 106 LINE SMOOTH",
"299 64 OFFCURVE",
"233 64 OFFCURVE",
"115 64 CURVE",
"115 0 LINE"
);
}
);
width = 1549;
},
{
anchors = (
{
name = bottom;
position = "{838, 0}";
},
{
name = top;
position = "{838, 1400}";
}
);
layerId = "72F22432-F665-4153-96BB-74D91BCC5F28";
paths = (
{
closed = 1;
nodes = (
"576 0 LINE",
"576 64 LINE",
"464 64 OFFCURVE",
"401 64 OFFCURVE",
"401 141 CURVE SMOOTH",
"401 1192 LINE",
"1290 0 LINE",
"1401 0 LINE",
"1401 1259 LINE SMOOTH",
"1401 1336 OFFCURVE",
"1464 1336 OFFCURVE",
"1575 1336 CURVE",
"1575 1400 LINE",
"1110 1400 LINE",
"1110 1336 LINE",
"1221 1336 OFFCURVE",
"1285 1336 OFFCURVE",
"1285 1259 CURVE SMOOTH",
"1285 546 LINE",
"640 1400 LINE",
"110 1400 LINE",
"110 1336 LINE",
"222 1336 OFFCURVE",
"285 1336 OFFCURVE",
"285 1259 CURVE SMOOTH",
"285 141 LINE SMOOTH",
"285 64 OFFCURVE",
"222 64 OFFCURVE",
"110 64 CURVE",
"110 0 LINE"
);
}
);
width = 1645;
}
);
leftKerningGroup = H;
leftMetricsKey = H;
rightKerningGroup = H;
rightMetricsKey = "=H-40";
unicode = 004E;
},
{
glyphname = Eng;
lastChange = "2020-11-11 18:49:25 +0000";
layers = (
{
components = (
{
name = N;
}
);
layerId = "14A1E899-FED4-4F52-86F4-A1F822586E10";
paths = (
{
closed = 1;
nodes = (
"1164 -424 OFFCURVE",
"1275 -263 OFFCURVE",
"1275 -25 CURVE SMOOTH",
"1275 109 LINE",
"1174 109 LINE",
"1174 -31 LINE SMOOTH",
"1174 -267 OFFCURVE",
"1070 -332 OFFCURVE",
"973 -332 CURVE SMOOTH",
"895 -332 OFFCURVE",
"855 -292 OFFCURVE",
"846 -270 CURVE",
"780 -368 LINE",
"822 -398 OFFCURVE",
"876 -424 OFFCURVE",
"958 -424 CURVE SMOOTH"
);
},
{
closed = 1;
nodes = (
"892 -334 LINE",
"933 -160 LINE",
"760 -180 LINE",
"780 -368 LINE"
);
}
);
width = 1549;
},
{
components = (
{
name = N;
}
);
layerId = "72F22432-F665-4153-96BB-74D91BCC5F28";
paths = (
{
closed = 1;
nodes = (
"1280 -477 OFFCURVE",
"1385 -332 OFFCURVE",
"1385 -25 CURVE SMOOTH",
"1385 109 LINE",
"1270 109 LINE",
"1270 -31 LINE SMOOTH",
"1270 -319 OFFCURVE",
"1202 -385 OFFCURVE",
"1098 -385 CURVE SMOOTH",
"1026 -385 OFFCURVE",
"987 -346 OFFCURVE",
"978 -323 CURVE",
"915 -421 LINE",
"954 -450 OFFCURVE",
"1006 -477 OFFCURVE",
"1084 -477 CURVE SMOOTH"
);
},
{
closed = 1;
nodes = (
"1039 -387 LINE",
"1096 -129 LINE",
"896 -166 LINE",
"915 -421 LINE"
);
}
);
width = 1645;
}
);
leftKerningGroup = N;
leftMetricsKey = N;
rightKerningGroup = N;
rightMetricsKey = N;
unicode = 014A;
},
{
glyphname = O;
lastChange = "2020-11-11 22:15:48 +0000";
layers = (
{
anchors = (
{
name = bottom;
position = "{796, 0}";
},
{
name = center;
position = "{796, 700}";
},
{
name = ogonek;
position = "{1219, 109}";
},
{
name = top;
position = "{796, 1400}";
},
{
name = topleft;
position = "{-30, 1400}";
},
{
name = topright;
position = "{1234, 1260}";
}
);
layerId = "14A1E899-FED4-4F52-86F4-A1F822586E10";
paths = (
{
closed = 1;
nodes = (
"1155 -18 OFFCURVE",
"1477 248 OFFCURVE",
"1477 698 CURVE SMOOTH",
"1477 1148 OFFCURVE",
"1155 1416 OFFCURVE",
"795 1416 CURVE SMOOTH",
"429 1416 OFFCURVE",
"115 1148 OFFCURVE",
"115 698 CURVE SMOOTH",
"115 248 OFFCURVE",
"431 -18 OFFCURVE",
"795 -18 CURVE SMOOTH"
);
},
{
closed = 1;
nodes = (
"458 49 OFFCURVE",
"255 307 OFFCURVE",
"255 725 CURVE SMOOTH",
"255 1123 OFFCURVE",
"458 1351 OFFCURVE",
"795 1351 CURVE SMOOTH",
"1131 1351 OFFCURVE",
"1336 1091 OFFCURVE",
"1336 671 CURVE SMOOTH",
"1336 271 OFFCURVE",
"1131 49 OFFCURVE",
"795 49 CURVE SMOOTH"
);
}
);
width = 1592;
},
{
anchors = (
{
name = bottom;
position = "{829, 0}";
},
{
name = center;
position = "{828, 701}";
},
{
name = ogonek;
position = "{1230, 109}";
},
{
name = top;
position = "{828, 1400}";
},
{
name = topleft;
position = "{44, 1400}";
},
{
name = topright;
position = "{1245, 1260}";
}
);
layerId = "72F22432-F665-4153-96BB-74D91BCC5F28";
paths = (
{
closed = 1;
nodes = (
"1260 -18 OFFCURVE",
"1547 283 OFFCURVE",
"1547 698 CURVE SMOOTH",
"1547 1113 OFFCURVE",
"1260 1416 OFFCURVE",
"828 1416 CURVE SMOOTH",
"390 1416 OFFCURVE",
"110 1113 OFFCURVE",
"110 698 CURVE SMOOTH",
"110 283 OFFCURVE",
"392 -18 OFFCURVE",
"828 -18 CURVE SMOOTH"
);
},
{
closed = 1;
nodes = (
"490 55 OFFCURVE",
"446 438 OFFCURVE",
"446 748 CURVE SMOOTH",
"446 1058 OFFCURVE",
"490 1343 OFFCURVE",
"828 1343 CURVE SMOOTH",
"1164 1343 OFFCURVE",
"1210 960 OFFCURVE",
"1210 648 CURVE SMOOTH",
"1210 336 OFFCURVE",
"1164 55 OFFCURVE",
"828 55 CURVE SMOOTH"
);
}
);
width = 1657;
}
);
leftKerningGroup = O;
rightKerningGroup = O;
unicode = 004F;
},
{
glyphname = Ohorn;
lastChange = "2020-11-11 18:49:25 +0000";
layers = (
{
anchors = (
{
name = bottom;
position = "{796, 0}";
},
{
name = top;
position = "{796, 1400}";
}
);
components = (
{
name = horncomb;
transform = "{1, 0, 0, 1, 1155, 332}";
}
);
layerId = "14A1E899-FED4-4F52-86F4-A1F822586E10";
paths = (
{
closed = 1;
nodes = (
"1175 -18 OFFCURVE",
"1477 248 OFFCURVE",
"1477 698 CURVE SMOOTH",
"1477 1148 OFFCURVE",
"1175 1416 OFFCURVE",
"795 1416 CURVE SMOOTH",
"409 1416 OFFCURVE",
"115 1148 OFFCURVE",
"115 698 CURVE SMOOTH",
"115 248 OFFCURVE",
"411 -18 OFFCURVE",
"795 -18 CURVE SMOOTH"
);
},
{
closed = 1;
nodes = (
"448 42 OFFCURVE",
"258 327 OFFCURVE",
"258 725 CURVE SMOOTH",
"258 1123 OFFCURVE",
"448 1358 OFFCURVE",
"795 1358 CURVE SMOOTH",
"1141 1358 OFFCURVE",
"1333 1071 OFFCURVE",
"1333 671 CURVE SMOOTH",
"1333 271 OFFCURVE",
"1141 42 OFFCURVE",
"795 42 CURVE SMOOTH"
);
}
);
width = 1645;
},
{
anchors = (
{
name = bottom;
position = "{864, 0}";
},
{
name = top;
position = "{864, 1400}";
}
);
components = (
{
name = horncomb;
transform = "{1, 0, 0, 1, 1205, 332}";
}
);
layerId = "72F22432-F665-4153-96BB-74D91BCC5F28";
paths = (
{
closed = 1;
nodes = (
"1295 -18 OFFCURVE",
"1618 283 OFFCURVE",
"1618 698 CURVE SMOOTH",
"1618 1113 OFFCURVE",
"1295 1416 OFFCURVE",
"863 1416 CURVE SMOOTH",
"426 1416 OFFCURVE",
"110 1113 OFFCURVE",
"110 698 CURVE SMOOTH",
"110 283 OFFCURVE",
"427 -18 OFFCURVE",
"863 -18 CURVE SMOOTH"
);
},
{
closed = 1;
nodes = (
"516 42 OFFCURVE",
"482 437 OFFCURVE",
"482 748 CURVE SMOOTH",
"482 1058 OFFCURVE",
"516 1358 OFFCURVE",
"863 1358 CURVE SMOOTH",
"1210 1358 OFFCURVE",
"1246 960 OFFCURVE",
"1246 648 CURVE SMOOTH",
"1246 337 OFFCURVE",
"1210 42 OFFCURVE",
"863 42 CURVE SMOOTH"
);
}
);
width = 1728;
}
);
leftKerningGroup = O;
leftMetricsKey = O;
rightKerningGroup = O;
rightMetricsKey = O;
unicode = 01A0;
},
{
glyphname = Oslash;
lastChange = "2020-11-11 22:37:47 +0000";
layers = (
{
anchors = (
{
name = bottom;
position = "{849, 0}";
},
{
name = top;
position = "{849, 1400}";
}
);
components = (
{
name = O;
}
);
layerId = "14A1E899-FED4-4F52-86F4-A1F822586E10";
paths = (
{
closed = 1;
nodes = (
"555 -155 LINE",
"1133 1524 LINE",
"1045 1554 LINE",
"464 -125 LINE"
);
}
);
width = 1592;
},
{
anchors = (
{
name = bottom;
position = "{806, 0}";
},
{
name = top;
position = "{806, 1400}";
}
);
components = (
{
name = O;
}
);
layerId = "72F22432-F665-4153-96BB-74D91BCC5F28";
paths = (
{
closed = 1;
nodes = (
"595 -155 LINE",
"1145 1524 LINE",
"1061 1554 LINE",
"509 -125 LINE"
);
}
);
width = 1657;
}
);
unicode = 00D8;
},
{
glyphname = OE;
lastChange = "2020-11-11 18:49:25 +0000";
layers = (
{
anchors = (
{
name = bottom;
position = "{1212, 0}";
},
{
name = top;
position = "{1212, 1400}";
}
);
components = (
{
name = O;
}
);
layerId = "14A1E899-FED4-4F52-86F4-A1F822586E10";
paths = (
{
closed = 1;
nodes = (
"1773 703 LINE SMOOTH",
"1899 703 OFFCURVE",
"1912 652 OFFCURVE",
"1912 526 CURVE",
"1986 526 LINE",
"1986 934 LINE",
"1912 934 LINE",
"1912 826 OFFCURVE",
"1899 767 OFFCURVE",
"1773 767 CURVE SMOOTH",
"1448 767 LINE",
"1448 703 LINE"
);
},
{
closed = 1;
nodes = (
"1461 1336 LINE",
"1948 1336 LINE SMOOTH",
"2069 1336 OFFCURVE",
"2133 1184 OFFCURVE",
"2167 1044 CURVE",
"2225 1044 LINE",
"2177 1400 LINE",
"1345 1400 LINE",
"1345 0 LINE",
"2206 0 LINE",
"2253 396 LINE",
"2196 396 LINE",
"2161 246 OFFCURVE",
"2107 64 OFFCURVE",
"1951 64 CURVE SMOOTH",
"1461 64 LINE"
);
}
);
width = 2349;
},
{
anchors = (
{
name = bottom;
position = "{1151, 0}";
},
{
name = top;
position = "{1151, 1400}";
}
);
components = (
{
name = O;
}
);
layerId = "72F22432-F665-4153-96BB-74D91BCC5F28";
paths = (
{
closed = 1;
nodes = (
"1779 703 LINE SMOOTH",
"1773 703 OFFCURVE",
"1893 617 OFFCURVE",
"1893 509 CURVE",
"1999 509 LINE",
"1999 952 LINE",
"1893 952 LINE",
"1893 861 OFFCURVE",
"1773 767 OFFCURVE",
"1779 767 CURVE SMOOTH",
"1511 767 LINE",
"1511 703 LINE"
);
},
{
closed = 1;
nodes = (
"1536 1336 LINE",
"1874 1336 LINE SMOOTH",
"1988 1336 OFFCURVE",
"2157 1219 OFFCURVE",
"2189 1079 CURVE",
"2333 1079 LINE",
"2270 1400 LINE",
"1265 1400 LINE",
"1265 0 LINE",
"2333 0 LINE",
"2396 361 LINE",
"2252 361 LINE",
"2219 211 OFFCURVE",
"2060 64 OFFCURVE",
"1912 64 CURVE SMOOTH",
"1536 64 LINE"
);
}
);
width = 2492;
}
);
leftKerningGroup = O;
leftMetricsKey = O;
rightKerningGroup = E;
rightMetricsKey = E;
unicode = 0152;
},
{
glyphname = P;
lastChange = "2020-11-11 22:15:57 +0000";
layers = (
{
anchors = (
{
name = bottom;
position = "{586, 0}";
},
{
name = top;
position = "{586, 1400}";
}
);
layerId = "14A1E899-FED4-4F52-86F4-A1F822586E10";
paths = (
{
closed = 1;
nodes = (
"586 0 LINE",
"586 64 LINE",
"458 64 OFFCURVE",
"402 66 OFFCURVE",
"402 136 CURVE SMOOTH",
"402 1336 LINE",
"613 1336 LINE SMOOTH",
"860 1336 OFFCURVE",
"1020 1248 OFFCURVE",
"1020 958 CURVE SMOOTH",
"1020 698 OFFCURVE",
"860 608 OFFCURVE",
"613 608 CURVE SMOOTH",
"352 608 LINE",
"352 542 LINE",
"622 542 LINE SMOOTH",
"902 542 OFFCURVE",
"1164 710 OFFCURVE",
"1164 988 CURVE SMOOTH",
"1164 1266 OFFCURVE",
"902 1400 OFFCURVE",
"622 1400 CURVE SMOOTH",
"115 1400 LINE",
"115 1336 LINE",
"244 1336 OFFCURVE",
"299 1335 OFFCURVE",
"299 1285 CURVE SMOOTH",
"299 136 LINE SMOOTH",
"299 66 OFFCURVE",
"256 64 OFFCURVE",
"115 64 CURVE",
"115 0 LINE"
);
}
);
width = 1239;
},
{
anchors = (
{
name = bottom;
position = "{736, 0}";
},
{
name = top;
position = "{736, 1400}";
}
);
layerId = "72F22432-F665-4153-96BB-74D91BCC5F28";
paths = (
{
closed = 1;
nodes = (
"736 0 LINE",
"736 64 LINE",
"615 64 OFFCURVE",
"561 77 OFFCURVE",
"561 171 CURVE SMOOTH",
"561 1336 LINE",
"726 1336 LINE SMOOTH",
"967 1336 OFFCURVE",
"1023 1104 OFFCURVE",
"1023 958 CURVE SMOOTH",
"1023 788 OFFCURVE",
"966 613 OFFCURVE",
"726 613 CURVE SMOOTH",
"514 613 LINE",
"514 542 LINE",
"735 542 LINE SMOOTH",
"1072 542 OFFCURVE",
"1321 693 OFFCURVE",
"1321 988 CURVE SMOOTH",
"1321 1283 OFFCURVE",
"1072 1400 OFFCURVE",
"735 1400 CURVE SMOOTH",
"110 1400 LINE",
"110 1336 LINE",
"233 1336 OFFCURVE",
"285 1325 OFFCURVE",
"285 1250 CURVE SMOOTH",
"285 171 LINE SMOOTH",
"285 77 OFFCURVE",
"244 64 OFFCURVE",
"110 64 CURVE",
"110 0 LINE"
);
}
);
width = 1391;
}
);
leftKerningGroup = H;
leftMetricsKey = H;
rightKerningGroup = P;
rightMetricsKey = B;
unicode = 0050;
},
{
glyphname = Thorn;
lastChange = "2020-11-11 18:49:25 +0000";
layers = (
{
anchors = (
{
name = bottom;
position = "{559, 0}";
},
{
name = top;
position = "{559, 1400}";
}
);
components = (
{
name = I;
}
);
layerId = "14A1E899-FED4-4F52-86F4-A1F822586E10";
paths = (
{
closed = 1;
nodes = (
"356 1093 LINE",
"356 1029 LINE",
"487 1029 LINE SMOOTH",
"754 1029 OFFCURVE",
"894 951 OFFCURVE",
"894 731 CURVE SMOOTH",
"894 501 OFFCURVE",
"754 401 OFFCURVE",
"487 401 CURVE SMOOTH",
"326 401 LINE",
"326 335 LINE",
"496 335 LINE SMOOTH",
"786 335 OFFCURVE",
"1018 473 OFFCURVE",
"1018 731 CURVE SMOOTH",
"1018 989 OFFCURVE",
"786 1093 OFFCURVE",
"496 1093 CURVE SMOOTH"
);
}
);
width = 1133;
},
{
anchors = (
{
name = bottom;
position = "{656, 0}";
},
{
name = top;
position = "{656, 1400}";
}
);
components = (
{
name = I;
}
);
layerId = "72F22432-F665-4153-96BB-74D91BCC5F28";
paths = (
{
closed = 1;
nodes = (
"463 1128 LINE",
"463 1064 LINE",
"641 1064 LINE SMOOTH",
"884 1064 OFFCURVE",
"903 917 OFFCURVE",
"903 749 CURVE SMOOTH",
"903 538 OFFCURVE",
"870 366 OFFCURVE",
"641 366 CURVE SMOOTH",
"399 366 LINE",
"399 300 LINE",
"650 300 LINE SMOOTH",
"979 300 OFFCURVE",
"1217 473 OFFCURVE",
"1217 731 CURVE SMOOTH",
"1217 989 OFFCURVE",
"979 1128 OFFCURVE",
"650 1128 CURVE SMOOTH"
);
}
);
width = 1327;
}
);
leftKerningGroup = I;
leftMetricsKey = I;
rightMetricsKey = O;
unicode = 00DE;
},
{
glyphname = Q;
lastChange = "2020-11-11 18:49:22 +0000";
layers = (
{
anchors = (
{
name = bottom;
position = "{866, 0}";
},
{
name = top;
position = "{866, 1400}";
}
);
components = (
{
name = O;
}
);
layerId = "14A1E899-FED4-4F52-86F4-A1F822586E10";
paths = (
{
closed = 1;
nodes = (
"781 -180 OFFCURVE",
"887 -115 OFFCURVE",
"964 -115 CURVE SMOOTH",
"1007 -115 OFFCURVE",
"1046 -123 OFFCURVE",
"1147 -151 CURVE SMOOTH",
"1222 -172 OFFCURVE",
"1294 -191 OFFCURVE",
"1359 -191 CURVE SMOOTH",
"1469 -191 OFFCURVE",
"1544 -144 OFFCURVE",
"1593 -86 CURVE",
"1549 -51 LINE",
"1513 -90 OFFCURVE",
"1445 -121 OFFCURVE",
"1397 -121 CURVE SMOOTH",
"1355 -121 OFFCURVE",
"1286 -96 OFFCURVE",
"1237 -78 CURVE SMOOTH",
"1163 -51 OFFCURVE",
"1113 -36 OFFCURVE",
"1055 -36 CURVE SMOOTH",
"922 -36 OFFCURVE",
"814 -83 OFFCURVE",
"738 -170 CURVE",
"727 -238 LINE"
);
},
{
closed = 1;
nodes = (
"796 -86 OFFCURVE",
"883 -28 OFFCURVE",
"1045 28 CURVE",
"826 -12 LINE",
"748 -44 OFFCURVE",
"682 -126 OFFCURVE",
"658 -192 CURVE",
"727 -238 LINE"
);
}
);
width = 1548;
},
{
anchors = (
{
name = bottom;
position = "{824, 0}";
},
{
name = top;
position = "{824, 1400}";
}
);
components = (
{
name = O;
}
);
layerId = "72F22432-F665-4153-96BB-74D91BCC5F28";
paths = (
{
closed = 1;
nodes = (
"840 -180 OFFCURVE",
"855 -166 OFFCURVE",
"963 -166 CURVE SMOOTH",
"1018 -166 OFFCURVE",
"1099 -179 OFFCURVE",
"1171 -200 CURVE SMOOTH",
"1246 -222 OFFCURVE",
"1316 -223 OFFCURVE",
"1374 -223 CURVE SMOOTH",
"1512 -223 OFFCURVE",
"1671 -160 OFFCURVE",
"1733 -86 CURVE",
"1685 -34 LINE",
"1615 -91 OFFCURVE",
"1573 -100 OFFCURVE",
"1528 -100 CURVE SMOOTH",
"1468 -100 OFFCURVE",
"1411 -82 OFFCURVE",
"1352 -59 CURVE SMOOTH",
"1291 -35 OFFCURVE",
"1239 -18 OFFCURVE",
"1147 -18 CURVE SMOOTH",
"981 -18 OFFCURVE",
"884 -83 OFFCURVE",
"812 -170 CURVE",
"792 -238 LINE"
);
},
{
closed = 1;
nodes = (
"857 -88 OFFCURVE",
"914 -32 OFFCURVE",
"1094 25 CURVE",
"888 18 LINE",
"815 -13 OFFCURVE",
"741 -91 OFFCURVE",
"718 -192 CURVE",
"792 -238 LINE"
);
}
);
width = 1683;
}
);
leftKerningGroup = O;
leftMetricsKey = O;
rightKerningGroup = O;
rightMetricsKey = "=O-160";
unicode = 0051;
},
{
glyphname = R;
lastChange = "2020-11-11 22:15:01 +0000";
layers = (
{
anchors = (
{
name = bottom;
position = "{703, 0}";
},
{
name = top;
position = "{703, 1400}";
}
);
layerId = "14A1E899-FED4-4F52-86F4-A1F822586E10";
paths = (
{
closed = 1;
nodes = (
"1283 0 LINE",
"1283 64 LINE",
"1173 64 OFFCURVE",
"1146 81 OFFCURVE",
"1099 163 CURVE SMOOTH",
"834 625 LINE SMOOTH",
"806 674 OFFCURVE",
"775 682 OFFCURVE",
"754 686 CURVE",
"886 703 OFFCURVE",
"1157 779 OFFCURVE",
"1157 1061 CURVE SMOOTH",
"1157 1299 OFFCURVE",
"954 1400 OFFCURVE",
"710 1400 CURVE SMOOTH",
"400 1400 LINE",
"400 1334 LINE",
"689 1334 LINE SMOOTH",
"881 1334 OFFCURVE",
"1029 1268 OFFCURVE",
"1029 1054 CURVE SMOOTH",
"1029 832 OFFCURVE",
"835 736 OFFCURVE",
"605 736 CURVE SMOOTH",
"344 736 LINE",
"344 672 LINE",
"586 672 LINE SMOOTH",
"656 672 OFFCURVE",
"697 627 OFFCURVE",
"748 539 CURVE SMOOTH",
"1062 0 LINE"
);
},
{
closed = 1;
nodes = (
"602 0 LINE",
"602 64 LINE",
"467 64 OFFCURVE",
"412 67 OFFCURVE",
"412 146 CURVE SMOOTH",
"412 1400 LINE",
"115 1400 LINE",
"115 1336 LINE",
"237 1336 OFFCURVE",
"306 1335 OFFCURVE",
"306 1274 CURVE SMOOTH",
"306 146 LINE SMOOTH",
"306 67 OFFCURVE",
"251 64 OFFCURVE",
"115 64 CURVE",
"115 0 LINE"
);
}
);
width = 1359;
},
{
anchors = (
{
name = bottom;
position = "{847, 0}";
},
{
name = top;
position = "{847, 1400}";
}
);
layerId = "72F22432-F665-4153-96BB-74D91BCC5F28";
paths = (
{
closed = 1;
nodes = (
"1467 0 LINE",
"1467 64 LINE",
"1393 64 OFFCURVE",
"1331 123 OFFCURVE",
"1286 193 CURVE SMOOTH",
"1039 578 LINE SMOOTH",
"1009 625 OFFCURVE",
"966 689 OFFCURVE",
"897 694 CURVE",
"1020 699 OFFCURVE",
"1324 801 OFFCURVE",
"1324 1075 CURVE SMOOTH",
"1324 1328 OFFCURVE",
"1090 1400 OFFCURVE",
"798 1400 CURVE SMOOTH",
"560 1400 LINE",
"560 1334 LINE",
"778 1334 LINE SMOOTH",
"957 1334 OFFCURVE",
"1027 1238 OFFCURVE",
"1027 1054 CURVE SMOOTH",
"1027 875 OFFCURVE",
"918 736 OFFCURVE",
"754 736 CURVE SMOOTH",
"546 736 LINE",
"546 672 LINE",
"569 672 LINE SMOOTH",
"636 672 OFFCURVE",
"670 622 OFFCURVE",
"723 539 CURVE SMOOTH",
"1069 0 LINE"
);
},
{
closed = 1;
nodes = (
"751 0 LINE",
"751 64 LINE",
"623 64 OFFCURVE",
"571 83 OFFCURVE",
"571 181 CURVE SMOOTH",
"571 1400 LINE",
"110 1400 LINE",
"110 1336 LINE",
"240 1336 OFFCURVE",
"291 1324 OFFCURVE",
"291 1222 CURVE SMOOTH",
"291 181 LINE SMOOTH",
"291 83 OFFCURVE",
"239 64 OFFCURVE",
"110 64 CURVE",
"110 0 LINE"
);
}
);
width = 1543;
}
);
leftKerningGroup = H;
leftMetricsKey = H;
rightKerningGroup = R;
rightMetricsKey = "=E-20";
unicode = 0052;
},
{
glyphname = S;
lastChange = "2020-11-11 22:24:37 +0000";
layers = (
{
anchors = (
{
name = bottom;
position = "{537, 0}";
},
{
name = top;
position = "{547, 1400}";
}
);
layerId = "14A1E899-FED4-4F52-86F4-A1F822586E10";
paths = (
{
closed = 1;
nodes = (
"739 -26 OFFCURVE",
"987 109 OFFCURVE",
"987 387 CURVE SMOOTH",
"987 629 OFFCURVE",
"782 736 OFFCURVE",
"565 810 CURVE SMOOTH",
"356 881 OFFCURVE",
"209 967 OFFCURVE",
"209 1122 CURVE SMOOTH",
"209 1318 OFFCURVE",
"421 1356 OFFCURVE",
"543 1356 CURVE SMOOTH",
"678 1356 OFFCURVE",
"832 1278 OFFCURVE",
"850 1006 CURVE",
"898 1006 LINE",
"923 1318 LINE",
"879 1350 OFFCURVE",
"710 1422 OFFCURVE",
"546 1422 CURVE SMOOTH",
"344 1422 OFFCURVE",
"118 1344 OFFCURVE",
"118 1088 CURVE SMOOTH",
"118 861 OFFCURVE",
"303 773 OFFCURVE",
"535 694 CURVE SMOOTH",
"727 629 OFFCURVE",
"875 532 OFFCURVE",
"875 335 CURVE SMOOTH",
"875 149 OFFCURVE",
"701 40 OFFCURVE",
"550 40 CURVE SMOOTH",
"348 40 OFFCURVE",
"201 120 OFFCURVE",
"173 488 CURVE",
"125 488 LINE",
"95 135 LINE",
"194 28 OFFCURVE",
"345 -26 OFFCURVE",
"540 -26 CURVE SMOOTH"
);
}
);
width = 1082;
},
{
anchors = (
{
name = bottom;
position = "{628, 0}";
},
{
name = top;
position = "{637, 1400}";
}
);
layerId = "72F22432-F665-4153-96BB-74D91BCC5F28";
paths = (
{
closed = 1;
nodes = (
"872 -26 OFFCURVE",
"1224 37 OFFCURVE",
"1224 386 CURVE SMOOTH",
"1224 671 OFFCURVE",
"967 762 OFFCURVE",
"722 828 CURVE SMOOTH",
"529 880 OFFCURVE",
"343 935 OFFCURVE",
"343 1102 CURVE SMOOTH",
"343 1298 OFFCURVE",
"494 1351 OFFCURVE",
"663 1351 CURVE SMOOTH",
"884 1351 OFFCURVE",
"978 1193 OFFCURVE",
"1006 992 CURVE",
"1128 992 LINE",
"1179 1269 LINE",
"1108 1334 OFFCURVE",
"929 1422 OFFCURVE",
"660 1422 CURVE SMOOTH",
"415 1422 OFFCURVE",
"130 1293 OFFCURVE",
"130 1035 CURVE SMOOTH",
"130 792 OFFCURVE",
"287 684 OFFCURVE",
"549 613 CURVE SMOOTH",
"814 541 OFFCURVE",
"978 454 OFFCURVE",
"978 279 CURVE SMOOTH",
"978 93 OFFCURVE",
"820 45 OFFCURVE",
"642 45 CURVE SMOOTH",
"446 45 OFFCURVE",
"307 210 OFFCURVE",
"301 473 CURVE",
"179 473 LINE",
"115 103 LINE",
"245 18 OFFCURVE",
"453 -26 OFFCURVE",
"651 -26 CURVE SMOOTH"
);
}
);
width = 1334;
}
);
leftKerningGroup = S;
rightKerningGroup = S;
unicode = 0053;
},
{
glyphname = Germandbls;
lastChange = "2020-11-11 18:49:25 +0000";
layers = (
{
anchors = (
{
name = bottom;
position = "{598, 0}";
},
{
name = top;
position = "{598, 1400}";
}
);
layerId = "14A1E899-FED4-4F52-86F4-A1F822586E10";
paths = (
{
closed = 1;
nodes = (
"1043 1336 LINE",
"1043 1400 LINE",
"264 1400 LINE",
"264 132 LINE SMOOTH",
"264 70 OFFCURVE",
"221 64 OFFCURVE",
"115 64 CURVE",
"115 0 LINE",
"372 0 LINE",
"372 1324 LINE",
"947 1324 LINE",
"950 1349 LINE",
"575 918 LINE",
"595 838 LINE",
"815 833 OFFCURVE",
"995 742 OFFCURVE",
"995 406 CURVE SMOOTH",
"995 120 OFFCURVE",
"834 42 OFFCURVE",
"739 42 CURVE SMOOTH",
"620 42 OFFCURVE",
"571 67 OFFCURVE",
"560 245 CURVE",
"513 245 LINE",
"451 58 LINE",
"510 9 OFFCURVE",
"600 -24 OFFCURVE",
"718 -24 CURVE SMOOTH",
"864 -24 OFFCURVE",
"1121 70 OFFCURVE",
"1121 444 CURVE SMOOTH",
"1121 800 OFFCURVE",
"825 905 OFFCURVE",
"665 905 CURVE"
);
}
);
width = 1196;
},
{
anchors = (
{
name = bottom;
position = "{665, 0}";
},
{
name = top;
position = "{665, 1400}";
}
);
layerId = "72F22432-F665-4153-96BB-74D91BCC5F28";
paths = (
{
closed = 1;
nodes = (
"1131 1336 LINE",
"1131 1400 LINE",
"252 1400 LINE",
"252 167 LINE SMOOTH",
"252 105 OFFCURVE",
"211 64 OFFCURVE",
"110 64 CURVE",
"110 0 LINE",
"494 0 LINE",
"494 1324 LINE",
"1040 1324 LINE",
"1025 1349 LINE",
"669 918 LINE",
"688 838 LINE",
"843 835 OFFCURVE",
"996 724 OFFCURVE",
"996 389 CURVE SMOOTH",
"996 103 OFFCURVE",
"934 49 OFFCURVE",
"844 49 CURVE SMOOTH",
"731 49 OFFCURVE",
"700 112 OFFCURVE",
"688 264 CURVE",
"608 264 LINE",
"549 41 LINE",
"623 9 OFFCURVE",
"710 -24 OFFCURVE",
"822 -24 CURVE SMOOTH",
"961 -24 OFFCURVE",
"1259 53 OFFCURVE",
"1259 462 CURVE SMOOTH",
"1259 835 OFFCURVE",
"923 905 OFFCURVE",
"772 905 CURVE"
);
}
);
width = 1329;
}
);
leftKerningGroup = L;
leftMetricsKey = L;
rightKerningGroup = B;
rightMetricsKey = B;
unicode = 1E9E;
},
{
glyphname = T;
lastChange = "2020-11-11 19:22:34 +0000";
layers = (
{
anchors = (
{
name = bottom;
position = "{695, 0}";
},
{
name = center;
position = "{695, 700}";
},
{
name = top;
position = "{695, 1400}";
}
);
layerId = "14A1E899-FED4-4F52-86F4-A1F822586E10";
paths = (
{
closed = 1;
nodes = (
"936 0 LINE",
"936 64 LINE",
"818 64 OFFCURVE",
"752 64 OFFCURVE",
"752 153 CURVE SMOOTH",
"752 1400 LINE",
"639 1400 LINE",
"639 153 LINE SMOOTH",
"639 66 OFFCURVE",
"583 64 OFFCURVE",
"455 64 CURVE",
"455 0 LINE"
);
},
{
closed = 1;
nodes = (
"141 994 LINE",
"176 1164 OFFCURVE",
"225 1336 OFFCURVE",
"382 1336 CURVE SMOOTH",
"690 1336 LINE",
"690 1400 LINE",
"121 1400 LINE",
"74 994 LINE"
);
},
{
closed = 1;
nodes = (
"1315 994 LINE",
"1268 1400 LINE",
"699 1400 LINE",
"699 1336 LINE",
"1007 1336 LINE SMOOTH",
"1164 1336 OFFCURVE",
"1213 1164 OFFCURVE",
"1248 994 CURVE"
);
}
);
width = 1389;
},
{
anchors = (
{
name = bottom;
position = "{783, 0}";
},
{
name = center;
position = "{783, 700}";
},
{
name = top;
position = "{783, 1400}";
}
);
layerId = "72F22432-F665-4153-96BB-74D91BCC5F28";
paths = (
{
closed = 1;
nodes = (
"1092 0 LINE",
"1092 64 LINE",
"980 64 OFFCURVE",
"917 87 OFFCURVE",
"917 188 CURVE SMOOTH",
"917 1400 LINE",
"649 1400 LINE",
"649 188 LINE SMOOTH",
"649 89 OFFCURVE",
"596 64 OFFCURVE",
"474 64 CURVE",
"474 0 LINE"
);
},
{
closed = 1;
nodes = (
"198 1009 LINE",
"233 1130 OFFCURVE",
"302 1336 OFFCURVE",
"446 1336 CURVE SMOOTH",
"708 1336 LINE",
"708 1400 LINE",
"114 1400 LINE",
"81 1009 LINE"
);
},
{
closed = 1;
nodes = (
"1485 1009 LINE",
"1452 1400 LINE",
"858 1400 LINE",
"858 1336 LINE",
"1120 1336 LINE SMOOTH",
"1265 1336 OFFCURVE",
"1335 1129 OFFCURVE",
"1368 1009 CURVE"
);
}
);
width = 1566;
}
);
leftKerningGroup = T;
rightKerningGroup = T;
unicode = 0054;
},
{
glyphname = Tbar;
lastChange = "2020-11-11 22:37:22 +0000";
layers = (
{
components = (
{
name = T;
}
);
layerId = "14A1E899-FED4-4F52-86F4-A1F822586E10";
paths = (
{
closed = 1;
nodes = (
"1002 669 LINE",
"1002 741 LINE",
"380 741 LINE",
"380 669 LINE"
);
}
);
width = 1389;
},
{
components = (
{
name = T;
}
);
layerId = "72F22432-F665-4153-96BB-74D91BCC5F28";
paths = (
{
closed = 1;
nodes = (
"1176 652 LINE",
"1176 741 LINE",
"392 741 LINE",
"392 652 LINE"
);
}
);
width = 1566;
}
);
leftKerningGroup = T;
leftMetricsKey = T;
rightKerningGroup = T;
rightMetricsKey = T;
unicode = 0166;
},
{
glyphname = U;
lastChange = "2020-11-11 22:16:19 +0000";
layers = (
{
anchors = (
{
name = bottom;
position = "{783, 0}";
},
{
name = ogonek;
position = "{1195, 157}";
},
{
name = top;
position = "{783, 1400}";
},
{
name = topright;
position = "{1460, 1400}";
}
);
layerId = "14A1E899-FED4-4F52-86F4-A1F822586E10";
paths = (
{
closed = 1;
nodes = (
"1053 -34 OFFCURVE",
"1298 114 OFFCURVE",
"1298 520 CURVE SMOOTH",
"1298 1286 LINE SMOOTH",
"1298 1335 OFFCURVE",
"1353 1336 OFFCURVE",
"1482 1336 CURVE",
"1482 1400 LINE",
"1015 1400 LINE",
"1015 1336 LINE",
"1143 1336 OFFCURVE",
"1199 1335 OFFCURVE",
"1199 1286 CURVE SMOOTH",
"1199 494 LINE SMOOTH",
"1199 164 OFFCURVE",
"1007 44 OFFCURVE",
"814 44 CURVE SMOOTH",
"558 44 OFFCURVE",
"384 154 OFFCURVE",
"384 494 CURVE SMOOTH",
"384 1286 LINE SMOOTH",
"384 1335 OFFCURVE",
"440 1336 OFFCURVE",
"568 1336 CURVE",
"568 1400 LINE",
"85 1400 LINE",
"85 1336 LINE",
"214 1336 OFFCURVE",
"269 1335 OFFCURVE",
"269 1286 CURVE SMOOTH",
"269 500 LINE SMOOTH",
"269 74 OFFCURVE",
"531 -34 OFFCURVE",
"791 -34 CURVE SMOOTH"
);
}
);
width = 1567;
},
{
anchors = (
{
name = bottom;
position = "{815, 0}";
},
{
name = ogonek;
position = "{1288, 157}";
},
{
name = top;
position = "{835, 1400}";
},
{
name = topright;
position = "{1511, 1400}";
}
);
layerId = "72F22432-F665-4153-96BB-74D91BCC5F28";
paths = (
{
closed = 1;
nodes = (
"1106 -34 OFFCURVE",
"1393 69 OFFCURVE",
"1393 490 CURVE SMOOTH",
"1393 1251 LINE SMOOTH",
"1393 1323 OFFCURVE",
"1445 1336 OFFCURVE",
"1568 1336 CURVE",
"1568 1400 LINE",
"1089 1400 LINE",
"1089 1336 LINE",
"1210 1336 OFFCURVE",
"1263 1323 OFFCURVE",
"1263 1251 CURVE SMOOTH",
"1263 442 LINE SMOOTH",
"1263 154 OFFCURVE",
"1090 46 OFFCURVE",
"919 46 CURVE SMOOTH",
"679 46 OFFCURVE",
"539 189 OFFCURVE",
"539 494 CURVE SMOOTH",
"539 1251 LINE SMOOTH",
"539 1323 OFFCURVE",
"592 1336 OFFCURVE",
"714 1336 CURVE",
"714 1400 LINE",
"80 1400 LINE",
"80 1336 LINE",
"203 1336 OFFCURVE",
"255 1323 OFFCURVE",
"255 1251 CURVE SMOOTH",
"255 500 LINE SMOOTH",
"255 74 OFFCURVE",
"558 -34 OFFCURVE",
"858 -34 CURVE SMOOTH"
);
}
);
width = 1648;
}
);
leftKerningGroup = U;
leftMetricsKey = "=H-30";
rightKerningGroup = U;
rightMetricsKey = "=H-30";
unicode = 0055;
},
{
glyphname = Uhorn;
lastChange = "2020-11-11 18:49:25 +0000";
layers = (
{
anchors = (
{
name = bottom;
position = "{789, 0}";
},
{
name = top;
position = "{789, 1400}";
}
);
components = (
{
name = horncomb;
transform = "{1, 0, 0, 1, 1383, 472}";
}
);
layerId = "14A1E899-FED4-4F52-86F4-A1F822586E10";
paths = (
{
closed = 1;
nodes = (
"1053 -34 OFFCURVE",
"1298 114 OFFCURVE",
"1298 520 CURVE SMOOTH",
"1298 1286 LINE SMOOTH",
"1298 1335 OFFCURVE",
"1353 1336 OFFCURVE",
"1482 1336 CURVE",
"1482 1400 LINE",
"1015 1400 LINE",
"1015 1336 LINE",
"1143 1336 OFFCURVE",
"1199 1335 OFFCURVE",
"1199 1286 CURVE SMOOTH",
"1199 494 LINE SMOOTH",
"1199 164 OFFCURVE",
"1007 44 OFFCURVE",
"814 44 CURVE SMOOTH",
"558 44 OFFCURVE",
"384 154 OFFCURVE",
"384 494 CURVE SMOOTH",
"384 1286 LINE SMOOTH",
"384 1335 OFFCURVE",
"440 1336 OFFCURVE",
"568 1336 CURVE",
"568 1400 LINE",
"85 1400 LINE",
"85 1336 LINE",
"214 1336 OFFCURVE",
"269 1335 OFFCURVE",
"269 1286 CURVE SMOOTH",
"269 500 LINE SMOOTH",
"269 74 OFFCURVE",
"531 -34 OFFCURVE",
"791 -34 CURVE SMOOTH"
);
}
);
width = 1643;
},
{
anchors = (
{
name = bottom;
position = "{820, 0}";
},
{
name = top;
position = "{820, 1400}";
}
);
components = (
{
name = horncomb;
transform = "{1, 0, 0, 1, 1474, 472}";
}
);
layerId = "72F22432-F665-4153-96BB-74D91BCC5F28";
paths = (
{
closed = 1;
nodes = (
"1106 -34 OFFCURVE",
"1393 79 OFFCURVE",
"1393 520 CURVE SMOOTH",
"1393 1251 LINE SMOOTH",
"1393 1323 OFFCURVE",
"1445 1336 OFFCURVE",
"1568 1336 CURVE",
"1568 1400 LINE",
"1089 1400 LINE",
"1089 1336 LINE",
"1210 1336 OFFCURVE",
"1263 1323 OFFCURVE",
"1263 1251 CURVE SMOOTH",
"1263 442 LINE SMOOTH",
"1263 164 OFFCURVE",
"1100 44 OFFCURVE",
"969 44 CURVE SMOOTH",
"709 44 OFFCURVE",
"539 189 OFFCURVE",
"539 494 CURVE SMOOTH",
"539 1251 LINE SMOOTH",
"539 1323 OFFCURVE",
"592 1336 OFFCURVE",
"714 1336 CURVE",
"714 1400 LINE",
"80 1400 LINE",
"80 1336 LINE",
"203 1336 OFFCURVE",
"255 1323 OFFCURVE",
"255 1251 CURVE SMOOTH",
"255 500 LINE SMOOTH",
"255 74 OFFCURVE",
"558 -34 OFFCURVE",
"858 -34 CURVE SMOOTH"
);
}
);
width = 1736;
}
);
leftKerningGroup = U;
leftMetricsKey = U;
rightKerningGroup = U;
rightMetricsKey = "=U-200";
unicode = 01AF;
},
{
glyphname = V;
lastChange = "2020-11-11 22:16:25 +0000";
layers = (
{
anchors = (
{
name = bottom;
position = "{665, 0}";
},
{
name = top;
position = "{665, 1400}";
}
);
layerId = "14A1E899-FED4-4F52-86F4-A1F822586E10";
paths = (
{
closed = 1;
nodes = (
"729 0 LINE",
"1196 1272 LINE SMOOTH",
"1218 1331 OFFCURVE",
"1267 1336 OFFCURVE",
"1361 1336 CURVE",
"1361 1400 LINE",
"961 1400 LINE",
"961 1336 LINE",
"1084 1336 OFFCURVE",
"1121 1334 OFFCURVE",
"1121 1305 CURVE SMOOTH",
"1121 1295 OFFCURVE",
"1117 1275 OFFCURVE",
"1109 1254 CURVE SMOOTH",
"728 227 LINE",
"343 1265 LINE SMOOTH",
"336 1284 OFFCURVE",
"332 1296 OFFCURVE",
"332 1310 CURVE SMOOTH",
"332 1334 OFFCURVE",
"362 1336 OFFCURVE",
"496 1336 CURVE",
"496 1400 LINE",
"40 1400 LINE",
"40 1336 LINE",
"136 1336 OFFCURVE",
"196 1331 OFFCURVE",
"218 1272 CURVE SMOOTH",
"688 0 LINE"
);
}
);
width = 1401;
},
{
anchors = (
{
name = bottom;
position = "{812, 0}";
},
{
name = top;
position = "{812, 1400}";
}
);
layerId = "72F22432-F665-4153-96BB-74D91BCC5F28";
paths = (
{
closed = 1;
nodes = (
"837 0 LINE",
"1388 1272 LINE SMOOTH",
"1414 1331 OFFCURVE",
"1507 1336 OFFCURVE",
"1596 1336 CURVE",
"1596 1400 LINE",
"1134 1400 LINE",
"1134 1336 LINE",
"1219 1336 OFFCURVE",
"1280 1332 OFFCURVE",
"1280 1286 CURVE SMOOTH",
"1280 1272 OFFCURVE",
"1277 1255 OFFCURVE",
"1269 1236 CURVE SMOOTH",
"895 356 LINE",
"565 1228 LINE SMOOTH",
"557 1249 OFFCURVE",
"552 1270 OFFCURVE",
"552 1282 CURVE SMOOTH",
"552 1334 OFFCURVE",
"617 1336 OFFCURVE",
"696 1336 CURVE",
"696 1400 LINE",
"39 1400 LINE",
"39 1336 LINE",
"130 1336 OFFCURVE",
"220 1331 OFFCURVE",
"244 1272 CURVE SMOOTH",
"762 0 LINE"
);
}
);
width = 1635;
}
);
leftKerningGroup = V;
leftMetricsKey = A;
rightKerningGroup = V;
rightMetricsKey = A;
unicode = 0056;
},
{
glyphname = W;
lastChange = "2020-11-11 18:49:22 +0000";
layers = (
{
anchors = (
{
name = bottom;
position = "{1060, 0}";
},
{
name = top;
position = "{1065, 1400}";
}
);
layerId = "14A1E899-FED4-4F52-86F4-A1F822586E10";
paths = (
{
closed = 1;
nodes = (
"1409 0 LINE",
"1846 1272 LINE SMOOTH",
"1866 1331 OFFCURVE",
"1917 1336 OFFCURVE",
"2011 1336 CURVE",
"2011 1400 LINE",
"1611 1400 LINE",
"1611 1336 LINE",
"1734 1336 OFFCURVE",
"1771 1334 OFFCURVE",
"1771 1305 CURVE SMOOTH",
"1771 1292 OFFCURVE",
"1766 1275 OFFCURVE",
"1759 1254 CURVE SMOOTH",
"1410 237 LINE",
"1053 1265 LINE SMOOTH",
"1046 1286 OFFCURVE",
"1043 1296 OFFCURVE",
"1043 1310 CURVE SMOOTH",
"1043 1334 OFFCURVE",
"1072 1336 OFFCURVE",
"1206 1336 CURVE",
"1206 1400 LINE",
"750 1400 LINE",
"750 1336 LINE",
"846 1336 OFFCURVE",
"908 1331 OFFCURVE",
"928 1272 CURVE SMOOTH",
"1368 0 LINE"
);
},
{
closed = 1;
nodes = (
"699 0 LINE",
"1078 1102 LINE",
"1022 1174 LINE",
"700 237 LINE",
"343 1265 LINE SMOOTH",
"336 1286 OFFCURVE",
"333 1296 OFFCURVE",
"333 1310 CURVE SMOOTH",
"333 1334 OFFCURVE",
"362 1336 OFFCURVE",
"496 1336 CURVE",
"496 1400 LINE",
"40 1400 LINE",
"40 1336 LINE",
"135 1336 OFFCURVE",
"198 1331 OFFCURVE",
"218 1272 CURVE SMOOTH",
"658 0 LINE"
);
}
);
width = 2051;
},
{
anchors = (
{
name = bottom;
position = "{1179, 0}";
},
{
name = top;
position = "{1181, 1400}";
}
);
layerId = "72F22432-F665-4153-96BB-74D91BCC5F28";
paths = (
{
closed = 1;
nodes = (
"1611 0 LINE",
"2093 1272 LINE SMOOTH",
"2115 1331 OFFCURVE",
"2213 1336 OFFCURVE",
"2303 1336 CURVE",
"2303 1400 LINE",
"1842 1400 LINE",
"1842 1336 LINE",
"1928 1336 OFFCURVE",
"1993 1334 OFFCURVE",
"1993 1288 CURVE SMOOTH",
"1993 1275 OFFCURVE",
"1986 1258 OFFCURVE",
"1978 1236 CURVE SMOOTH",
"1675 410 LINE",
"1385 1228 LINE SMOOTH",
"1378 1248 OFFCURVE",
"1373 1268 OFFCURVE",
"1373 1282 CURVE SMOOTH",
"1373 1334 OFFCURVE",
"1479 1336 OFFCURVE",
"1558 1336 CURVE",
"1558 1400 LINE",
"883 1400 LINE",
"883 1336 LINE",
"974 1336 OFFCURVE",
"1025 1331 OFFCURVE",
"1047 1272 CURVE SMOOTH",
"1526 0 LINE"
);
},
{
closed = 1;
nodes = (
"808 0 LINE",
"1257 1183 LINE",
"1197 1297 LINE",
"868 410 LINE",
"582 1228 LINE SMOOTH",
"576 1245 OFFCURVE",
"569 1268 OFFCURVE",
"569 1282 CURVE SMOOTH",
"569 1334 OFFCURVE",
"634 1336 OFFCURVE",
"714 1336 CURVE",
"714 1400 LINE",
"39 1400 LINE",
"39 1336 LINE",
"129 1336 OFFCURVE",
"222 1331 OFFCURVE",
"244 1272 CURVE SMOOTH",
"723 0 LINE"
);
}
);
width = 2342;
}
);
leftKerningGroup = V;
leftMetricsKey = V;
rightKerningGroup = V;
rightMetricsKey = V;
unicode = 0057;
},
{
glyphname = X;
lastChange = "2020-11-11 18:49:22 +0000";
layers = (
{
anchors = (
{
name = bottom;
position = "{750, 0}";
},
{
name = top;
position = "{750, 1400}";
}
);
layerId = "14A1E899-FED4-4F52-86F4-A1F822586E10";
paths = (
{
closed = 1;
nodes = (
"1499 0 LINE",
"1499 64 LINE",
"1382 64 OFFCURVE",
"1339 65 OFFCURVE",
"1291 128 CURVE SMOOTH",
"440 1244 LINE SMOOTH",
"424 1265 OFFCURVE",
"410 1286 OFFCURVE",
"410 1299 CURVE SMOOTH",
"410 1335 OFFCURVE",
"453 1336 OFFCURVE",
"553 1336 CURVE",
"553 1400 LINE",
"119 1400 LINE",
"119 1336 LINE",
"219 1336 OFFCURVE",
"252 1312 OFFCURVE",
"282 1272 CURVE SMOOTH",
"1140 142 LINE SMOOTH",
"1156 121 OFFCURVE",
"1165 109 OFFCURVE",
"1165 97 CURVE SMOOTH",
"1165 75 OFFCURVE",
"1126 64 OFFCURVE",
"1017 64 CURVE",
"1017 0 LINE"
);
},
{
closed = 1;
nodes = (
"513 0 LINE",
"513 64 LINE",
"399 64 OFFCURVE",
"348 76 OFFCURVE",
"348 111 CURVE SMOOTH",
"348 124 OFFCURVE",
"355 139 OFFCURVE",
"368 156 CURVE SMOOTH",
"787 693 LINE",
"740 758 LINE",
"241 128 LINE SMOOTH",
"204 81 OFFCURVE",
"180 64 OFFCURVE",
"40 64 CURVE",
"40 0 LINE"
);
},
{
closed = 1;
nodes = (
"1245 1272 LINE SMOOTH",
"1279 1314 OFFCURVE",
"1295 1336 OFFCURVE",
"1446 1336 CURVE",
"1446 1400 LINE",
"973 1400 LINE",
"973 1336 LINE",
"1087 1336 OFFCURVE",
"1138 1322 OFFCURVE",
"1138 1287 CURVE SMOOTH",
"1138 1274 OFFCURVE",
"1131 1261 OFFCURVE",
"1118 1244 CURVE SMOOTH",
"699 707 LINE",
"746 642 LINE"
);
}
);
width = 1539;
},
{
anchors = (
{
name = bottom;
position = "{817, 0}";
},
{
name = top;
position = "{817, 1400}";
}
);
layerId = "72F22432-F665-4153-96BB-74D91BCC5F28";
paths = (
{
closed = 1;
nodes = (
"1547 0 LINE",
"1547 64 LINE",
"1435 64 OFFCURVE",
"1395 65 OFFCURVE",
"1349 128 CURVE SMOOTH",
"541 1244 LINE SMOOTH",
"526 1265 OFFCURVE",
"525 1276 OFFCURVE",
"525 1289 CURVE SMOOTH",
"525 1333 OFFCURVE",
"638 1336 OFFCURVE",
"684 1336 CURVE",
"684 1400 LINE",
"39 1400 LINE",
"39 1336 LINE",
"129 1336 OFFCURVE",
"162 1316 OFFCURVE",
"194 1272 CURVE SMOOTH",
"991 166 LINE SMOOTH",
"1006 145 OFFCURVE",
"1025 116 OFFCURVE",
"1025 105 CURVE SMOOTH",
"1025 66 OFFCURVE",
"952 64 OFFCURVE",
"856 64 CURVE",
"856 0 LINE"
);
},
{
closed = 1;
nodes = (
"588 0 LINE",
"588 64 LINE",
"480 64 OFFCURVE",
"432 76 OFFCURVE",
"432 111 CURVE SMOOTH",
"432 122 OFFCURVE",
"438 139 OFFCURVE",
"451 156 CURVE SMOOTH",
"849 693 LINE",
"772 758 LINE",
"298 128 LINE SMOOTH",
"263 81 OFFCURVE",
"206 64 OFFCURVE",
"71 64 CURVE",
"71 0 LINE"
);
},
{
closed = 1;
nodes = (
"1320 1272 LINE SMOOTH",
"1355 1319 OFFCURVE",
"1413 1336 OFFCURVE",
"1546 1336 CURVE",
"1546 1400 LINE",
"1029 1400 LINE",
"1029 1336 LINE",
"1137 1336 OFFCURVE",
"1186 1322 OFFCURVE",
"1186 1287 CURVE SMOOTH",
"1186 1272 OFFCURVE",
"1178 1259 OFFCURVE",
"1167 1244 CURVE SMOOTH",
"769 707 LINE",
"846 642 LINE"
);
}
);
width = 1586;
}
);
leftKerningGroup = X;
leftMetricsKey = A;
rightKerningGroup = X;
rightMetricsKey = A;
unicode = 0058;
},
{
glyphname = Y;
lastChange = "2020-11-11 18:49:22 +0000";
layers = (
{
anchors = (
{
name = bottom;
position = "{615, 0}";
},
{
name = top;
position = "{615, 1400}";
},
{
name = topleft;
position = "{-108, 1400}";
}
);
layerId = "14A1E899-FED4-4F52-86F4-A1F822586E10";
paths = (
{
closed = 1;
nodes = (
"915 0 LINE",
"915 64 LINE",
"779 64 OFFCURVE",
"724 69 OFFCURVE",
"724 136 CURVE SMOOTH",
"724 639 LINE",
"1126 1272 LINE SMOOTH",
"1160 1325 OFFCURVE",
"1169 1336 OFFCURVE",
"1290 1336 CURVE",
"1290 1400 LINE",
"915 1400 LINE",
"915 1336 LINE",
"1029 1336 OFFCURVE",
"1041 1331 OFFCURVE",
"1041 1307 CURVE SMOOTH",
"1041 1293 OFFCURVE",
"1034 1272 OFFCURVE",
"1024 1257 CURVE SMOOTH",
"688 735 LINE",
"352 1251 LINE SMOOTH",
"335 1277 OFFCURVE",
"328 1294 OFFCURVE",
"328 1307 CURVE SMOOTH",
"328 1329 OFFCURVE",
"364 1336 OFFCURVE",
"456 1336 CURVE",
"456 1400 LINE",
"40 1400 LINE",
"40 1336 LINE",
"162 1336 OFFCURVE",
"176 1315 OFFCURVE",
"204 1272 CURVE SMOOTH",
"618 639 LINE",
"618 136 LINE SMOOTH",
"618 69 OFFCURVE",
"563 64 OFFCURVE",
"427 64 CURVE",
"427 0 LINE"
);
}
);
width = 1330;
},
{
anchors = (
{
name = bottom;
position = "{800, 0}";
},
{
name = top;
position = "{800, 1400}";
},
{
name = topleft;
position = "{113, 1400}";
}
);
layerId = "72F22432-F665-4153-96BB-74D91BCC5F28";
paths = (
{
closed = 1;
nodes = (
"1085 0 LINE",
"1085 64 LINE",
"956 64 OFFCURVE",
"903 69 OFFCURVE",
"903 171 CURVE SMOOTH",
"903 639 LINE",
"1285 1272 LINE SMOOTH",
"1321 1332 OFFCURVE",
"1357 1336 OFFCURVE",
"1477 1336 CURVE",
"1477 1400 LINE",
"1067 1400 LINE",
"1067 1336 LINE",
"1175 1336 OFFCURVE",
"1187 1331 OFFCURVE",
"1187 1307 CURVE SMOOTH",
"1187 1291 OFFCURVE",
"1180 1272 OFFCURVE",
"1171 1257 CURVE SMOOTH",
"867 765 LINE",
"569 1251 LINE SMOOTH",
"553 1277 OFFCURVE",
"546 1294 OFFCURVE",
"546 1307 CURVE SMOOTH",
"546 1329 OFFCURVE",
"580 1336 OFFCURVE",
"668 1336 CURVE",
"668 1400 LINE",
"39 1400 LINE",
"39 1336 LINE",
"181 1336 OFFCURVE",
"206 1311 OFFCURVE",
"230 1272 CURVE SMOOTH",
"624 639 LINE",
"624 171 LINE SMOOTH",
"624 69 OFFCURVE",
"572 64 OFFCURVE",
"442 64 CURVE",
"442 0 LINE"
);
}
);
width = 1516;
}
);
leftKerningGroup = V;
leftMetricsKey = V;
rightKerningGroup = V;
rightMetricsKey = V;
unicode = 0059;
},
{
glyphname = Z;
lastChange = "2020-11-11 19:23:38 +0000";
layers = (
{
anchors = (
{
name = bottom;
position = "{688, 0}";
},
{
name = center;
position = "{688, 700}";
},
{
name = top;
position = "{688, 1400}";
}
);
layerId = "14A1E899-FED4-4F52-86F4-A1F822586E10";
paths = (
{
closed = 1;
nodes = (
"676 0 LINE",
"634 64 LINE",
"284 64 LINE",
"1146 1338 LINE",
"1146 1400 LINE",
"704 1400 LINE",
"638 1336 LINE",
"1026 1336 LINE",
"160 64 LINE",
"160 0 LINE"
);
},
{
closed = 1;
nodes = (
"1094 0 LINE",
"1141 406 LINE",
"1074 406 LINE",
"1039 236 OFFCURVE",
"985 64 OFFCURVE",
"828 64 CURVE SMOOTH",
"565 64 LINE",
"565 0 LINE"
);
},
{
closed = 1;
nodes = (
"235 994 LINE",
"270 1164 OFFCURVE",
"324 1336 OFFCURVE",
"481 1336 CURVE SMOOTH",
"764 1336 LINE",
"764 1400 LINE",
"215 1400 LINE",
"168 994 LINE"
);
}
);
width = 1242;
},
{
anchors = (
{
name = bottom;
position = "{654, 0}";
},
{
name = center;
position = "{654, 700}";
},
{
name = top;
position = "{654, 1400}";
}
);
layerId = "72F22432-F665-4153-96BB-74D91BCC5F28";
paths = (
{
closed = 1;
nodes = (
"728 0 LINE",
"688 64 LINE",
"360 64 LINE",
"1210 1338 LINE",
"1210 1400 LINE",
"596 1400 LINE",
"533 1336 LINE",
"917 1336 LINE",
"63 64 LINE",
"63 0 LINE"
);
},
{
closed = 1;
nodes = (
"1164 0 LINE",
"1206 404 LINE",
"1089 404 LINE",
"1055 267 OFFCURVE",
"986 64 OFFCURVE",
"768 64 CURVE SMOOTH",
"555 64 LINE",
"555 0 LINE"
);
},
{
closed = 1;
nodes = (
"234 1047 LINE",
"264 1167 OFFCURVE",
"315 1336 OFFCURVE",
"453 1336 CURVE SMOOTH",
"661 1336 LINE",
"661 1400 LINE",
"149 1400 LINE",
"105 1047 LINE"
);
}
);
width = 1306;
}
);
leftKerningGroup = Z;
rightKerningGroup = Z;
rightMetricsKey = L;
unicode = 005A;
},
{
glyphname = a;
lastChange = "2020-11-11 22:37:01 +0000";
layers = (
{
anchors = (
{
name = bottom;
position = "{435, 0}";
},
{
name = ogonek;
position = "{855, 22}";
},
{
name = top;
position = "{422, 826}";
}
);
layerId = "14A1E899-FED4-4F52-86F4-A1F822586E10";
paths = (
{
closed = 1;
nodes = (
"407 -28 OFFCURVE",
"478 14 OFFCURVE",
"625 104 CURVE",
"635 7 OFFCURVE",
"703 -19 OFFCURVE",
"748 -19 CURVE SMOOTH",
"785 -19 OFFCURVE",
"828 -9 OFFCURVE",
"855 22 CURVE",
"825 66 LINE",
"774 28 OFFCURVE",
"734 37 OFFCURVE",
"734 96 CURVE SMOOTH",
"734 506 LINE SMOOTH",
"734 810 OFFCURVE",
"584 847 OFFCURVE",
"462 847 CURVE SMOOTH",
"352 847 OFFCURVE",
"194 768 OFFCURVE",
"117 720 CURVE",
"117 504 LINE",
"260 561 LINE",
"213 679 LINE",
"255 721 OFFCURVE",
"373 781 OFFCURVE",
"459 781 CURVE SMOOTH",
"547 781 OFFCURVE",
"616 717 OFFCURVE",
"616 552 CURVE SMOOTH",
"616 504 LINE",
"308 399 LINE SMOOTH",
"167 351 OFFCURVE",
"75 297 OFFCURVE",
"75 167 CURVE SMOOTH",
"75 24 OFFCURVE",
"205 -28 OFFCURVE",
"298 -28 CURVE SMOOTH"
);
},
{
closed = 1;
nodes = (
"264 48 OFFCURVE",
"205 89 OFFCURVE",
"205 182 CURVE SMOOTH",
"205 268 OFFCURVE",
"254 303 OFFCURVE",
"316 325 CURVE SMOOTH",
"616 434 LINE",
"616 174 LINE",
"468 86 OFFCURVE",
"400 48 OFFCURVE",
"328 48 CURVE SMOOTH"
);
}
);
width = 890;
},
{
anchors = (
{
name = bottom;
position = "{474, 0}";
},
{
name = ogonek;
position = "{955, 22}";
},
{
name = top;
position = "{462, 826}";
}
);
layerId = "72F22432-F665-4153-96BB-74D91BCC5F28";
paths = (
{
closed = 1;
nodes = (
"430 -28 OFFCURVE",
"512 6 OFFCURVE",
"619 96 CURVE",
"628 34 OFFCURVE",
"689 -19 OFFCURVE",
"802 -19 CURVE SMOOTH",
"857 -19 OFFCURVE",
"927 -1 OFFCURVE",
"955 22 CURVE",
"926 76 LINE",
"881 41 OFFCURVE",
"840 53 OFFCURVE",
"840 106 CURVE SMOOTH",
"840 506 LINE SMOOTH",
"840 791 OFFCURVE",
"683 847 OFFCURVE",
"501 847 CURVE SMOOTH",
"389 847 OFFCURVE",
"247 788 OFFCURVE",
"105 716 CURVE",
"105 493 LINE",
"312 550 LINE",
"267 676 LINE",
"320 716 OFFCURVE",
"418 773 OFFCURVE",
"498 773 CURVE SMOOTH",
"581 773 OFFCURVE",
"610 717 OFFCURVE",
"610 552 CURVE SMOOTH",
"610 536 LINE",
"335 436 LINE SMOOTH",
"202 388 OFFCURVE",
"70 333 OFFCURVE",
"70 177 CURVE SMOOTH",
"70 25 OFFCURVE",
"192 -28 OFFCURVE",
"320 -28 CURVE SMOOTH"
);
},
{
closed = 1;
nodes = (
"371 74 OFFCURVE",
"311 121 OFFCURVE",
"311 215 CURVE SMOOTH",
"311 327 OFFCURVE",
"374 373 OFFCURVE",
"466 407 CURVE SMOOTH",
"610 461 LINE",
"610 179 LINE",
"509 88 OFFCURVE",
"475 74 OFFCURVE",
"422 74 CURVE SMOOTH"
);
}
);
width = 979;
}
);
leftKerningGroup = a;
leftMetricsKey = o;
rightKerningGroup = a;
unicode = 0061;
},
{
glyphname = ae;
lastChange = "2020-11-11 21:55:12 +0000";
layers = (
{
anchors = (
{
name = bottom;
position = "{697, 0}";
},
{
name = top;
position = "{676, 821}";
}
);
components = (
{
name = e;
transform = "{1, 0, 0, 1, 546, 0}";
}
);
layerId = "14A1E899-FED4-4F52-86F4-A1F822586E10";
paths = (
{
closed = 1;
nodes = (
"407 -28 OFFCURVE",
"467 6 OFFCURVE",
"615 96 CURVE SMOOTH",
"671 130 OFFCURVE",
"724 187 OFFCURVE",
"724 260 CURVE",
"724 506 LINE SMOOTH",
"724 810 OFFCURVE",
"554 842 OFFCURVE",
"422 842 CURVE SMOOTH",
"329 842 OFFCURVE",
"255 808 OFFCURVE",
"103 724 CURVE",
"103 498 LINE",
"246 555 LINE",
"194 687 LINE",
"260 729 OFFCURVE",
"353 776 OFFCURVE",
"429 776 CURVE SMOOTH",
"517 776 OFFCURVE",
"606 717 OFFCURVE",
"606 552 CURVE",
"606 538 LINE",
"298 419 LINE SMOOTH",
"158 365 OFFCURVE",
"75 317 OFFCURVE",
"75 187 CURVE SMOOTH",
"75 24 OFFCURVE",
"205 -28 OFFCURVE",
"298 -28 CURVE SMOOTH"
);
},
{
closed = 1;
nodes = (
"264 48 OFFCURVE",
"205 87 OFFCURVE",
"205 200 CURVE SMOOTH",
"205 266 OFFCURVE",
"234 317 OFFCURVE",
"295 341 CURVE SMOOTH",
"606 464 LINE",
"606 164 LINE",
"458 76 OFFCURVE",
"400 48 OFFCURVE",
"318 48 CURVE SMOOTH"
);
}
);
width = 1444;
},
{
anchors = (
{
name = bottom;
position = "{840, 0}";
},
{
name = top;
position = "{855, 821}";
}
);
components = (
{
name = e;
transform = "{1, 0, 0, 1, 669, 0}";
}
);
layerId = "72F22432-F665-4153-96BB-74D91BCC5F28";
paths = (
{
closed = 1;
nodes = (
"531 -28 OFFCURVE",
"626 14 OFFCURVE",
"714 73 CURVE SMOOTH",
"795 127 OFFCURVE",
"849 187 OFFCURVE",
"919 274 CURVE",
"919 471 LINE SMOOTH",
"919 745 OFFCURVE",
"808 842 OFFCURVE",
"543 842 CURVE SMOOTH",
"460 842 OFFCURVE",
"290 781 OFFCURVE",
"132 708 CURVE",
"132 430 LINE",
"358 487 LINE",
"299 691 LINE",
"367 730 OFFCURVE",
"442 776 OFFCURVE",
"531 776 CURVE SMOOTH",
"625 776 OFFCURVE",
"700 722 OFFCURVE",
"700 517 CURVE SMOOTH",
"700 522 LINE",
"425 436 LINE SMOOTH",
"256 383 OFFCURVE",
"70 313 OFFCURVE",
"70 189 CURVE SMOOTH",
"70 -44 OFFCURVE",
"282 -28 OFFCURVE",
"389 -28 CURVE SMOOTH"
);
},
{
closed = 1;
nodes = (
"409 43 OFFCURVE",
"345 108 OFFCURVE",
"345 230 CURVE SMOOTH",
"345 349 OFFCURVE",
"381 344 OFFCURVE",
"495 383 CURVE SMOOTH",
"700 454 LINE",
"700 147 LINE",
"636 99 OFFCURVE",
"557 43 OFFCURVE",
"478 43 CURVE SMOOTH"
);
}
);
width = 1644;
}
);
leftKerningGroup = a;
leftMetricsKey = a;
rightKerningGroup = e;
rightMetricsKey = e;
unicode = 00E6;
},
{
glyphname = b;
lastChange = "2020-11-11 22:01:17 +0000";
layers = (
{
anchors = (
{
name = bottom;
position = "{434, 0}";
},
{
name = top;
position = "{198, 1500}";
}
);
layerId = "14A1E899-FED4-4F52-86F4-A1F822586E10";
paths = (
{
closed = 1;
nodes = (
"701 -20 OFFCURVE",
"889 134 OFFCURVE",
"889 418 CURVE SMOOTH",
"889 754 OFFCURVE",
"693 847 OFFCURVE",
"552 847 CURVE SMOOTH",
"455 847 OFFCURVE",
"332 753 OFFCURVE",
"259 695 CURVE",
"259 597 LINE",
"352 682 OFFCURVE",
"454 769 OFFCURVE",
"533 769 CURVE SMOOTH",
"610 769 OFFCURVE",
"771 726 OFFCURVE",
"771 410 CURVE SMOOTH",
"771 187 OFFCURVE",
"646 51 OFFCURVE",
"512 51 CURVE SMOOTH",
"395 51 OFFCURVE",
"302 121 OFFCURVE",
"259 324 CURVE",
"215 214 LINE",
"251 20 OFFCURVE",
"402 -20 OFFCURVE",
"506 -20 CURVE SMOOTH"
);
},
{
closed = 1;
nodes = (
"233 0 LINE",
"260 145 LINE",
"260 1490 LINE",
"215 1520 LINE",
"-5 1430 LINE",
"5 1376 LINE",
"126 1396 OFFCURVE",
"154 1399 OFFCURVE",
"154 1338 CURVE SMOOTH",
"154 0 LINE"
);
}
);
width = 964;
},
{
anchors = (
{
name = bottom;
position = "{528, 0}";
},
{
name = top;
position = "{303, 1500}";
}
);
layerId = "72F22432-F665-4153-96BB-74D91BCC5F28";
paths = (
{
closed = 1;
nodes = (
"771 -20 OFFCURVE",
"1031 134 OFFCURVE",
"1031 418 CURVE SMOOTH",
"1031 754 OFFCURVE",
"835 847 OFFCURVE",
"632 847 CURVE SMOOTH",
"540 847 OFFCURVE",
"430 785 OFFCURVE",
"361 733 CURVE",
"361 625 LINE",
"447 708 OFFCURVE",
"521 769 OFFCURVE",
"596 769 CURVE SMOOTH",
"705 769 OFFCURVE",
"778 633 OFFCURVE",
"778 352 CURVE SMOOTH",
"778 129 OFFCURVE",
"707 51 OFFCURVE",
"592 51 CURVE SMOOTH",
"481 51 OFFCURVE",
"402 151 OFFCURVE",
"361 334 CURVE",
"266 214 LINE",
"300 20 OFFCURVE",
"489 -20 OFFCURVE",
"587 -20 CURVE SMOOTH"
);
},
{
closed = 1;
nodes = (
"235 0 LINE",
"362 214 LINE",
"362 1490 LINE",
"310 1520 LINE",
"-15 1413 LINE",
"-5 1341 LINE",
"113 1373 OFFCURVE",
"137 1339 OFFCURVE",
"137 1283 CURVE SMOOTH",
"137 0 LINE"
);
}
);
width = 1101;
}
);
leftKerningGroup = b;
leftMetricsKey = "=i-50";
rightKerningGroup = o;
rightMetricsKey = o;
unicode = 0062;
},
{
glyphname = c;
lastChange = "2020-11-11 21:55:12 +0000";
layers = (
{
anchors = (
{
name = bottom;
position = "{453, 0}";
},
{
name = top;
position = "{470, 826}";
}
);
layerId = "14A1E899-FED4-4F52-86F4-A1F822586E10";
paths = (
{
closed = 1;
nodes = (
"619 -22 OFFCURVE",
"728 59 OFFCURVE",
"842 152 CURVE",
"802 206 LINE",
"708 128 OFFCURVE",
"620 57 OFFCURVE",
"484 57 CURVE SMOOTH",
"331 57 OFFCURVE",
"195 190 OFFCURVE",
"195 456 CURVE SMOOTH",
"195 708 OFFCURVE",
"349 784 OFFCURVE",
"478 784 CURVE SMOOTH",
"595 784 OFFCURVE",
"668 718 OFFCURVE",
"690 668 CURVE",
"658 496 LINE",
"811 526 LINE",
"792 696 LINE",
"743 774 OFFCURVE",
"634 850 OFFCURVE",
"482 850 CURVE SMOOTH",
"270 850 OFFCURVE",
"75 708 OFFCURVE",
"75 416 CURVE SMOOTH",
"75 150 OFFCURVE",
"240 -22 OFFCURVE",
"472 -22 CURVE SMOOTH"
);
}
);
width = 877;
},
{
anchors = (
{
name = bottom;
position = "{501, 0}";
},
{
name = top;
position = "{517, 826}";
}
);
layerId = "72F22432-F665-4153-96BB-74D91BCC5F28";
paths = (
{
closed = 1;
nodes = (
"721 -22 OFFCURVE",
"807 49 OFFCURVE",
"915 142 CURVE",
"877 196 LINE",
"758 99 OFFCURVE",
"686 73 OFFCURVE",
"613 73 CURVE SMOOTH",
"431 73 OFFCURVE",
"327 268 OFFCURVE",
"327 491 CURVE SMOOTH",
"327 711 OFFCURVE",
"427 784 OFFCURVE",
"524 784 CURVE SMOOTH",
"625 784 OFFCURVE",
"661 718 OFFCURVE",
"677 648 CURVE",
"643 476 LINE",
"868 506 LINE",
"850 676 LINE",
"794 774 OFFCURVE",
"691 850 OFFCURVE",
"538 850 CURVE SMOOTH",
"302 850 OFFCURVE",
"70 701 OFFCURVE",
"70 409 CURVE SMOOTH",
"70 143 OFFCURVE",
"254 -22 OFFCURVE",
"546 -22 CURVE SMOOTH"
);
}
);
width = 945;
}
);
leftKerningGroup = o;
leftMetricsKey = o;
rightKerningGroup = o;
rightMetricsKey = "=o-40";
unicode = 0063;
},
{
glyphname = d;
lastChange = "2020-11-11 22:35:11 +0000";
layers = (
{
anchors = (
{
name = bottom;
position = "{513, 0}";
},
{
name = center;
position = "{747, 1216}";
},
{
name = top;
position = "{513, 1500}";
},
{
name = topright;
position = "{944, 826}";
}
);
layerId = "14A1E899-FED4-4F52-86F4-A1F822586E10";
paths = (
{
closed = 1;
nodes = (
"526 -27 OFFCURVE",
"582 9 OFFCURVE",
"712 109 CURVE",
"712 4 LINE",
"746 -27 LINE",
"923 0 LINE",
"923 53 LINE",
"841 53 OFFCURVE",
"819 59 OFFCURVE",
"819 121 CURVE SMOOTH",
"819 1490 LINE",
"774 1520 LINE",
"530 1430 LINE",
"540 1374 LINE",
"679 1404 OFFCURVE",
"712 1404 OFFCURVE",
"712 1340 CURVE SMOOTH",
"712 659 LINE",
"684 737 OFFCURVE",
"583 848 OFFCURVE",
"447 848 CURVE SMOOTH",
"261 848 OFFCURVE",
"75 724 OFFCURVE",
"75 418 CURVE SMOOTH",
"75 97 OFFCURVE",
"247 -27 OFFCURVE",
"420 -27 CURVE SMOOTH"
);
},
{
closed = 1;
nodes = (
"295 36 OFFCURVE",
"196 203 OFFCURVE",
"196 447 CURVE SMOOTH",
"196 663 OFFCURVE",
"322 777 OFFCURVE",
"448 777 CURVE SMOOTH",
"580 777 OFFCURVE",
"692 599 OFFCURVE",
"712 484 CURVE",
"712 194 LINE",
"627 120 OFFCURVE",
"518 36 OFFCURVE",
"434 36 CURVE SMOOTH"
);
}
);
width = 968;
},
{
anchors = (
{
name = bottom;
position = "{512, 0}";
},
{
name = center;
position = "{843, 1188}";
},
{
name = top;
position = "{548, 1500}";
},
{
name = topright;
position = "{1038, 826}";
}
);
layerId = "72F22432-F665-4153-96BB-74D91BCC5F28";
paths = (
{
closed = 1;
nodes = (
"558 -27 OFFCURVE",
"637 23 OFFCURVE",
"737 95 CURVE",
"737 10 LINE",
"781 -23 LINE",
"1062 0 LINE",
"1062 71 LINE",
"973 71 OFFCURVE",
"963 83 OFFCURVE",
"963 129 CURVE SMOOTH",
"963 1490 LINE",
"911 1520 LINE",
"563 1413 LINE",
"573 1339 LINE",
"712 1373 OFFCURVE",
"737 1333 OFFCURVE",
"737 1285 CURVE SMOOTH",
"737 729 LINE",
"711 773 OFFCURVE",
"604 850 OFFCURVE",
"475 850 CURVE SMOOTH",
"265 850 OFFCURVE",
"70 724 OFFCURVE",
"70 418 CURVE SMOOTH",
"70 97 OFFCURVE",
"278 -27 OFFCURVE",
"441 -27 CURVE SMOOTH"
);
},
{
closed = 1;
nodes = (
"374 54 OFFCURVE",
"318 239 OFFCURVE",
"318 482 CURVE SMOOTH",
"318 698 OFFCURVE",
"402 779 OFFCURVE",
"486 779 CURVE SMOOTH",
"631 779 OFFCURVE",
"717 612 OFFCURVE",
"737 512 CURVE",
"737 190 LINE",
"629 102 OFFCURVE",
"567 54 OFFCURVE",
"516 54 CURVE SMOOTH"
);
}
);
width = 1107;
}
);
leftKerningGroup = o;
leftMetricsKey = o;
rightKerningGroup = l;
rightMetricsKey = i;
unicode = 0064;
},
{
glyphname = eth;
lastChange = "2020-11-11 22:38:24 +0000";
layers = (
{
components = (
{
name = o;
}
);
layerId = "14A1E899-FED4-4F52-86F4-A1F822586E10";
paths = (
{
closed = 1;
nodes = (
"515 1321 OFFCURVE",
"783 1088 OFFCURVE",
"783 512 CURVE",
"899 412 LINE",
"899 1126 OFFCURVE",
"550 1386 OFFCURVE",
"264 1442 CURVE",
"230 1385 LINE"
);
},
{
closed = 1;
nodes = (
"400 1089 LINE",
"711 1401 LINE",
"662 1450 LINE",
"351 1138 LINE"
);
}
);
width = 974;
},
{
components = (
{
name = o;
}
);
layerId = "72F22432-F665-4153-96BB-74D91BCC5F28";
paths = (
{
closed = 1;
nodes = (
"561 1321 OFFCURVE",
"746 1004 OFFCURVE",
"746 562 CURVE",
"989 412 LINE",
"989 1025 OFFCURVE",
"615 1386 OFFCURVE",
"251 1442 CURVE",
"219 1385 LINE"
);
},
{
closed = 1;
nodes = (
"381 1089 LINE",
"676 1401 LINE",
"629 1450 LINE",
"334 1138 LINE"
);
}
);
width = 1059;
}
);
leftKerningGroup = o;
leftMetricsKey = o;
rightKerningGroup = o;
rightMetricsKey = o;
unicode = 00F0;
},
{
glyphname = dcroat;
lastChange = "2020-11-11 21:55:12 +0000";
layers = (
{
components = (
{
name = d;
}
);
layerId = "14A1E899-FED4-4F52-86F4-A1F822586E10";
paths = (
{
closed = 1;
nodes = (
"968 1147 LINE",
"968 1209 LINE",
"396 1209 LINE",
"396 1147 LINE"
);
}
);
width = 983;
},
{
components = (
{
name = d;
}
);
layerId = "72F22432-F665-4153-96BB-74D91BCC5F28";
paths = (
{
closed = 1;
nodes = (
"1081 1130 LINE",
"1081 1209 LINE",
"448 1209 LINE",
"448 1130 LINE"
);
}
);
width = 1096;
}
);
leftKerningGroup = d;
leftMetricsKey = d;
rightKerningGroup = d;
rightMetricsKey = "=d-30";
unicode = 0111;
},
{
glyphname = e;
lastChange = "2020-11-11 21:55:12 +0000";
layers = (
{
anchors = (
{
name = bottom;
position = "{469, 0}";
},
{
name = ogonek;
position = "{823, 152}";
},
{
name = top;
position = "{469, 826}";
}
);
layerId = "14A1E899-FED4-4F52-86F4-A1F822586E10";
paths = (
{
closed = 1;
nodes = (
"606 -22 OFFCURVE",
"711 60 OFFCURVE",
"823 152 CURVE",
"780 208 LINE",
"684 126 OFFCURVE",
"601 56 OFFCURVE",
"485 56 CURVE SMOOTH",
"315 56 OFFCURVE",
"199 176 OFFCURVE",
"199 465 CURVE",
"800 465 LINE",
"800 709 OFFCURVE",
"667 846 OFFCURVE",
"463 846 CURVE SMOOTH",
"281 846 OFFCURVE",
"75 705 OFFCURVE",
"75 423 CURVE SMOOTH",
"75 130 OFFCURVE",
"246 -22 OFFCURVE",
"458 -22 CURVE SMOOTH"
);
},
{
closed = 1;
nodes = (
"210 660 OFFCURVE",
"301 771 OFFCURVE",
"448 771 CURVE SMOOTH",
"601 771 OFFCURVE",
"658 651 OFFCURVE",
"666 539 CURVE",
"204 539 LINE"
);
}
);
width = 898;
},
{
anchors = (
{
name = bottom;
position = "{497, 0}";
},
{
name = ogonek;
position = "{905, 142}";
},
{
name = top;
position = "{497, 826}";
}
);
layerId = "72F22432-F665-4153-96BB-74D91BCC5F28";
paths = (
{
closed = 1;
nodes = (
"700 -22 OFFCURVE",
"791 44 OFFCURVE",
"905 142 CURVE",
"864 198 LINE",
"749 98 OFFCURVE",
"694 74 OFFCURVE",
"610 74 CURVE SMOOTH",
"446 74 OFFCURVE",
"330 244 OFFCURVE",
"330 468 CURVE",
"900 468 LINE",
"900 711 OFFCURVE",
"744 848 OFFCURVE",
"509 848 CURVE SMOOTH",
"280 848 OFFCURVE",
"70 705 OFFCURVE",
"70 416 CURVE SMOOTH",
"70 150 OFFCURVE",
"235 -22 OFFCURVE",
"532 -22 CURVE SMOOTH"
);
},
{
closed = 1;
nodes = (
"333 680 OFFCURVE",
"399 773 OFFCURVE",
"494 773 CURVE SMOOTH",
"584 773 OFFCURVE",
"632 686 OFFCURVE",
"634 542 CURVE",
"332 542 LINE"
);
}
);
width = 975;
}
);
leftKerningGroup = o;
leftMetricsKey = o;
rightKerningGroup = o;
rightMetricsKey = o;
unicode = 0065;
},
{
glyphname = f;
lastChange = "2020-11-11 22:31:43 +0000";
layers = (
{
anchors = (
{
name = bottom;
position = "{345, 0}";
},
{
name = top;
position = "{345, 1500}";
}
);
layerId = "14A1E899-FED4-4F52-86F4-A1F822586E10";
paths = (
{
closed = 1;
nodes = (
"476 0 LINE",
"476 64 LINE",
"366 64 OFFCURVE",
"338 65 OFFCURVE",
"338 122 CURVE SMOOTH",
"338 756 LINE",
"585 756 LINE",
"600 826 LINE",
"338 826 LINE",
"338 1011 LINE SMOOTH",
"338 1322 OFFCURVE",
"392 1447 OFFCURVE",
"526 1447 CURVE SMOOTH",
"541 1447 OFFCURVE",
"550 1438 OFFCURVE",
"556 1432 CURVE",
"538 1289 LINE",
"691 1309 LINE",
"664 1466 LINE",
"644 1484 OFFCURVE",
"580 1517 OFFCURVE",
"547 1517 CURVE SMOOTH",
"340 1517 OFFCURVE",
"228 1355 OFFCURVE",
"228 1031 CURVE SMOOTH",
"228 826 LINE",
"60 826 LINE",
"60 756 LINE",
"228 756 LINE",
"228 122 LINE SMOOTH",
"228 65 OFFCURVE",
"200 64 OFFCURVE",
"90 64 CURVE",
"90 0 LINE"
);
}
);
width = 706;
},
{
anchors = (
{
name = bottom;
position = "{389, 0}";
},
{
name = top;
position = "{389, 1500}";
}
);
layerId = "72F22432-F665-4153-96BB-74D91BCC5F28";
paths = (
{
closed = 1;
nodes = (
"549 0 LINE",
"549 64 LINE",
"445 64 OFFCURVE",
"436 91 OFFCURVE",
"436 157 CURVE SMOOTH",
"436 740 LINE",
"647 740 LINE",
"667 826 LINE",
"436 826 LINE",
"436 1076 LINE SMOOTH",
"436 1337 OFFCURVE",
"503 1430 OFFCURVE",
"586 1430 CURVE SMOOTH",
"592 1430 OFFCURVE",
"598 1427 OFFCURVE",
"602 1422 CURVE",
"580 1209 LINE",
"809 1269 LINE",
"783 1459 LINE",
"764 1475 OFFCURVE",
"694 1517 OFFCURVE",
"627 1517 CURVE SMOOTH",
"463 1517 OFFCURVE",
"219 1400 OFFCURVE",
"219 1041 CURVE SMOOTH",
"219 826 LINE",
"54 826 LINE",
"54 740 LINE",
"219 740 LINE",
"219 157 LINE SMOOTH",
"219 91 OFFCURVE",
"210 64 OFFCURVE",
"106 64 CURVE",
"106 0 LINE"
);
}
);
width = 794;
}
);
leftKerningGroup = f;
rightKerningGroup = f;
unicode = 0066;
},
{
glyphname = g;
lastChange = "2020-11-11 21:55:12 +0000";
layers = (
{
anchors = (
{
name = bottom;
position = "{478, -430}";
},
{
name = top;
position = "{498, 826}";
}
);
layerId = "14A1E899-FED4-4F52-86F4-A1F822586E10";
paths = (
{
closed = 1;
nodes = (
"682 -450 OFFCURVE",
"884 -356 OFFCURVE",
"884 -176 CURVE SMOOTH",
"884 -4 OFFCURVE",
"723 22 OFFCURVE",
"500 46 CURVE SMOOTH",
"317 66 OFFCURVE",
"215 101 OFFCURVE",
"215 151 CURVE SMOOTH",
"215 185 OFFCURVE",
"236 218 OFFCURVE",
"271 241 CURVE",
"291 231 OFFCURVE",
"380 202 OFFCURVE",
"469 202 CURVE SMOOTH",
"642 202 OFFCURVE",
"848 293 OFFCURVE",
"848 524 CURVE SMOOTH",
"848 751 OFFCURVE",
"636 846 OFFCURVE",
"470 846 CURVE SMOOTH",
"313 846 OFFCURVE",
"92 752 OFFCURVE",
"92 524 CURVE SMOOTH",
"92 376 OFFCURVE",
"177 302 OFFCURVE",
"219 271 CURVE",
"176 244 OFFCURVE",
"130 192 OFFCURVE",
"130 133 CURVE SMOOTH",
"130 64 OFFCURVE",
"191 19 OFFCURVE",
"242 5 CURVE",
"194 -8 OFFCURVE",
"66 -60 OFFCURVE",
"66 -197 CURVE SMOOTH",
"66 -369 OFFCURVE",
"273 -450 OFFCURVE",
"468 -450 CURVE SMOOTH"
);
},
{
closed = 1;
nodes = (
"302 -384 OFFCURVE",
"176 -325 OFFCURVE",
"176 -181 CURVE SMOOTH",
"176 -82 OFFCURVE",
"252 -36 OFFCURVE",
"301 -16 CURVE",
"330 -24 OFFCURVE",
"362 -29 OFFCURVE",
"498 -45 CURVE SMOOTH",
"669 -65 OFFCURVE",
"783 -86 OFFCURVE",
"783 -205 CURVE SMOOTH",
"783 -302 OFFCURVE",
"643 -384 OFFCURVE",
"483 -384 CURVE SMOOTH"
);
},
{
closed = 1;
nodes = (
"351 268 OFFCURVE",
"212 325 OFFCURVE",
"212 533 CURVE SMOOTH",
"212 693 OFFCURVE",
"342 778 OFFCURVE",
"470 778 CURVE SMOOTH",
"614 778 OFFCURVE",
"736 700 OFFCURVE",
"736 501 CURVE SMOOTH",
"736 314 OFFCURVE",
"585 268 OFFCURVE",
"471 268 CURVE SMOOTH"
);
},
{
closed = 1;
nodes = (
"945 847 LINE",
"878 913 LINE",
"699 721 LINE",
"742 684 LINE"
);
}
);
width = 955;
},
{
anchors = (
{
name = bottom;
position = "{543, -430}";
},
{
name = top;
position = "{543, 826}";
}
);
layerId = "72F22432-F665-4153-96BB-74D91BCC5F28";
paths = (
{
closed = 1;
nodes = (
"723 -455 OFFCURVE",
"1007 -349 OFFCURVE",
"1007 -124 CURVE SMOOTH",
"1007 65 OFFCURVE",
"785 98 OFFCURVE",
"556 129 CURVE SMOOTH",
"467 141 OFFCURVE",
"300 167 OFFCURVE",
"300 214 CURVE SMOOTH",
"300 227 OFFCURVE",
"326 247 OFFCURVE",
"359 260 CURVE",
"377 251 OFFCURVE",
"428 237 OFFCURVE",
"515 237 CURVE SMOOTH",
"723 237 OFFCURVE",
"924 351 OFFCURVE",
"924 547 CURVE SMOOTH",
"924 782 OFFCURVE",
"683 847 OFFCURVE",
"511 847 CURVE SMOOTH",
"326 847 OFFCURVE",
"108 777 OFFCURVE",
"108 547 CURVE SMOOTH",
"108 381 OFFCURVE",
"212 318 OFFCURVE",
"266 287 CURVE",
"150 244 OFFCURVE",
"131 183 OFFCURVE",
"131 140 CURVE SMOOTH",
"131 56 OFFCURVE",
"187 11 OFFCURVE",
"235 -5 CURVE",
"172 -24 OFFCURVE",
"61 -78 OFFCURVE",
"61 -197 CURVE SMOOTH",
"61 -396 OFFCURVE",
"291 -455 OFFCURVE",
"531 -455 CURVE SMOOTH"
);
},
{
closed = 1;
nodes = (
"337 -379 OFFCURVE",
"240 -308 OFFCURVE",
"240 -179 CURVE SMOOTH",
"240 -96 OFFCURVE",
"275 -59 OFFCURVE",
"312 -37 CURVE",
"338 -47 OFFCURVE",
"386 -59 OFFCURVE",
"575 -89 CURVE SMOOTH",
"766 -119 OFFCURVE",
"823 -140 OFFCURVE",
"823 -228 CURVE SMOOTH",
"823 -319 OFFCURVE",
"693 -379 OFFCURVE",
"550 -379 CURVE SMOOTH"
);
},
{
closed = 1;
nodes = (
"402 312 OFFCURVE",
"348 391 OFFCURVE",
"348 548 CURVE SMOOTH",
"348 690 OFFCURVE",
"414 779 OFFCURVE",
"518 779 CURVE SMOOTH",
"627 779 OFFCURVE",
"685 693 OFFCURVE",
"685 539 CURVE SMOOTH",
"685 392 OFFCURVE",
"624 312 OFFCURVE",
"517 312 CURVE SMOOTH"
);
},
{
closed = 1;
nodes = (
"1056 874 LINE",
"956 978 LINE",
"777 771 LINE",
"838 703 LINE"
);
}
);
width = 1061;
}
);
leftKerningGroup = o;
leftMetricsKey = "=o-9";
rightMetricsKey = "=o-65";
unicode = 0067;
},
{
glyphname = h;
lastChange = "2020-11-11 21:58:14 +0000";
layers = (
{
anchors = (
{
name = bottom;
position = "{498, 0}";
},
{
name = center;
position = "{498, 750}";
},
{
name = top;
position = "{255, 1400}";
}
);
layerId = "14A1E899-FED4-4F52-86F4-A1F822586E10";
paths = (
{
closed = 1;
nodes = (
"438 0 LINE",
"438 64 LINE",
"328 64 OFFCURVE",
"310 69 OFFCURVE",
"310 122 CURVE SMOOTH",
"310 603 LINE",
"449 709 OFFCURVE",
"535 767 OFFCURVE",
"604 767 CURVE SMOOTH",
"673 767 OFFCURVE",
"755 729 OFFCURVE",
"755 592 CURVE SMOOTH",
"755 122 LINE SMOOTH",
"755 69 OFFCURVE",
"737 64 OFFCURVE",
"627 64 CURVE",
"627 0 LINE",
"991 0 LINE",
"991 64 LINE",
"881 64 OFFCURVE",
"863 69 OFFCURVE",
"863 122 CURVE SMOOTH",
"863 564 LINE SMOOTH",
"863 779 OFFCURVE",
"777 847 OFFCURVE",
"627 847 CURVE SMOOTH",
"523 847 OFFCURVE",
"416 771 OFFCURVE",
"310 694 CURVE",
"310 1490 LINE",
"265 1520 LINE",
"45 1430 LINE",
"55 1376 LINE",
"184 1396 OFFCURVE",
"204 1395 OFFCURVE",
"204 1334 CURVE SMOOTH",
"204 126 LINE SMOOTH",
"204 69 OFFCURVE",
"170 64 OFFCURVE",
"73 64 CURVE",
"73 0 LINE"
);
}
);
width = 1036;
},
{
anchors = (
{
name = bottom;
position = "{591, 0}";
},
{
name = center;
position = "{591, 750}";
},
{
name = top;
position = "{296, 1400}";
}
);
layerId = "72F22432-F665-4153-96BB-74D91BCC5F28";
paths = (
{
closed = 1;
nodes = (
"534 0 LINE",
"534 64 LINE",
"429 64 OFFCURVE",
"412 88 OFFCURVE",
"412 157 CURVE SMOOTH",
"412 621 LINE",
"523 721 OFFCURVE",
"580 766 OFFCURVE",
"646 766 CURVE SMOOTH",
"720 766 OFFCURVE",
"746 715 OFFCURVE",
"746 592 CURVE SMOOTH",
"746 157 LINE SMOOTH",
"746 88 OFFCURVE",
"729 64 OFFCURVE",
"624 64 CURVE",
"624 0 LINE",
"1095 0 LINE",
"1095 64 LINE",
"991 64 OFFCURVE",
"973 88 OFFCURVE",
"973 157 CURVE SMOOTH",
"973 485 LINE SMOOTH",
"973 699 OFFCURVE",
"909 846 OFFCURVE",
"696 846 CURVE SMOOTH",
"589 846 OFFCURVE",
"508 799 OFFCURVE",
"412 722 CURVE",
"412 1490 LINE",
"360 1520 LINE",
"35 1413 LINE",
"45 1341 LINE",
"172 1363 OFFCURVE",
"187 1332 OFFCURVE",
"187 1282 CURVE SMOOTH",
"187 161 LINE SMOOTH",
"187 88 OFFCURVE",
"154 64 OFFCURVE",
"62 64 CURVE",
"62 0 LINE"
);
}
);
width = 1140;
}
);
leftKerningGroup = h;
leftMetricsKey = i;
rightKerningGroup = n;
rightMetricsKey = i;
unicode = 0068;
},
{
glyphname = hbar;
lastChange = "2020-10-13 20:10:10 +0000";
layers = (
{
components = (
{
name = h;
}
);
layerId = "14A1E899-FED4-4F52-86F4-A1F822586E10";
paths = (
{
closed = 1;
nodes = (
"619 1140 LINE",
"619 1202 LINE",
"47 1202 LINE",
"47 1140 LINE"
);
}
);
width = 1128;
},
{
components = (
{
name = h;
}
);
layerId = "72F22432-F665-4153-96BB-74D91BCC5F28";
paths = (
{
closed = 1;
nodes = (
"678 1123 LINE",
"678 1202 LINE",
"45 1202 LINE",
"45 1123 LINE"
);
}
);
width = 1128;
}
);
unicode = 0127;
},
{
glyphname = i;
lastChange = "2020-11-11 21:55:38 +0000";
layers = (
{
anchors = (
{
name = bottom;
position = "{252, 0}";
}
);
layerId = "14A1E899-FED4-4F52-86F4-A1F822586E10";
paths = (
{
closed = 1;
nodes = (
"460 0 LINE",
"460 64 LINE",
"354 64 OFFCURVE",
"310 70 OFFCURVE",
"310 122 CURVE SMOOTH",
"310 825 LINE",
"265 855 LINE",
"45 799 LINE",
"55 745 LINE",
"170 774 OFFCURVE",
"204 765 OFFCURVE",
"204 670 CURVE SMOOTH",
"204 119 LINE SMOOTH",
"204 70 OFFCURVE",
"161 64 OFFCURVE",
"55 64 CURVE",
"55 0 LINE"
);
},
{
closed = 1;
nodes = (
"293 1046 OFFCURVE",
"334 1087 OFFCURVE",
"334 1137 CURVE SMOOTH",
"334 1186 OFFCURVE",
"293 1227 OFFCURVE",
"244 1227 CURVE SMOOTH",
"194 1227 OFFCURVE",
"153 1186 OFFCURVE",
"153 1137 CURVE SMOOTH",
"153 1087 OFFCURVE",
"194 1046 OFFCURVE",
"244 1046 CURVE SMOOTH"
);
}
);
width = 505;
},
{
anchors = (
{
name = bottom;
position = "{312, 0}";
}
);
layerId = "72F22432-F665-4153-96BB-74D91BCC5F28";
paths = (
{
closed = 1;
nodes = (
"563 0 LINE",
"563 64 LINE",
"463 64 OFFCURVE",
"421 88 OFFCURVE",
"421 157 CURVE SMOOTH",
"421 825 LINE",
"368 855 LINE",
"35 770 LINE",
"45 698 LINE",
"189 733 OFFCURVE",
"195 712 OFFCURVE",
"195 613 CURVE SMOOTH",
"195 154 LINE SMOOTH",
"195 88 OFFCURVE",
"154 64 OFFCURVE",
"53 64 CURVE",
"53 0 LINE"
);
},
{
closed = 1;
nodes = (
"380 1048 OFFCURVE",
"442 1112 OFFCURVE",
"442 1190 CURVE SMOOTH",
"442 1266 OFFCURVE",
"380 1330 OFFCURVE",
"304 1330 CURVE SMOOTH",
"228 1330 OFFCURVE",
"166 1266 OFFCURVE",
"166 1190 CURVE SMOOTH",
"166 1112 OFFCURVE",
"228 1048 OFFCURVE",
"304 1048 CURVE SMOOTH"
);
}
);
width = 608;
}
);
leftKerningGroup = i;
rightKerningGroup = i;
unicode = 0069;
},
{
glyphname = idotless;
lastChange = "2020-10-13 20:10:10 +0000";
layers = (
{
anchors = (
{
name = bottom;
position = "{253, 0}";
},
{
name = ogonek;
position = "{453, 0}";
},
{
name = top;
position = "{249, 826}";
}
);
layerId = "14A1E899-FED4-4F52-86F4-A1F822586E10";
paths = (
{
closed = 1;
nodes = (
"453 0 LINE",
"453 64 LINE",
"347 64 OFFCURVE",
"303 70 OFFCURVE",
"303 122 CURVE SMOOTH",
"303 841 LINE",
"258 841 LINE",
"58 785 LINE",
"58 731 LINE",
"173 760 OFFCURVE",
"197 751 OFFCURVE",
"197 670 CURVE SMOOTH",
"197 119 LINE SMOOTH",
"197 70 OFFCURVE",
"154 64 OFFCURVE",
"48 64 CURVE",
"48 0 LINE"
);
}
);
width = 501;
},
{
anchors = (
{
name = bottom;
position = "{297, 0}";
},
{
name = ogonek;
position = "{555, 0}";
},
{
name = top;
position = "{294, 826}";
}
);
layerId = "72F22432-F665-4153-96BB-74D91BCC5F28";
paths = (
{
closed = 1;
nodes = (
"555 0 LINE",
"555 64 LINE",
"455 64 OFFCURVE",
"413 88 OFFCURVE",
"413 157 CURVE SMOOTH",
"413 841 LINE",
"370 841 LINE",
"37 726 LINE",
"37 654 LINE",
"181 689 OFFCURVE",
"187 668 OFFCURVE",
"187 583 CURVE SMOOTH",
"187 154 LINE SMOOTH",
"187 88 OFFCURVE",
"146 64 OFFCURVE",
"45 64 CURVE",
"45 0 LINE"
);
}
);
width = 601;
}
);
unicode = 0131;
},
{
glyphname = j;
lastChange = "2020-11-11 21:55:42 +0000";
layers = (
{
layerId = "14A1E899-FED4-4F52-86F4-A1F822586E10";
paths = (
{
closed = 1;
nodes = (
"274 -441 OFFCURVE",
"355 -290 OFFCURVE",
"355 -42 CURVE SMOOTH",
"355 826 LINE",
"310 856 LINE",
"99 796 LINE",
"109 745 LINE",
"225 774 OFFCURVE",
"249 759 OFFCURVE",
"249 688 CURVE SMOOTH",
"249 -48 LINE SMOOTH",
"249 -294 OFFCURVE",
"180 -374 OFFCURVE",
"83 -374 CURVE SMOOTH",
"-5 -374 OFFCURVE",
"-17 -340 OFFCURVE",
"-24 -307 CURVE",
"-90 -385 LINE",
"-58 -415 OFFCURVE",
"-14 -441 OFFCURVE",
"68 -441 CURVE SMOOTH"
);
},
{
closed = 1;
nodes = (
"2 -361 LINE",
"30 -231 LINE",
"-90 -250 LINE",
"-90 -385 LINE"
);
},
{
closed = 1;
nodes = (
"331 1046 OFFCURVE",
"372 1087 OFFCURVE",
"372 1137 CURVE SMOOTH",
"372 1186 OFFCURVE",
"331 1227 OFFCURVE",
"282 1227 CURVE SMOOTH",
"232 1227 OFFCURVE",
"191 1186 OFFCURVE",
"191 1137 CURVE SMOOTH",
"191 1087 OFFCURVE",
"232 1046 OFFCURVE",
"282 1046 CURVE SMOOTH"
);
}
);
width = 497;
},
{
layerId = "72F22432-F665-4153-96BB-74D91BCC5F28";
paths = (
{
closed = 1;
nodes = (
"281 -441 OFFCURVE",
"412 -290 OFFCURVE",
"412 -42 CURVE SMOOTH",
"412 824 LINE",
"359 854 LINE",
"25 772 LINE",
"35 698 LINE",
"172 730 OFFCURVE",
"186 726 OFFCURVE",
"186 658 CURVE SMOOTH",
"186 -48 LINE SMOOTH",
"186 -295 OFFCURVE",
"182 -357 OFFCURVE",
"100 -357 CURVE SMOOTH",
"35 -357 OFFCURVE",
"30 -286 OFFCURVE",
"34 -272 CURVE",
"-110 -383 LINE",
"-61 -423 OFFCURVE",
"0 -441 OFFCURVE",
"86 -441 CURVE SMOOTH"
);
},
{
closed = 1;
nodes = (
"54 -351 LINE",
"91 -194 LINE",
"-110 -213 LINE",
"-110 -383 LINE"
);
},
{
closed = 1;
nodes = (
"368 1048 OFFCURVE",
"430 1112 OFFCURVE",
"430 1190 CURVE SMOOTH",
"430 1266 OFFCURVE",
"368 1330 OFFCURVE",
"293 1330 CURVE SMOOTH",
"217 1330 OFFCURVE",
"154 1266 OFFCURVE",
"154 1190 CURVE SMOOTH",
"154 1112 OFFCURVE",
"217 1048 OFFCURVE",
"293 1048 CURVE SMOOTH"
);
}
);
width = 550;
}
);
leftKerningGroup = j;
rightMetricsKey = "=o+50";
unicode = 006A;
},
{
glyphname = jdotless;
lastChange = "2020-11-11 21:55:12 +0000";
layers = (
{
anchors = (
{
name = bottom;
position = "{261, -500}";
},
{
name = top;
position = "{261, 826}";
}
);
layerId = "14A1E899-FED4-4F52-86F4-A1F822586E10";
paths = (
{
closed = 1;
nodes = (
"269 -441 OFFCURVE",
"350 -290 OFFCURVE",
"350 -42 CURVE SMOOTH",
"350 841 LINE",
"305 841 LINE",
"104 781 LINE",
"104 730 LINE",
"220 759 OFFCURVE",
"244 744 OFFCURVE",
"244 673 CURVE SMOOTH",
"244 -48 LINE SMOOTH",
"244 -294 OFFCURVE",
"175 -374 OFFCURVE",
"78 -374 CURVE SMOOTH",
"-10 -374 OFFCURVE",
"-22 -340 OFFCURVE",
"-29 -307 CURVE",
"-95 -385 LINE",
"-63 -415 OFFCURVE",
"-19 -441 OFFCURVE",
"63 -441 CURVE SMOOTH"
);
},
{
closed = 1;
nodes = (
"-18 -351 LINE",
"20 -211 LINE",
"-95 -230 LINE",
"-95 -385 LINE"
);
}
);
width = 475;
},
{
anchors = (
{
name = bottom;
position = "{303, -395}";
},
{
name = top;
position = "{303, 826}";
}
);
layerId = "72F22432-F665-4153-96BB-74D91BCC5F28";
paths = (
{
closed = 1;
nodes = (
"255 -441 OFFCURVE",
"386 -290 OFFCURVE",
"386 -42 CURVE SMOOTH",
"386 841 LINE",
"343 841 LINE",
"9 729 LINE",
"9 655 LINE",
"146 687 OFFCURVE",
"160 683 OFFCURVE",
"160 615 CURVE SMOOTH",
"160 -48 LINE SMOOTH",
"160 -295 OFFCURVE",
"166 -357 OFFCURVE",
"74 -357 CURVE SMOOTH",
"9 -357 OFFCURVE",
"4 -286 OFFCURVE",
"8 -272 CURVE",
"-126 -403 LINE",
"-77 -433 OFFCURVE",
"-16 -441 OFFCURVE",
"60 -441 CURVE SMOOTH"
);
},
{
closed = 1;
nodes = (
"28 -351 LINE",
"55 -194 LINE",
"-126 -213 LINE",
"-126 -403 LINE"
);
}
);
width = 506;
}
);
rightMetricsKey = "=o+50";
unicode = 0237;
},
{
glyphname = k;
lastChange = "2020-11-11 21:56:11 +0000";
layers = (
{
anchors = (
{
name = bottom;
position = "{501, 0}";
},
{
name = top;
position = "{501, 1500}";
}
);
layerId = "14A1E899-FED4-4F52-86F4-A1F822586E10";
paths = (
{
closed = 1;
nodes = (
"438 0 LINE",
"438 64 LINE",
"328 64 OFFCURVE",
"310 70 OFFCURVE",
"310 132 CURVE SMOOTH",
"310 359 LINE",
"497 492 LINE",
"774 124 LINE SMOOTH",
"787 107 OFFCURVE",
"795 95 OFFCURVE",
"795 81 CURVE SMOOTH",
"795 66 OFFCURVE",
"774 64 OFFCURVE",
"676 64 CURVE",
"676 0 LINE",
"1030 0 LINE",
"1030 64 LINE",
"945 64 OFFCURVE",
"923 82 OFFCURVE",
"883 136 CURVE SMOOTH",
"575 552 LINE",
"794 714 LINE SMOOTH",
"844 751 OFFCURVE",
"863 762 OFFCURVE",
"962 762 CURVE",
"962 826 LINE",
"594 826 LINE",
"594 762 LINE",
"691 762 OFFCURVE",
"720 761 OFFCURVE",
"720 749 CURVE SMOOTH",
"720 742 OFFCURVE",
"713 735 OFFCURVE",
"695 722 CURVE SMOOTH",
"310 447 LINE",
"310 1490 LINE",
"265 1520 LINE",
"45 1430 LINE",
"55 1376 LINE",
"184 1396 OFFCURVE",
"204 1396 OFFCURVE",
"204 1330 CURVE SMOOTH",
"204 126 LINE SMOOTH",
"204 73 OFFCURVE",
"154 64 OFFCURVE",
"73 64 CURVE",
"73 0 LINE"
);
}
);
width = 1050;
},
{
anchors = (
{
name = bottom;
position = "{594, 0}";
},
{
name = top;
position = "{594, 1500}";
}
);
layerId = "72F22432-F665-4153-96BB-74D91BCC5F28";
paths = (
{
closed = 1;
nodes = (
"534 0 LINE",
"534 64 LINE",
"424 64 OFFCURVE",
"412 106 OFFCURVE",
"412 162 CURVE SMOOTH",
"412 345 LINE",
"535 450 LINE",
"684 176 LINE SMOOTH",
"710 129 OFFCURVE",
"715 118 OFFCURVE",
"715 96 CURVE SMOOTH",
"715 67 OFFCURVE",
"672 64 OFFCURVE",
"596 64 CURVE",
"596 0 LINE",
"1129 0 LINE",
"1129 64 LINE",
"1096 64 OFFCURVE",
"1024 72 OFFCURVE",
"989 136 CURVE SMOOTH",
"733 605 LINE",
"858 714 LINE SMOOTH",
"912 761 OFFCURVE",
"961 762 OFFCURVE",
"1024 762 CURVE",
"1024 826 LINE",
"646 826 LINE",
"646 762 LINE",
"728 762 OFFCURVE",
"745 758 OFFCURVE",
"745 743 CURVE SMOOTH",
"745 735 OFFCURVE",
"743 730 OFFCURVE",
"733 722 CURVE SMOOTH",
"412 465 LINE",
"412 1490 LINE",
"360 1520 LINE",
"35 1413 LINE",
"45 1341 LINE",
"163 1383 OFFCURVE",
"187 1350 OFFCURVE",
"187 1295 CURVE SMOOTH",
"187 161 LINE SMOOTH",
"187 68 OFFCURVE",
"139 64 OFFCURVE",
"62 64 CURVE",
"62 0 LINE"
);
}
);
width = 1149;
}
);
leftKerningGroup = h;
leftMetricsKey = i;
rightKerningGroup = k;
unicode = 006B;
},
{
glyphname = l;
lastChange = "2020-11-11 22:35:52 +0000";
layers = (
{
anchors = (
{
name = bottom;
position = "{220, 0}";
},
{
name = center;
position = "{260, 750}";
},
{
name = top;
position = "{252, 1475}";
},
{
name = topright;
position = "{358, 826}";
}
);
layerId = "14A1E899-FED4-4F52-86F4-A1F822586E10";
paths = (
{
closed = 1;
nodes = (
"456 0 LINE",
"456 64 LINE",
"350 64 OFFCURVE",
"310 65 OFFCURVE",
"310 122 CURVE SMOOTH",
"310 1490 LINE",
"265 1520 LINE",
"45 1430 LINE",
"55 1376 LINE",
"184 1396 OFFCURVE",
"204 1390 OFFCURVE",
"204 1334 CURVE SMOOTH",
"204 122 LINE SMOOTH",
"204 65 OFFCURVE",
"161 64 OFFCURVE",
"55 64 CURVE",
"55 0 LINE"
);
}
);
width = 501;
},
{
anchors = (
{
name = bottom;
position = "{291, 0}";
},
{
name = center;
position = "{303, 750}";
},
{
name = top;
position = "{293, 1477}";
},
{
name = topright;
position = "{456, 826}";
}
);
layerId = "72F22432-F665-4153-96BB-74D91BCC5F28";
paths = (
{
closed = 1;
nodes = (
"551 0 LINE",
"551 64 LINE",
"451 64 OFFCURVE",
"412 109 OFFCURVE",
"412 175 CURVE SMOOTH",
"412 1490 LINE",
"370 1520 LINE",
"35 1413 LINE",
"45 1341 LINE",
"172 1383 OFFCURVE",
"187 1341 OFFCURVE",
"187 1282 CURVE SMOOTH",
"187 175 LINE SMOOTH",
"187 109 OFFCURVE",
"145 64 OFFCURVE",
"45 64 CURVE",
"45 0 LINE"
);
}
);
width = 596;
}
);
leftKerningGroup = h;
leftMetricsKey = i;
rightKerningGroup = l;
rightMetricsKey = i;
unicode = 006C;
},
{
glyphname = lslash;
lastChange = "2020-10-13 20:10:10 +0000";
layers = (
{
components = (
{
name = l;
transform = "{1, 0, 0, 1, 95, 0}";
}
);
layerId = "14A1E899-FED4-4F52-86F4-A1F822586E10";
paths = (
{
closed = 1;
nodes = (
"75 381 LINE",
"671 942 LINE",
"619 997 LINE",
"22 437 LINE"
);
}
);
width = 735;
},
{
components = (
{
name = l;
transform = "{1, 0, 0, 1, 91, 0}";
}
);
layerId = "72F22432-F665-4153-96BB-74D91BCC5F28";
paths = (
{
closed = 1;
nodes = (
"54 323 LINE",
"752 1007 LINE",
"681 1083 LINE",
"-18 400 LINE"
);
}
);
width = 735;
}
);
unicode = 0142;
},
{
glyphname = m;
lastChange = "2020-11-11 21:58:42 +0000";
layers = (
{
anchors = (
{
name = bottom;
position = "{810, 0}";
},
{
name = top;
position = "{829, 826}";
}
);
layerId = "14A1E899-FED4-4F52-86F4-A1F822586E10";
paths = (
{
closed = 1;
nodes = (
"442 0 LINE",
"442 64 LINE",
"332 64 OFFCURVE",
"314 68 OFFCURVE",
"314 122 CURVE SMOOTH",
"314 825 LINE",
"269 855 LINE",
"45 785 LINE",
"55 731 LINE",
"172 751 OFFCURVE",
"204 753 OFFCURVE",
"204 679 CURVE SMOOTH",
"204 116 LINE SMOOTH",
"204 68 OFFCURVE",
"170 64 OFFCURVE",
"73 64 CURVE",
"73 0 LINE"
);
},
{
closed = 1;
nodes = (
"979 0 LINE",
"979 64 LINE",
"869 64 OFFCURVE",
"851 68 OFFCURVE",
"851 122 CURVE SMOOTH",
"851 599 LINE SMOOTH",
"851 787 OFFCURVE",
"749 841 OFFCURVE",
"628 841 CURVE SMOOTH",
"548 841 OFFCURVE",
"435 771 OFFCURVE",
"308 692 CURVE",
"308 604 LINE",
"457 707 OFFCURVE",
"555 759 OFFCURVE",
"610 759 CURVE SMOOTH",
"674 759 OFFCURVE",
"741 726 OFFCURVE",
"741 604 CURVE SMOOTH",
"741 122 LINE SMOOTH",
"741 68 OFFCURVE",
"723 64 OFFCURVE",
"613 64 CURVE",
"613 0 LINE"
);
},
{
closed = 1;
nodes = (
"1501 0 LINE",
"1501 64 LINE",
"1391 64 OFFCURVE",
"1373 68 OFFCURVE",
"1373 122 CURVE SMOOTH",
"1373 599 LINE SMOOTH",
"1373 787 OFFCURVE",
"1271 841 OFFCURVE",
"1150 841 CURVE SMOOTH",
"1070 841 OFFCURVE",
"957 771 OFFCURVE",
"830 692 CURVE",
"830 604 LINE",
"979 707 OFFCURVE",
"1077 759 OFFCURVE",
"1132 759 CURVE SMOOTH",
"1196 759 OFFCURVE",
"1263 726 OFFCURVE",
"1263 604 CURVE SMOOTH",
"1263 122 LINE SMOOTH",
"1263 68 OFFCURVE",
"1245 64 OFFCURVE",
"1135 64 CURVE",
"1135 0 LINE"
);
}
);
width = 1546;
},
{
anchors = (
{
name = bottom;
position = "{834, 0}";
},
{
name = top;
position = "{852, 826}";
}
);
layerId = "72F22432-F665-4153-96BB-74D91BCC5F28";
paths = (
{
closed = 1;
nodes = (
"541 0 LINE",
"541 64 LINE",
"437 64 OFFCURVE",
"420 124 OFFCURVE",
"420 192 CURVE SMOOTH",
"420 826 LINE",
"377 856 LINE",
"35 771 LINE",
"45 699 LINE",
"169 737 OFFCURVE",
"187 689 OFFCURVE",
"187 626 CURVE SMOOTH",
"187 186 LINE SMOOTH",
"187 124 OFFCURVE",
"154 64 OFFCURVE",
"62 64 CURVE",
"62 0 LINE"
);
},
{
closed = 1;
nodes = (
"1127 0 LINE",
"1127 64 LINE",
"1022 64 OFFCURVE",
"1005 124 OFFCURVE",
"1005 192 CURVE SMOOTH",
"1005 556 LINE SMOOTH",
"1005 794 OFFCURVE",
"856 843 OFFCURVE",
"756 843 CURVE SMOOTH",
"655 843 OFFCURVE",
"501 750 OFFCURVE",
"414 694 CURVE",
"414 596 LINE",
"494 654 OFFCURVE",
"598 729 OFFCURVE",
"681 729 CURVE SMOOTH",
"756 729 OFFCURVE",
"790 682 OFFCURVE",
"790 525 CURVE SMOOTH",
"790 192 LINE SMOOTH",
"790 124 OFFCURVE",
"773 64 OFFCURVE",
"668 64 CURVE",
"668 0 LINE"
);
},
{
closed = 1;
nodes = (
"1678 0 LINE",
"1678 64 LINE",
"1573 64 OFFCURVE",
"1556 124 OFFCURVE",
"1556 192 CURVE SMOOTH",
"1556 556 LINE SMOOTH",
"1556 794 OFFCURVE",
"1398 843 OFFCURVE",
"1297 843 CURVE SMOOTH",
"1198 843 OFFCURVE",
"1053 753 OFFCURVE",
"965 694 CURVE",
"965 596 LINE",
"1043 654 OFFCURVE",
"1146 729 OFFCURVE",
"1232 729 CURVE SMOOTH",
"1307 729 OFFCURVE",
"1339 682 OFFCURVE",
"1339 525 CURVE SMOOTH",
"1339 192 LINE SMOOTH",
"1339 124 OFFCURVE",
"1322 64 OFFCURVE",
"1218 64 CURVE",
"1218 0 LINE"
);
}
);
width = 1723;
}
);
leftKerningGroup = n;
leftMetricsKey = i;
rightKerningGroup = n;
rightMetricsKey = i;
unicode = 006D;
},
{
glyphname = n;
lastChange = "2020-11-11 21:58:57 +0000";
layers = (
{
anchors = (
{
name = bottom;
position = "{522, 0}";
},
{
name = top;
position = "{505, 826}";
}
);
layerId = "14A1E899-FED4-4F52-86F4-A1F822586E10";
paths = (
{
closed = 1;
nodes = (
"999 0 LINE",
"999 64 LINE",
"889 64 OFFCURVE",
"871 68 OFFCURVE",
"871 122 CURVE SMOOTH",
"871 599 LINE SMOOTH",
"871 787 OFFCURVE",
"769 841 OFFCURVE",
"638 841 CURVE SMOOTH",
"543 841 OFFCURVE",
"432 771 OFFCURVE",
"308 692 CURVE",
"308 604 LINE",
"457 707 OFFCURVE",
"550 759 OFFCURVE",
"620 759 CURVE SMOOTH",
"694 759 OFFCURVE",
"761 726 OFFCURVE",
"761 604 CURVE SMOOTH",
"761 122 LINE SMOOTH",
"761 68 OFFCURVE",
"743 64 OFFCURVE",
"633 64 CURVE",
"633 0 LINE"
);
},
{
closed = 1;
nodes = (
"442 0 LINE",
"442 64 LINE",
"332 64 OFFCURVE",
"314 68 OFFCURVE",
"314 122 CURVE SMOOTH",
"314 826 LINE",
"269 856 LINE",
"45 786 LINE",
"55 732 LINE",
"172 752 OFFCURVE",
"204 754 OFFCURVE",
"204 680 CURVE SMOOTH",
"204 116 LINE SMOOTH",
"204 68 OFFCURVE",
"170 64 OFFCURVE",
"73 64 CURVE",
"73 0 LINE"
);
}
);
width = 1044;
},
{
anchors = (
{
name = bottom;
position = "{578, 0}";
},
{
name = top;
position = "{562, 826}";
}
);
layerId = "72F22432-F665-4153-96BB-74D91BCC5F28";
paths = (
{
closed = 1;
nodes = (
"1103 0 LINE",
"1103 64 LINE",
"998 64 OFFCURVE",
"981 124 OFFCURVE",
"981 192 CURVE SMOOTH",
"981 565 LINE SMOOTH",
"981 764 OFFCURVE",
"890 841 OFFCURVE",
"716 841 CURVE SMOOTH",
"628 841 OFFCURVE",
"531 797 OFFCURVE",
"410 715 CURVE",
"410 617 LINE",
"544 719 OFFCURVE",
"604 759 OFFCURVE",
"671 759 CURVE SMOOTH",
"740 759 OFFCURVE",
"751 675 OFFCURVE",
"751 581 CURVE SMOOTH",
"751 192 LINE SMOOTH",
"751 124 OFFCURVE",
"734 64 OFFCURVE",
"630 64 CURVE",
"630 0 LINE"
);
},
{
closed = 1;
nodes = (
"538 0 LINE",
"538 64 LINE",
"433 64 OFFCURVE",
"416 124 OFFCURVE",
"416 192 CURVE SMOOTH",
"416 825 LINE",
"363 855 LINE",
"35 768 LINE",
"45 696 LINE",
"171 739 OFFCURVE",
"187 685 OFFCURVE",
"187 627 CURVE SMOOTH",
"187 186 LINE SMOOTH",
"187 124 OFFCURVE",
"154 64 OFFCURVE",
"62 64 CURVE",
"62 0 LINE"
);
}
);
width = 1148;
}
);
leftKerningGroup = i;
leftMetricsKey = i;
rightKerningGroup = n;
rightMetricsKey = i;
unicode = 006E;
},
{
glyphname = eng;
lastChange = "2020-11-11 19:25:43 +0000";
layers = (
{
anchors = (
{
name = bottom;
position = "{564, 0}";
},
{
name = top;
position = "{564, 926}";
}
);
layerId = "14A1E899-FED4-4F52-86F4-A1F822586E10";
paths = (
{
closed = 1;
nodes = (
"861 -49 LINE",
"861 599 LINE SMOOTH",
"861 787 OFFCURVE",
"759 841 OFFCURVE",
"628 841 CURVE SMOOTH",
"533 841 OFFCURVE",
"422 771 OFFCURVE",
"298 692 CURVE",
"298 604 LINE",
"447 707 OFFCURVE",
"540 759 OFFCURVE",
"610 759 CURVE SMOOTH",
"684 759 OFFCURVE",
"751 726 OFFCURVE",
"751 604 CURVE SMOOTH",
"751 -49 LINE"
);
},
{
closed = 1;
nodes = (
"490 -351 LINE",
"528 -211 LINE",
"413 -230 LINE",
"413 -385 LINE"
);
},
{
closed = 1;
nodes = (
"777 -441 OFFCURVE",
"861 -297 OFFCURVE",
"861 -49 CURVE",
"751 -49 LINE",
"751 -295 OFFCURVE",
"683 -374 OFFCURVE",
"586 -374 CURVE SMOOTH",
"498 -374 OFFCURVE",
"486 -340 OFFCURVE",
"479 -307 CURVE",
"413 -385 LINE",
"445 -415 OFFCURVE",
"489 -441 OFFCURVE",
"571 -441 CURVE SMOOTH"
);
},
{
closed = 1;
nodes = (
"432 0 LINE",
"432 64 LINE",
"322 64 OFFCURVE",
"304 68 OFFCURVE",
"304 122 CURVE SMOOTH",
"304 841 LINE",
"259 841 LINE",
"45 771 LINE",
"45 717 LINE",
"162 737 OFFCURVE",
"194 739 OFFCURVE",
"194 665 CURVE SMOOTH",
"194 116 LINE SMOOTH",
"194 68 OFFCURVE",
"160 64 OFFCURVE",
"63 64 CURVE",
"63 0 LINE"
);
}
);
width = 906;
},
{
anchors = (
{
name = bottom;
position = "{528, 0}";
},
{
name = top;
position = "{528, 926}";
}
);
layerId = "72F22432-F665-4153-96BB-74D91BCC5F28";
paths = (
{
closed = 1;
nodes = (
"971 37 LINE",
"971 547 LINE SMOOTH",
"971 746 OFFCURVE",
"896 841 OFFCURVE",
"696 841 CURVE SMOOTH",
"608 841 OFFCURVE",
"527 791 OFFCURVE",
"400 710 CURVE",
"400 622 LINE",
"540 723 OFFCURVE",
"594 759 OFFCURVE",
"661 759 CURVE SMOOTH",
"740 759 OFFCURVE",
"741 685 OFFCURVE",
"741 571 CURVE SMOOTH",
"741 37 LINE"
);
},
{
closed = 1;
nodes = (
"622 -313 LINE",
"662 -89 LINE",
"433 -127 LINE",
"461 -347 LINE"
);
},
{
closed = 1;
nodes = (
"843 -403 OFFCURVE",
"971 -246 OFFCURVE",
"971 37 CURVE",
"741 37 LINE",
"741 -243 OFFCURVE",
"727 -292 OFFCURVE",
"662 -292 CURVE SMOOTH",
"595 -292 OFFCURVE",
"533 -246 OFFCURVE",
"524 -234 CURVE",
"461 -347 LINE",
"512 -378 OFFCURVE",
"572 -403 OFFCURVE",
"647 -403 CURVE SMOOTH"
);
},
{
closed = 1;
nodes = (
"528 0 LINE",
"528 64 LINE",
"423 64 OFFCURVE",
"406 124 OFFCURVE",
"406 192 CURVE SMOOTH",
"406 841 LINE",
"363 841 LINE",
"35 754 LINE",
"35 682 LINE",
"161 725 OFFCURVE",
"177 671 OFFCURVE",
"177 613 CURVE SMOOTH",
"177 186 LINE SMOOTH",
"177 124 OFFCURVE",
"144 64 OFFCURVE",
"52 64 CURVE",
"52 0 LINE"
);
}
);
width = 1016;
}
);
leftKerningGroup = n;
leftMetricsKey = n;
rightKerningGroup = n;
rightMetricsKey = n;
unicode = 014B;
},
{
glyphname = o;
lastChange = "2020-11-11 22:33:20 +0000";
layers = (
{
anchors = (
{
name = bottom;
position = "{487, 0}";
},
{
name = center;
position = "{487, 463}";
},
{
name = ogonek;
position = "{762, 71}";
},
{
name = top;
position = "{487, 826}";
},
{
name = topright;
position = "{748, 736}";
}
);
layerId = "14A1E899-FED4-4F52-86F4-A1F822586E10";
paths = (
{
closed = 1;
nodes = (
"712 -24 OFFCURVE",
"899 159 OFFCURVE",
"899 412 CURVE SMOOTH",
"899 666 OFFCURVE",
"712 848 OFFCURVE",
"487 848 CURVE SMOOTH",
"261 848 OFFCURVE",
"75 666 OFFCURVE",
"75 412 CURVE SMOOTH",
"75 159 OFFCURVE",
"261 -24 OFFCURVE",
"487 -24 CURVE SMOOTH"
);
},
{
closed = 1;
nodes = (
"289 46 OFFCURVE",
"201 224 OFFCURVE",
"201 432 CURVE SMOOTH",
"201 639 OFFCURVE",
"288 778 OFFCURVE",
"487 778 CURVE SMOOTH",
"685 778 OFFCURVE",
"774 600 OFFCURVE",
"774 392 CURVE SMOOTH",
"774 185 OFFCURVE",
"685 46 OFFCURVE",
"487 46 CURVE SMOOTH"
);
}
);
width = 974;
},
{
anchors = (
{
name = bottom;
position = "{530, 0}";
},
{
name = center;
position = "{530, 413}";
},
{
name = ogonek;
position = "{791, 71}";
},
{
name = top;
position = "{529, 826}";
},
{
name = topright;
position = "{777, 736}";
}
);
layerId = "72F22432-F665-4153-96BB-74D91BCC5F28";
paths = (
{
closed = 1;
nodes = (
"796 -24 OFFCURVE",
"989 159 OFFCURVE",
"989 412 CURVE SMOOTH",
"989 666 OFFCURVE",
"796 851 OFFCURVE",
"529 851 CURVE SMOOTH",
"261 851 OFFCURVE",
"70 666 OFFCURVE",
"70 412 CURVE SMOOTH",
"70 159 OFFCURVE",
"261 -24 OFFCURVE",
"529 -24 CURVE SMOOTH"
);
},
{
closed = 1;
nodes = (
"358 46 OFFCURVE",
"325 279 OFFCURVE",
"325 457 CURVE SMOOTH",
"325 633 OFFCURVE",
"357 781 OFFCURVE",
"529 781 CURVE SMOOTH",
"703 781 OFFCURVE",
"734 541 OFFCURVE",
"734 367 CURVE SMOOTH",
"734 194 OFFCURVE",
"703 46 OFFCURVE",
"529 46 CURVE SMOOTH"
);
}
);
width = 1059;
}
);
leftKerningGroup = o;
rightKerningGroup = o;
unicode = 006F;
},
{
glyphname = ohorn;
lastChange = "2020-11-11 21:55:12 +0000";
layers = (
{
anchors = (
{
name = bottom;
position = "{506, 0}";
},
{
name = top;
position = "{506, 826}";
}
);
components = (
{
name = horncomb;
transform = "{1, 0, 0, 1, 605, -143}";
}
);
layerId = "14A1E899-FED4-4F52-86F4-A1F822586E10";
paths = (
{
closed = 1;
nodes = (
"727 -24 OFFCURVE",
"929 159 OFFCURVE",
"929 412 CURVE SMOOTH",
"929 666 OFFCURVE",
"727 841 OFFCURVE",
"502 841 CURVE SMOOTH",
"276 841 OFFCURVE",
"75 666 OFFCURVE",
"75 412 CURVE SMOOTH",
"75 159 OFFCURVE",
"276 -24 OFFCURVE",
"502 -24 CURVE SMOOTH"
);
},
{
closed = 1;
nodes = (
"304 46 OFFCURVE",
"212 224 OFFCURVE",
"212 432 CURVE SMOOTH",
"212 639 OFFCURVE",
"303 771 OFFCURVE",
"502 771 CURVE SMOOTH",
"710 771 OFFCURVE",
"793 600 OFFCURVE",
"793 392 CURVE SMOOTH",
"793 185 OFFCURVE",
"710 46 OFFCURVE",
"502 46 CURVE SMOOTH"
);
}
);
width = 990;
},
{
anchors = (
{
name = bottom;
position = "{526, 0}";
},
{
name = top;
position = "{526, 826}";
}
);
components = (
{
name = horncomb;
transform = "{1, 0, 0, 1, 654, -143}";
}
);
layerId = "72F22432-F665-4153-96BB-74D91BCC5F28";
paths = (
{
closed = 1;
nodes = (
"796 -24 OFFCURVE",
"989 159 OFFCURVE",
"989 412 CURVE SMOOTH",
"989 666 OFFCURVE",
"796 841 OFFCURVE",
"529 841 CURVE SMOOTH",
"261 841 OFFCURVE",
"70 666 OFFCURVE",
"70 412 CURVE SMOOTH",
"70 159 OFFCURVE",
"261 -24 OFFCURVE",
"529 -24 CURVE SMOOTH"
);
},
{
closed = 1;
nodes = (
"286 46 OFFCURVE",
"343 380 OFFCURVE",
"343 467 CURVE SMOOTH",
"343 553 OFFCURVE",
"287 771 OFFCURVE",
"529 771 CURVE SMOOTH",
"763 771 OFFCURVE",
"716 442 OFFCURVE",
"716 357 CURVE SMOOTH",
"716 276 OFFCURVE",
"763 46 OFFCURVE",
"529 46 CURVE SMOOTH"
);
}
);
width = 1041;
}
);
leftKerningGroup = o;
leftMetricsKey = o;
rightKerningGroup = o;
rightMetricsKey = "=o-80";
unicode = 01A1;
},
{
glyphname = oslash;
lastChange = "2020-11-11 22:38:43 +0000";
layers = (
{
anchors = (
{
name = top;
position = "{488, 826}";
}
);
components = (
{
name = o;
}
);
layerId = "14A1E899-FED4-4F52-86F4-A1F822586E10";
paths = (
{
closed = 1;
nodes = (
"262 -111 LINE",
"795 904 LINE",
"727 934 LINE",
"191 -81 LINE"
);
}
);
width = 974;
},
{
anchors = (
{
name = top;
position = "{524, 826}";
}
);
components = (
{
name = o;
}
);
layerId = "72F22432-F665-4153-96BB-74D91BCC5F28";
paths = (
{
closed = 1;
nodes = (
"316 -109 LINE",
"823 906 LINE",
"749 936 LINE",
"240 -79 LINE"
);
}
);
width = 1059;
}
);
unicode = 00F8;
},
{
glyphname = oe;
lastChange = "2020-11-11 21:55:12 +0000";
layers = (
{
anchors = (
{
name = bottom;
position = "{855, 0}";
},
{
name = top;
position = "{855, 826}";
}
);
components = (
{
alignment = -1;
name = e;
transform = "{1, 0, 0, 1, 741, 0}";
}
);
layerId = "14A1E899-FED4-4F52-86F4-A1F822586E10";
paths = (
{
closed = 1;
nodes = (
"727 -24 OFFCURVE",
"929 159 OFFCURVE",
"929 412 CURVE SMOOTH",
"929 666 OFFCURVE",
"727 841 OFFCURVE",
"502 841 CURVE SMOOTH",
"276 841 OFFCURVE",
"75 666 OFFCURVE",
"75 412 CURVE SMOOTH",
"75 159 OFFCURVE",
"276 -24 OFFCURVE",
"502 -24 CURVE SMOOTH"
);
},
{
closed = 1;
nodes = (
"304 46 OFFCURVE",
"212 224 OFFCURVE",
"212 432 CURVE SMOOTH",
"212 639 OFFCURVE",
"303 771 OFFCURVE",
"502 771 CURVE SMOOTH",
"710 771 OFFCURVE",
"793 600 OFFCURVE",
"793 392 CURVE SMOOTH",
"793 185 OFFCURVE",
"710 46 OFFCURVE",
"502 46 CURVE SMOOTH"
);
}
);
width = 1639;
},
{
anchors = (
{
name = bottom;
position = "{791, 0}";
},
{
name = top;
position = "{791, 826}";
}
);
components = (
{
alignment = -1;
name = e;
transform = "{1, 0, 0, 1, 683, 0}";
}
);
layerId = "72F22432-F665-4153-96BB-74D91BCC5F28";
paths = (
{
closed = 1;
nodes = (
"796 -24 OFFCURVE",
"989 159 OFFCURVE",
"989 412 CURVE SMOOTH",
"989 666 OFFCURVE",
"796 841 OFFCURVE",
"529 841 CURVE SMOOTH",
"261 841 OFFCURVE",
"70 666 OFFCURVE",
"70 412 CURVE SMOOTH",
"70 159 OFFCURVE",
"261 -24 OFFCURVE",
"529 -24 CURVE SMOOTH"
);
},
{
closed = 1;
nodes = (
"288 46 OFFCURVE",
"325 379 OFFCURVE",
"325 467 CURVE SMOOTH",
"325 553 OFFCURVE",
"287 771 OFFCURVE",
"529 771 CURVE SMOOTH",
"763 771 OFFCURVE",
"734 441 OFFCURVE",
"734 357 CURVE SMOOTH",
"734 274 OFFCURVE",
"763 46 OFFCURVE",
"529 46 CURVE SMOOTH"
);
}
);
width = 1658;
}
);
leftKerningGroup = o;
leftMetricsKey = o;
rightKerningGroup = e;
rightMetricsKey = e;
unicode = 0153;
},
{
glyphname = p;
lastChange = "2020-11-11 22:28:56 +0000";
layers = (
{
anchors = (
{
name = bottom;
position = "{494, 0}";
},
{
name = top;
position = "{534, 826}";
}
);
layerId = "14A1E899-FED4-4F52-86F4-A1F822586E10";
paths = (
{
closed = 1;
nodes = (
"448 -430 LINE",
"448 -366 LINE",
"338 -366 OFFCURVE",
"320 -359 OFFCURVE",
"320 -288 CURVE SMOOTH",
"320 824 LINE",
"275 854 LINE",
"55 784 LINE",
"65 730 LINE",
"203 750 OFFCURVE",
"214 751 OFFCURVE",
"214 688 CURVE SMOOTH",
"214 -294 LINE SMOOTH",
"214 -360 OFFCURVE",
"171 -366 OFFCURVE",
"65 -366 CURVE",
"65 -430 LINE"
);
},
{
closed = 1;
nodes = (
"752 -20 OFFCURVE",
"940 134 OFFCURVE",
"940 418 CURVE SMOOTH",
"940 754 OFFCURVE",
"744 847 OFFCURVE",
"603 847 CURVE SMOOTH",
"506 847 OFFCURVE",
"383 753 OFFCURVE",
"310 695 CURVE",
"310 597 LINE",
"403 682 OFFCURVE",
"505 769 OFFCURVE",
"584 769 CURVE SMOOTH",
"661 769 OFFCURVE",
"822 726 OFFCURVE",
"822 410 CURVE SMOOTH",
"822 187 OFFCURVE",
"697 51 OFFCURVE",
"563 51 CURVE SMOOTH",
"446 51 OFFCURVE",
"353 141 OFFCURVE",
"310 344 CURVE",
"266 254 LINE",
"302 60 OFFCURVE",
"453 -20 OFFCURVE",
"557 -20 CURVE SMOOTH"
);
}
);
width = 1015;
},
{
anchors = (
{
name = bottom;
position = "{578, 0}";
},
{
name = top;
position = "{616, 826}";
}
);
layerId = "72F22432-F665-4153-96BB-74D91BCC5F28";
paths = (
{
closed = 1;
nodes = (
"534 -430 LINE",
"534 -366 LINE",
"416 -366 OFFCURVE",
"412 -348 OFFCURVE",
"412 -271 CURVE SMOOTH",
"412 825 LINE",
"360 855 LINE",
"35 768 LINE",
"45 696 LINE",
"167 737 OFFCURVE",
"187 682 OFFCURVE",
"187 634 CURVE SMOOTH",
"187 -259 LINE SMOOTH",
"187 -360 OFFCURVE",
"146 -366 OFFCURVE",
"45 -366 CURVE",
"45 -430 LINE"
);
},
{
closed = 1;
nodes = (
"819 -20 OFFCURVE",
"1069 134 OFFCURVE",
"1069 418 CURVE SMOOTH",
"1069 754 OFFCURVE",
"883 851 OFFCURVE",
"680 851 CURVE SMOOTH",
"588 851 OFFCURVE",
"478 785 OFFCURVE",
"409 733 CURVE",
"409 621 LINE",
"494 705 OFFCURVE",
"569 773 OFFCURVE",
"644 773 CURVE SMOOTH",
"753 773 OFFCURVE",
"816 633 OFFCURVE",
"816 352 CURVE SMOOTH",
"816 129 OFFCURVE",
"755 51 OFFCURVE",
"640 51 CURVE SMOOTH",
"529 51 OFFCURVE",
"450 151 OFFCURVE",
"409 334 CURVE",
"314 224 LINE",
"348 30 OFFCURVE",
"537 -20 OFFCURVE",
"635 -20 CURVE SMOOTH"
);
}
);
width = 1139;
}
);
leftKerningGroup = p;
rightKerningGroup = o;
rightMetricsKey = o;
unicode = 0070;
},
{
glyphname = thorn;
lastChange = "2020-10-13 20:10:10 +0000";
layers = (
{
anchors = (
{
name = bottom;
position = "{561, 0}";
},
{
name = top;
position = "{561, 926}";
}
);
layerId = "14A1E899-FED4-4F52-86F4-A1F822586E10";
paths = (
{
closed = 1;
nodes = (
"509 -436 LINE",
"509 -372 LINE",
"399 -372 OFFCURVE",
"381 -364 OFFCURVE",
"381 -302 CURVE SMOOTH",
"381 1500 LINE",
"336 1500 LINE",
"126 1430 LINE",
"126 1376 LINE",
"264 1396 OFFCURVE",
"275 1388 OFFCURVE",
"275 1334 CURVE SMOOTH",
"275 -300 LINE SMOOTH",
"275 -366 OFFCURVE",
"232 -372 OFFCURVE",
"126 -372 CURVE",
"126 -436 LINE"
);
},
{
closed = 1;
nodes = (
"811 -20 OFFCURVE",
"1009 134 OFFCURVE",
"1009 418 CURVE SMOOTH",
"1009 754 OFFCURVE",
"813 841 OFFCURVE",
"672 841 CURVE SMOOTH",
"575 841 OFFCURVE",
"452 758 OFFCURVE",
"379 705 CURVE",
"379 617 LINE",
"472 690 OFFCURVE",
"574 763 OFFCURVE",
"653 763 CURVE SMOOTH",
"730 763 OFFCURVE",
"891 726 OFFCURVE",
"891 410 CURVE SMOOTH",
"891 187 OFFCURVE",
"756 51 OFFCURVE",
"622 51 CURVE SMOOTH",
"505 51 OFFCURVE",
"422 111 OFFCURVE",
"379 314 CURVE",
"335 224 LINE",
"371 30 OFFCURVE",
"512 -20 OFFCURVE",
"616 -20 CURVE SMOOTH"
);
}
);
width = 1122;
},
{
anchors = (
{
name = bottom;
position = "{533, 0}";
},
{
name = top;
position = "{54, 1931}";
}
);
layerId = "72F22432-F665-4153-96BB-74D91BCC5F28";
paths = (
{
closed = 1;
nodes = (
"484 -426 LINE",
"484 -362 LINE",
"375 -362 OFFCURVE",
"362 -298 OFFCURVE",
"362 -243 CURVE SMOOTH",
"362 1500 LINE",
"320 1500 LINE",
"-5 1413 LINE",
"-5 1341 LINE",
"137 1382 OFFCURVE",
"137 1363 OFFCURVE",
"137 1299 CURVE SMOOTH",
"137 -255 LINE SMOOTH",
"137 -347 OFFCURVE",
"108 -362 OFFCURVE",
"-5 -362 CURVE",
"-5 -426 LINE"
);
},
{
closed = 1;
nodes = (
"765 -20 OFFCURVE",
"1025 134 OFFCURVE",
"1025 418 CURVE SMOOTH",
"1025 754 OFFCURVE",
"838 841 OFFCURVE",
"616 841 CURVE SMOOTH",
"524 841 OFFCURVE",
"425 776 OFFCURVE",
"355 723 CURVE",
"355 635 LINE",
"444 708 OFFCURVE",
"505 763 OFFCURVE",
"580 763 CURVE SMOOTH",
"689 763 OFFCURVE",
"772 632 OFFCURVE",
"772 352 CURVE SMOOTH",
"772 130 OFFCURVE",
"731 51 OFFCURVE",
"586 51 CURVE SMOOTH",
"474 51 OFFCURVE",
"396 111 OFFCURVE",
"355 314 CURVE",
"260 224 LINE",
"294 30 OFFCURVE",
"482 -20 OFFCURVE",
"580 -20 CURVE SMOOTH"
);
}
);
width = 1066;
}
);
unicode = 00FE;
},
{
glyphname = q;
lastChange = "2020-11-11 22:01:30 +0000";
layers = (
{
anchors = (
{
name = bottom;
position = "{467, 0}";
},
{
name = top;
position = "{467, 826}";
}
);
layerId = "14A1E899-FED4-4F52-86F4-A1F822586E10";
paths = (
{
closed = 1;
nodes = (
"682 726 LINE",
"682 -308 LINE SMOOTH",
"682 -366 OFFCURVE",
"664 -366 OFFCURVE",
"554 -366 CURVE",
"554 -430 LINE",
"916 -430 LINE",
"916 -366 LINE",
"806 -366 OFFCURVE",
"788 -365 OFFCURVE",
"788 -308 CURVE SMOOTH",
"788 840 LINE",
"711 840 LINE"
);
},
{
closed = 1;
nodes = (
"243 851 OFFCURVE",
"75 697 OFFCURVE",
"75 413 CURVE SMOOTH",
"75 77 OFFCURVE",
"281 -20 OFFCURVE",
"422 -20 CURVE SMOOTH",
"509 -20 OFFCURVE",
"612 53 OFFCURVE",
"685 106 CURVE",
"685 204 LINE",
"592 121 OFFCURVE",
"510 58 OFFCURVE",
"441 58 CURVE SMOOTH",
"364 58 OFFCURVE",
"193 105 OFFCURVE",
"193 421 CURVE SMOOTH",
"193 644 OFFCURVE",
"298 780 OFFCURVE",
"432 780 CURVE SMOOTH",
"549 780 OFFCURVE",
"642 720 OFFCURVE",
"685 517 CURVE",
"729 617 LINE",
"693 811 OFFCURVE",
"542 851 OFFCURVE",
"438 851 CURVE SMOOTH"
);
}
);
width = 881;
},
{
anchors = (
{
name = bottom;
position = "{507, 0}";
},
{
name = top;
position = "{507, 826}";
}
);
layerId = "72F22432-F665-4153-96BB-74D91BCC5F28";
paths = (
{
closed = 1;
nodes = (
"711 716 LINE",
"711 -273 LINE",
"711 -338 OFFCURVE",
"694 -366 OFFCURVE",
"589 -366 CURVE",
"589 -430 LINE",
"1055 -430 LINE",
"1055 -366 LINE",
"950 -366 OFFCURVE",
"933 -337 OFFCURVE",
"933 -273 CURVE SMOOTH",
"933 831 LINE",
"783 831 LINE"
);
},
{
closed = 1;
nodes = (
"248 849 OFFCURVE",
"70 712 OFFCURVE",
"70 428 CURVE SMOOTH",
"70 92 OFFCURVE",
"230 -20 OFFCURVE",
"453 -20 CURVE SMOOTH",
"554 -20 OFFCURVE",
"654 38 OFFCURVE",
"721 96 CURVE",
"721 204 LINE",
"643 124 OFFCURVE",
"571 58 OFFCURVE",
"489 58 CURVE SMOOTH",
"380 58 OFFCURVE",
"323 244 OFFCURVE",
"323 484 CURVE SMOOTH",
"323 671 OFFCURVE",
"371 778 OFFCURVE",
"481 778 CURVE SMOOTH",
"592 778 OFFCURVE",
"657 675 OFFCURVE",
"717 497 CURVE",
"804 577 LINE",
"751 776 OFFCURVE",
"607 849 OFFCURVE",
"468 849 CURVE SMOOTH"
);
}
);
width = 1020;
}
);
leftKerningGroup = o;
leftMetricsKey = o;
rightMetricsKey = "=i-80";
unicode = 0071;
},
{
glyphname = r;
lastChange = "2020-11-11 22:32:16 +0000";
layers = (
{
anchors = (
{
name = bottom;
position = "{220, 0}";
},
{
name = top;
position = "{450, 826}";
}
);
layerId = "14A1E899-FED4-4F52-86F4-A1F822586E10";
paths = (
{
closed = 1;
nodes = (
"455 0 LINE",
"455 64 LINE",
"345 64 OFFCURVE",
"309 80 OFFCURVE",
"309 142 CURVE SMOOTH",
"309 825 LINE",
"264 855 LINE",
"45 785 LINE",
"55 731 LINE",
"180 751 OFFCURVE",
"204 752 OFFCURVE",
"204 679 CURVE SMOOTH",
"204 146 LINE SMOOTH",
"204 80 OFFCURVE",
"161 64 OFFCURVE",
"55 64 CURVE",
"55 0 LINE"
);
},
{
closed = 1;
nodes = (
"419 680 OFFCURVE",
"529 762 OFFCURVE",
"551 762 CURVE",
"675 814 LINE",
"660 824 OFFCURVE",
"612 851 OFFCURVE",
"586 851 CURVE SMOOTH",
"544 851 OFFCURVE",
"395 737 OFFCURVE",
"296 657 CURVE",
"306 574 LINE"
);
},
{
closed = 1;
nodes = (
"693 649 LINE",
"675 814 LINE",
"546 766 LINE",
"531 619 LINE"
);
}
);
width = 743;
},
{
anchors = (
{
name = bottom;
position = "{331, 0}";
},
{
name = top;
position = "{549, 826}";
}
);
layerId = "72F22432-F665-4153-96BB-74D91BCC5F28";
paths = (
{
closed = 1;
nodes = (
"554 0 LINE",
"554 64 LINE",
"450 64 OFFCURVE",
"415 115 OFFCURVE",
"415 177 CURVE SMOOTH",
"415 825 LINE",
"363 855 LINE",
"35 768 LINE",
"45 696 LINE",
"179 738 OFFCURVE",
"187 685 OFFCURVE",
"187 627 CURVE SMOOTH",
"187 216 LINE SMOOTH",
"187 80 OFFCURVE",
"146 64 OFFCURVE",
"45 64 CURVE",
"45 0 LINE"
);
},
{
closed = 1;
nodes = (
"507 649 OFFCURVE",
"610 717 OFFCURVE",
"630 717 CURVE",
"817 814 LINE",
"802 825 OFFCURVE",
"735 851 OFFCURVE",
"700 851 CURVE SMOOTH",
"670 851 OFFCURVE",
"487 736 OFFCURVE",
"403 670 CURVE",
"413 561 LINE"
);
},
{
closed = 1;
nodes = (
"834 594 LINE",
"817 814 LINE",
"620 770 LINE",
"598 529 LINE"
);
}
);
width = 884;
}
);
leftKerningGroup = r;
leftMetricsKey = i;
rightKerningGroup = r;
unicode = 0072;
},
{
glyphname = s;
lastChange = "2020-11-11 21:55:12 +0000";
layers = (
{
anchors = (
{
name = bottom;
position = "{362, 0}";
},
{
name = top;
position = "{362, 826}";
}
);
layerId = "14A1E899-FED4-4F52-86F4-A1F822586E10";
paths = (
{
closed = 1;
nodes = (
"514 -24 OFFCURVE",
"656 65 OFFCURVE",
"656 220 CURVE SMOOTH",
"656 381 OFFCURVE",
"537 427 OFFCURVE",
"381 478 CURVE SMOOTH",
"248 521 OFFCURVE",
"170 553 OFFCURVE",
"170 648 CURVE SMOOTH",
"170 745 OFFCURVE",
"266 784 OFFCURVE",
"359 784 CURVE SMOOTH",
"459 784 OFFCURVE",
"541 724 OFFCURVE",
"552 589 CURVE",
"605 589 LINE",
"615 761 LINE",
"580 793 OFFCURVE",
"482 851 OFFCURVE",
"363 851 CURVE SMOOTH",
"241 851 OFFCURVE",
"83 795 OFFCURVE",
"83 635 CURVE SMOOTH",
"83 498 OFFCURVE",
"166 434 OFFCURVE",
"304 392 CURVE SMOOTH",
"448 348 OFFCURVE",
"564 306 OFFCURVE",
"564 202 CURVE SMOOTH",
"564 105 OFFCURVE",
"488 44 OFFCURVE",
"362 44 CURVE SMOOTH",
"231 44 OFFCURVE",
"157 101 OFFCURVE",
"138 264 CURVE",
"85 264 LINE",
"75 80 LINE",
"128 19 OFFCURVE",
"219 -24 OFFCURVE",
"354 -24 CURVE SMOOTH"
);
}
);
width = 731;
},
{
anchors = (
{
name = bottom;
position = "{386, 0}";
},
{
name = top;
position = "{394, 826}";
}
);
layerId = "72F22432-F665-4153-96BB-74D91BCC5F28";
paths = (
{
closed = 1;
nodes = (
"585 -24 OFFCURVE",
"741 45 OFFCURVE",
"741 225 CURVE SMOOTH",
"741 386 OFFCURVE",
"544 478 OFFCURVE",
"396 538 CURVE SMOOTH",
"287 582 OFFCURVE",
"254 609 OFFCURVE",
"254 670 CURVE SMOOTH",
"254 751 OFFCURVE",
"325 779 OFFCURVE",
"387 779 CURVE SMOOTH",
"471 779 OFFCURVE",
"546 719 OFFCURVE",
"575 562 CURVE",
"661 562 LINE",
"688 765 LINE",
"634 805 OFFCURVE",
"534 851 OFFCURVE",
"405 851 CURVE SMOOTH",
"263 851 OFFCURVE",
"80 787 OFFCURVE",
"80 610 CURVE SMOOTH",
"80 443 OFFCURVE",
"233 378 OFFCURVE",
"365 325 CURVE SMOOTH",
"493 274 OFFCURVE",
"550 220 OFFCURVE",
"550 147 CURVE SMOOTH",
"550 78 OFFCURVE",
"481 48 OFFCURVE",
"407 48 CURVE SMOOTH",
"309 48 OFFCURVE",
"202 132 OFFCURVE",
"183 297 CURVE",
"97 297 LINE",
"70 63 LINE",
"159 9 OFFCURVE",
"272 -24 OFFCURVE",
"397 -24 CURVE SMOOTH"
);
}
);
width = 811;
}
);
leftKerningGroup = s;
leftMetricsKey = o;
rightKerningGroup = s;
rightMetricsKey = o;
unicode = 0073;
},
{
glyphname = germandbls;
lastChange = "2020-11-11 21:55:12 +0000";
layers = (
{
layerId = "14A1E899-FED4-4F52-86F4-A1F822586E10";
paths = (
{
closed = 1;
nodes = (
"752 781 OFFCURVE",
"955 911 OFFCURVE",
"955 1094 CURVE SMOOTH",
"955 1317 OFFCURVE",
"796 1422 OFFCURVE",
"630 1422 CURVE SMOOTH",
"496 1422 OFFCURVE",
"428 1393 OFFCURVE",
"302 1288 CURVE SMOOTH",
"253 1247 OFFCURVE",
"194 1173 OFFCURVE",
"194 1127 CURVE SMOOTH",
"194 152 LINE SMOOTH",
"194 90 OFFCURVE",
"151 64 OFFCURVE",
"45 64 CURVE",
"45 0 LINE",
"310 0 LINE",
"310 1151 LINE SMOOTH",
"310 1214 OFFCURVE",
"485 1340 OFFCURVE",
"579 1340 CURVE SMOOTH",
"699 1340 OFFCURVE",
"835 1311 OFFCURVE",
"835 1082 CURVE SMOOTH",
"835 904 OFFCURVE",
"657 789 OFFCURVE",
"523 768 CURVE",
"523 718 LINE",
"713 714 OFFCURVE",
"893 622 OFFCURVE",
"893 356 CURVE SMOOTH",
"893 120 OFFCURVE",
"793 50 OFFCURVE",
"668 50 CURVE SMOOTH",
"559 50 OFFCURVE",
"493 107 OFFCURVE",
"478 252 CURVE",
"431 252 LINE",
"408 48 LINE",
"467 -1 OFFCURVE",
"558 -24 OFFCURVE",
"666 -24 CURVE SMOOTH",
"802 -24 OFFCURVE",
"1019 80 OFFCURVE",
"1019 384 CURVE SMOOTH",
"1019 650 OFFCURVE",
"764 753 OFFCURVE",
"634 753 CURVE"
);
}
);
width = 1094;
},
{
layerId = "72F22432-F665-4153-96BB-74D91BCC5F28";
paths = (
{
closed = 1;
nodes = (
"832 786 OFFCURVE",
"1007 912 OFFCURVE",
"1007 1094 CURVE SMOOTH",
"1007 1317 OFFCURVE",
"878 1422 OFFCURVE",
"662 1422 CURVE SMOOTH",
"535 1422 OFFCURVE",
"470 1393 OFFCURVE",
"351 1288 CURVE SMOOTH",
"310 1252 OFFCURVE",
"177 1156 OFFCURVE",
"177 1110 CURVE SMOOTH",
"177 152 LINE SMOOTH",
"177 90 OFFCURVE",
"136 64 OFFCURVE",
"35 64 CURVE",
"35 0 LINE",
"394 0 LINE",
"394 1151 LINE SMOOTH",
"394 1214 OFFCURVE",
"525 1323 OFFCURVE",
"560 1323 CURVE SMOOTH",
"674 1323 OFFCURVE",
"764 1159 OFFCURVE",
"764 1012 CURVE SMOOTH",
"764 835 OFFCURVE",
"688 789 OFFCURVE",
"561 768 CURVE",
"561 718 LINE",
"741 714 OFFCURVE",
"823 569 OFFCURVE",
"823 304 CURVE SMOOTH",
"823 137 OFFCURVE",
"781 50 OFFCURVE",
"734 50 CURVE SMOOTH",
"575 50 OFFCURVE",
"532 162 OFFCURVE",
"518 270 CURVE",
"455 270 LINE",
"433 31 LINE",
"507 -1 OFFCURVE",
"595 -24 OFFCURVE",
"714 -24 CURVE SMOOTH",
"861 -24 OFFCURVE",
"1085 98 OFFCURVE",
"1085 402 CURVE SMOOTH",
"1085 667 OFFCURVE",
"897 758 OFFCURVE",
"720 758 CURVE"
);
}
);
width = 1155;
}
);
leftMetricsKey = l;
rightMetricsKey = b;
unicode = 00DF;
},
{
glyphname = t;
lastChange = "2020-11-11 22:36:28 +0000";
layers = (
{
anchors = (
{
name = bottom;
position = "{266, 0}";
},
{
name = center;
position = "{266, 463}";
},
{
name = top;
position = "{243, 1109}";
},
{
name = topright;
position = "{552, 826}";
}
);
layerId = "14A1E899-FED4-4F52-86F4-A1F822586E10";
paths = (
{
closed = 1;
nodes = (
"407 -16 OFFCURVE",
"445 10 OFFCURVE",
"526 92 CURVE",
"494 134 LINE",
"445 90 OFFCURVE",
"411 62 OFFCURVE",
"373 62 CURVE SMOOTH",
"308 62 OFFCURVE",
"278 112 OFFCURVE",
"278 262 CURVE SMOOTH",
"278 761 LINE",
"534 761 LINE",
"552 826 LINE",
"278 826 LINE",
"278 1109 LINE",
"219 1109 LINE",
"205 933 OFFCURVE",
"163 839 OFFCURVE",
"43 826 CURVE",
"43 761 LINE",
"171 761 LINE",
"171 228 LINE SMOOTH",
"171 24 OFFCURVE",
"257 -16 OFFCURVE",
"335 -16 CURVE SMOOTH"
);
}
);
width = 597;
},
{
anchors = (
{
name = bottom;
position = "{356, 0}";
},
{
name = center;
position = "{352, 422}";
},
{
name = top;
position = "{337, 1130}";
},
{
name = topright;
position = "{649, 825}";
}
);
layerId = "72F22432-F665-4153-96BB-74D91BCC5F28";
paths = (
{
closed = 1;
nodes = (
"493 -16 OFFCURVE",
"555 10 OFFCURVE",
"652 92 CURVE",
"622 134 LINE",
"555 90 OFFCURVE",
"508 80 OFFCURVE",
"471 80 CURVE SMOOTH",
"402 80 OFFCURVE",
"381 127 OFFCURVE",
"381 262 CURVE SMOOTH",
"381 750 LINE",
"650 750 LINE",
"667 826 LINE",
"381 826 LINE",
"381 1129 LINE",
"260 1129 LINE",
"226 981 OFFCURVE",
"157 866 OFFCURVE",
"42 825 CURVE",
"42 749 LINE",
"154 749 LINE",
"154 228 LINE SMOOTH",
"154 24 OFFCURVE",
"316 -16 OFFCURVE",
"425 -16 CURVE SMOOTH"
);
}
);
width = 692;
}
);
leftKerningGroup = t;
rightKerningGroup = t;
unicode = 0074;
},
{
glyphname = tbar;
lastChange = "2020-10-13 20:48:00 +0000";
layers = (
{
components = (
{
name = t;
}
);
layerId = "14A1E899-FED4-4F52-86F4-A1F822586E10";
paths = (
{
closed = 1;
nodes = (
"522 432 LINE",
"522 504 LINE",
"30 504 LINE",
"30 432 LINE"
);
}
);
width = 547;
},
{
components = (
{
name = t;
}
);
layerId = "72F22432-F665-4153-96BB-74D91BCC5F28";
paths = (
{
closed = 1;
nodes = (
"628 411 LINE",
"628 493 LINE",
"26 493 LINE",
"26 411 LINE"
);
}
);
width = 673;
}
);
unicode = 0167;
},
{
glyphname = u;
lastChange = "2020-11-11 21:57:34 +0000";
layers = (
{
anchors = (
{
name = bottom;
position = "{504, 0}";
},
{
name = ogonek;
position = "{927, 0}";
},
{
name = top;
position = "{474, 826}";
},
{
name = topright;
position = "{768, 826}";
}
);
layerId = "14A1E899-FED4-4F52-86F4-A1F822586E10";
paths = (
{
closed = 1;
nodes = (
"493 -15 OFFCURVE",
"611 69 OFFCURVE",
"728 153 CURVE",
"716 232 LINE",
"601 141 OFFCURVE",
"501 67 OFFCURVE",
"424 67 CURVE SMOOTH",
"350 67 OFFCURVE",
"263 99 OFFCURVE",
"263 241 CURVE SMOOTH",
"263 826 LINE",
"25 826 LINE",
"25 762 LINE",
"135 762 OFFCURVE",
"153 757 OFFCURVE",
"153 714 CURVE SMOOTH",
"153 237 LINE SMOOTH",
"153 29 OFFCURVE",
"274 -15 OFFCURVE",
"391 -15 CURVE SMOOTH"
);
},
{
closed = 1;
nodes = (
"927 0 LINE",
"927 53 LINE",
"837 53 OFFCURVE",
"824 61 OFFCURVE",
"824 110 CURVE SMOOTH",
"824 826 LINE",
"587 826 LINE",
"587 762 LINE",
"697 762 OFFCURVE",
"715 757 OFFCURVE",
"715 714 CURVE SMOOTH",
"715 4 LINE",
"748 -26 LINE"
);
}
);
width = 972;
},
{
anchors = (
{
name = bottom;
position = "{524, 0}";
},
{
name = ogonek;
position = "{1033, 0}";
},
{
name = top;
position = "{495, 826}";
},
{
name = topright;
position = "{774, 826}";
}
);
layerId = "72F22432-F665-4153-96BB-74D91BCC5F28";
paths = (
{
closed = 1;
nodes = (
"521 -15 OFFCURVE",
"605 41 OFFCURVE",
"719 118 CURVE",
"707 197 LINE",
"598 115 OFFCURVE",
"532 67 OFFCURVE",
"459 67 CURVE SMOOTH",
"379 67 OFFCURVE",
"366 115 OFFCURVE",
"366 241 CURVE SMOOTH",
"366 826 LINE",
"15 826 LINE",
"15 762 LINE",
"127 762 OFFCURVE",
"137 730 OFFCURVE",
"137 662 CURVE SMOOTH",
"137 272 LINE SMOOTH",
"137 88 OFFCURVE",
"212 -15 OFFCURVE",
"425 -15 CURVE SMOOTH"
);
},
{
closed = 1;
nodes = (
"1033 0 LINE",
"1033 71 LINE",
"941 71 OFFCURVE",
"935 83 OFFCURVE",
"935 128 CURVE SMOOTH",
"935 826 LINE",
"585 826 LINE",
"585 762 LINE",
"689 762 OFFCURVE",
"706 755 OFFCURVE",
"706 679 CURVE SMOOTH",
"706 11 LINE",
"751 -24 LINE"
);
}
);
width = 1078;
}
);
leftKerningGroup = u;
leftMetricsKey = "=i-20";
rightKerningGroup = i;
rightMetricsKey = i;
unicode = 0075;
},
{
glyphname = uhorn;
lastChange = "2020-11-11 19:25:43 +0000";
layers = (
{
anchors = (
{
name = bottom;
position = "{447, 0}";
},
{
name = top;
position = "{447, 826}";
}
);
components = (
{
name = horncomb;
transform = "{1, 0, 0, 1, 657, -102}";
}
);
layerId = "14A1E899-FED4-4F52-86F4-A1F822586E10";
paths = (
{
closed = 1;
nodes = (
"493 -15 OFFCURVE",
"611 69 OFFCURVE",
"728 153 CURVE",
"716 232 LINE",
"601 141 OFFCURVE",
"501 67 OFFCURVE",
"424 67 CURVE SMOOTH",
"350 67 OFFCURVE",
"263 99 OFFCURVE",
"263 241 CURVE SMOOTH",
"263 826 LINE",
"25 826 LINE",
"25 762 LINE",
"135 762 OFFCURVE",
"153 757 OFFCURVE",
"153 714 CURVE SMOOTH",
"153 237 LINE SMOOTH",
"153 29 OFFCURVE",
"274 -15 OFFCURVE",
"391 -15 CURVE SMOOTH"
);
},
{
closed = 1;
nodes = (
"927 0 LINE",
"927 53 LINE",
"837 53 OFFCURVE",
"824 61 OFFCURVE",
"824 110 CURVE SMOOTH",
"824 826 LINE",
"587 826 LINE",
"587 762 LINE",
"697 762 OFFCURVE",
"715 757 OFFCURVE",
"715 714 CURVE SMOOTH",
"715 -6 LINE",
"748 -26 LINE"
);
}
);
width = 1012;
},
{
anchors = (
{
name = bottom;
position = "{577, 0}";
},
{
name = top;
position = "{577, 826}";
}
);
components = (
{
name = horncomb;
transform = "{1, 0, 0, 1, 776, -102}";
}
);
layerId = "72F22432-F665-4153-96BB-74D91BCC5F28";
paths = (
{
closed = 1;
nodes = (
"521 -15 OFFCURVE",
"605 41 OFFCURVE",
"719 118 CURVE",
"707 197 LINE",
"598 115 OFFCURVE",
"539 67 OFFCURVE",
"466 67 CURVE SMOOTH",
"386 67 OFFCURVE",
"366 115 OFFCURVE",
"366 241 CURVE SMOOTH",
"366 826 LINE",
"15 826 LINE",
"15 762 LINE",
"127 762 OFFCURVE",
"137 730 OFFCURVE",
"137 662 CURVE SMOOTH",
"137 272 LINE SMOOTH",
"137 88 OFFCURVE",
"212 -15 OFFCURVE",
"425 -15 CURVE SMOOTH"
);
},
{
closed = 1;
nodes = (
"1033 0 LINE",
"1033 71 LINE",
"941 71 OFFCURVE",
"935 83 OFFCURVE",
"935 128 CURVE SMOOTH",
"935 826 LINE",
"585 826 LINE",
"585 762 LINE",
"689 762 OFFCURVE",
"706 755 OFFCURVE",
"706 679 CURVE SMOOTH",
"706 -24 LINE",
"705 -28 LINE"
);
}
);
width = 1123;
}
);
leftKerningGroup = u;
leftMetricsKey = u;
rightKerningGroup = u;
rightMetricsKey = "=u-80";
unicode = 01B0;
},
{
glyphname = v;
lastChange = "2020-11-11 18:49:22 +0000";
layers = (
{
anchors = (
{
name = bottom;
position = "{468, 0}";
},
{
name = top;
position = "{527, 826}";
}
);
layerId = "14A1E899-FED4-4F52-86F4-A1F822586E10";
paths = (
{
closed = 1;
nodes = (
"510 -10 LINE",
"800 698 LINE SMOOTH",
"824 757 OFFCURVE",
"832 762 OFFCURVE",
"926 762 CURVE",
"926 826 LINE",
"605 826 LINE",
"605 762 LINE",
"709 762 OFFCURVE",
"730 760 OFFCURVE",
"730 741 CURVE SMOOTH",
"730 728 OFFCURVE",
"727 720 OFFCURVE",
"720 703 CURVE SMOOTH",
"503 165 LINE",
"281 709 LINE SMOOTH",
"275 723 OFFCURVE",
"273 731 OFFCURVE",
"273 740 CURVE SMOOTH",
"273 759 OFFCURVE",
"302 762 OFFCURVE",
"396 762 CURVE",
"396 826 LINE",
"30 826 LINE",
"30 762 LINE",
"104 762 OFFCURVE",
"143 755 OFFCURVE",
"167 698 CURVE SMOOTH",
"462 -10 LINE"
);
}
);
width = 956;
},
{
anchors = (
{
name = bottom;
position = "{502, 0}";
},
{
name = top;
position = "{558, 826}";
}
);
layerId = "72F22432-F665-4153-96BB-74D91BCC5F28";
paths = (
{
closed = 1;
nodes = (
"536 -10 LINE",
"830 698 LINE SMOOTH",
"855 757 OFFCURVE",
"911 762 OFFCURVE",
"964 762 CURVE",
"964 826 LINE",
"614 826 LINE",
"614 762 LINE",
"646 762 OFFCURVE",
"725 762 OFFCURVE",
"725 725 CURVE SMOOTH",
"725 713 OFFCURVE",
"714 678 OFFCURVE",
"711 670 CURVE SMOOTH",
"569 311 LINE",
"421 679 LINE SMOOTH",
"410 707 OFFCURVE",
"408 719 OFFCURVE",
"408 733 CURVE SMOOTH",
"408 762 OFFCURVE",
"458 762 OFFCURVE",
"519 762 CURVE",
"519 826 LINE",
"25 826 LINE",
"25 762 LINE",
"100 762 OFFCURVE",
"131 752 OFFCURVE",
"155 698 CURVE SMOOTH",
"471 -10 LINE"
);
}
);
width = 989;
}
);
leftKerningGroup = v;
rightKerningGroup = v;
unicode = 0076;
},
{
glyphname = w;
lastChange = "2020-11-11 19:09:37 +0000";
layers = (
{
anchors = (
{
name = bottom;
position = "{697, 0}";
},
{
name = top;
position = "{718, 826}";
}
);
layerId = "14A1E899-FED4-4F52-86F4-A1F822586E10";
paths = (
{
closed = 1;
nodes = (
"966 -10 LINE",
"1236 698 LINE SMOOTH",
"1257 752 OFFCURVE",
"1261 762 OFFCURVE",
"1361 762 CURVE",
"1361 826 LINE",
"1040 826 LINE",
"1040 762 LINE",
"1144 762 OFFCURVE",
"1165 761 OFFCURVE",
"1165 743 CURVE SMOOTH",
"1165 731 OFFCURVE",
"1162 722 OFFCURVE",
"1155 703 CURVE SMOOTH",
"958 169 LINE",
"756 709 LINE SMOOTH",
"751 722 OFFCURVE",
"748 731 OFFCURVE",
"748 740 CURVE SMOOTH",
"748 759 OFFCURVE",
"777 762 OFFCURVE",
"871 762 CURVE",
"871 826 LINE",
"511 826 LINE",
"511 762 LINE",
"585 762 OFFCURVE",
"618 755 OFFCURVE",
"640 698 CURVE SMOOTH",
"915 -10 LINE"
);
},
{
closed = 1;
nodes = (
"485 -10 LINE",
"755 698 LINE",
"674 703 LINE",
"477 169 LINE",
"275 709 LINE SMOOTH",
"270 722 OFFCURVE",
"267 731 OFFCURVE",
"267 740 CURVE SMOOTH",
"267 759 OFFCURVE",
"296 762 OFFCURVE",
"390 762 CURVE",
"390 826 LINE",
"30 826 LINE",
"30 762 LINE",
"104 762 OFFCURVE",
"137 755 OFFCURVE",
"159 698 CURVE SMOOTH",
"434 -10 LINE"
);
}
);
width = 1391;
},
{
anchors = (
{
name = bottom;
position = "{694, 0}";
},
{
name = top;
position = "{714, 826}";
}
);
layerId = "72F22432-F665-4153-96BB-74D91BCC5F28";
paths = (
{
closed = 1;
nodes = (
"967 8 LINE",
"1212 698 LINE SMOOTH",
"1233 757 OFFCURVE",
"1293 762 OFFCURVE",
"1347 762 CURVE",
"1347 826 LINE",
"1032 826 LINE",
"1032 762 LINE",
"1076 762 OFFCURVE",
"1119 762 OFFCURVE",
"1119 712 CURVE SMOOTH",
"1119 686 OFFCURVE",
"1116 673 OFFCURVE",
"1106 645 CURVE SMOOTH",
"1008 361 LINE",
"905 658 LINE SMOOTH",
"901 670 OFFCURVE",
"898 695 OFFCURVE",
"898 704 CURVE SMOOTH",
"898 756 OFFCURVE",
"937 762 OFFCURVE",
"976 762 CURVE",
"976 826 LINE",
"552 826 LINE",
"552 762 LINE",
"612 762 OFFCURVE",
"625 755 OFFCURVE",
"646 698 CURVE SMOOTH",
"897 8 LINE"
);
},
{
closed = 1;
nodes = (
"476 8 LINE",
"721 698 LINE",
"646 710 LINE",
"518 361 LINE",
"414 658 LINE SMOOTH",
"410 670 OFFCURVE",
"407 692 OFFCURVE",
"407 704 CURVE SMOOTH",
"407 756 OFFCURVE",
"444 762 OFFCURVE",
"494 762 CURVE",
"494 826 LINE",
"25 826 LINE",
"25 762 LINE",
"95 762 OFFCURVE",
"134 755 OFFCURVE",
"155 698 CURVE SMOOTH",
"406 8 LINE"
);
}
);
width = 1372;
}
);
leftKerningGroup = v;
leftMetricsKey = v;
rightKerningGroup = v;
rightMetricsKey = v;
unicode = 0077;
},
{
glyphname = x;
lastChange = "2020-11-11 22:00:33 +0000";
layers = (
{
anchors = (
{
name = bottom;
position = "{519, 0}";
},
{
name = top;
position = "{519, 826}";
}
);
layerId = "14A1E899-FED4-4F52-86F4-A1F822586E10";
paths = (
{
closed = 1;
nodes = (
"970 0 LINE",
"970 64 LINE",
"887 64 OFFCURVE",
"877 69 OFFCURVE",
"841 110 CURVE SMOOTH",
"320 706 LINE SMOOTH",
"307 721 OFFCURVE",
"298 734 OFFCURVE",
"298 744 CURVE SMOOTH",
"298 761 OFFCURVE",
"332 762 OFFCURVE",
"420 762 CURVE",
"420 826 LINE",
"42 826 LINE",
"42 762 LINE",
"118 762 OFFCURVE",
"131 762 OFFCURVE",
"168 719 CURVE SMOOTH",
"688 127 LINE SMOOTH",
"706 107 OFFCURVE",
"717 92 OFFCURVE",
"717 82 CURVE SMOOTH",
"717 64 OFFCURVE",
"681 64 OFFCURVE",
"595 64 CURVE",
"595 0 LINE"
);
},
{
closed = 1;
nodes = (
"804 698 LINE SMOOTH",
"840 738 OFFCURVE",
"862 762 OFFCURVE",
"972 762 CURVE",
"972 826 LINE",
"599 826 LINE",
"599 762 LINE",
"691 762 OFFCURVE",
"731 759 OFFCURVE",
"731 741 CURVE SMOOTH",
"731 729 OFFCURVE",
"729 721 OFFCURVE",
"716 706 CURVE SMOOTH",
"480 445 LINE",
"519 380 LINE"
);
},
{
closed = 1;
nodes = (
"198 128 LINE SMOOTH",
"162 88 OFFCURVE",
"140 64 OFFCURVE",
"30 64 CURVE",
"30 0 LINE",
"403 0 LINE",
"403 64 LINE",
"311 64 OFFCURVE",
"263 65 OFFCURVE",
"263 83 CURVE SMOOTH",
"263 93 OFFCURVE",
"273 105 OFFCURVE",
"286 120 CURVE SMOOTH",
"522 381 LINE",
"483 446 LINE"
);
}
);
width = 1002;
},
{
anchors = (
{
name = bottom;
position = "{547, 0}";
},
{
name = top;
position = "{547, 826}";
}
);
layerId = "72F22432-F665-4153-96BB-74D91BCC5F28";
paths = (
{
closed = 1;
nodes = (
"1070 0 LINE",
"1070 64 LINE",
"997 64 OFFCURVE",
"963 99 OFFCURVE",
"927 141 CURVE SMOOTH",
"447 706 LINE SMOOTH",
"434 721 OFFCURVE",
"428 730 OFFCURVE",
"428 741 CURVE SMOOTH",
"428 758 OFFCURVE",
"456 762 OFFCURVE",
"560 762 CURVE",
"560 826 LINE",
"30 826 LINE",
"30 762 LINE",
"100 762 OFFCURVE",
"139 726 OFFCURVE",
"176 683 CURVE SMOOTH",
"663 121 LINE SMOOTH",
"677 104 OFFCURVE",
"683 91 OFFCURVE",
"683 82 CURVE SMOOTH",
"683 68 OFFCURVE",
"662 64 OFFCURVE",
"551 64 CURVE",
"551 0 LINE"
);
},
{
closed = 1;
nodes = (
"885 698 LINE SMOOTH",
"922 737 OFFCURVE",
"947 762 OFFCURVE",
"1040 762 CURVE",
"1040 826 LINE",
"662 826 LINE",
"662 762 LINE",
"770 762 OFFCURVE",
"792 758 OFFCURVE",
"792 744 CURVE SMOOTH",
"792 732 OFFCURVE",
"786 719 OFFCURVE",
"773 706 CURVE SMOOTH",
"519 445 LINE",
"585 380 LINE"
);
},
{
closed = 1;
nodes = (
"180 128 LINE SMOOTH",
"143 89 OFFCURVE",
"118 64 OFFCURVE",
"25 64 CURVE",
"25 0 LINE",
"403 0 LINE",
"403 64 LINE",
"286 64 OFFCURVE",
"271 68 OFFCURVE",
"271 81 CURVE SMOOTH",
"271 92 OFFCURVE",
"278 106 OFFCURVE",
"292 120 CURVE SMOOTH",
"546 381 LINE",
"480 446 LINE"
);
}
);
width = 1095;
}
);
leftKerningGroup = x;
leftMetricsKey = v;
rightKerningGroup = x;
rightMetricsKey = v;
unicode = 0078;
},
{
glyphname = y;
lastChange = "2020-11-11 21:52:33 +0000";
layers = (
{
anchors = (
{
name = bottom;
position = "{644, 0}";
},
{
name = top;
position = "{468, 826}";
}
);
layerId = "14A1E899-FED4-4F52-86F4-A1F822586E10";
paths = (
{
closed = 1;
nodes = (
"497 -10 LINE",
"778 698 LINE SMOOTH",
"801 757 OFFCURVE",
"810 762 OFFCURVE",
"904 762 CURVE",
"904 826 LINE",
"577 826 LINE",
"577 762 LINE",
"681 762 OFFCURVE",
"701 761 OFFCURVE",
"701 742 CURVE SMOOTH",
"701 729 OFFCURVE",
"700 724 OFFCURVE",
"692 703 CURVE SMOOTH",
"485 173 LINE",
"275 709 LINE SMOOTH",
"270 722 OFFCURVE",
"267 730 OFFCURVE",
"267 740 CURVE SMOOTH",
"267 759 OFFCURVE",
"296 762 OFFCURVE",
"390 762 CURVE",
"390 826 LINE",
"30 826 LINE",
"30 762 LINE",
"98 762 OFFCURVE",
"138 755 OFFCURVE",
"161 698 CURVE SMOOTH",
"446 -10 LINE"
);
},
{
closed = 1;
nodes = (
"310 -438 OFFCURVE",
"358 -351 OFFCURVE",
"419 -201 CURVE SMOOTH",
"497 -10 LINE",
"434 55 LINE",
"330 -207 LINE SMOOTH",
"283 -326 OFFCURVE",
"249 -363 OFFCURVE",
"216 -363 CURVE SMOOTH",
"183 -363 OFFCURVE",
"161 -341 OFFCURVE",
"158 -300 CURVE",
"75 -395 LINE",
"93 -419 OFFCURVE",
"142 -438 OFFCURVE",
"193 -438 CURVE"
);
},
{
closed = 1;
nodes = (
"167 -351 LINE",
"200 -231 LINE",
"75 -250 LINE",
"75 -395 LINE"
);
}
);
width = 934;
},
{
anchors = (
{
name = bottom;
position = "{698, 0}";
},
{
name = top;
position = "{530, 826}";
}
);
layerId = "72F22432-F665-4153-96BB-74D91BCC5F28";
paths = (
{
closed = 1;
nodes = (
"583 8 LINE",
"871 698 LINE SMOOTH",
"895 755 OFFCURVE",
"948 762 OFFCURVE",
"1002 762 CURVE",
"1002 826 LINE",
"650 826 LINE",
"650 762 LINE",
"675 762 OFFCURVE",
"764 759 OFFCURVE",
"764 725 CURVE SMOOTH",
"764 716 OFFCURVE",
"762 703 OFFCURVE",
"758 694 CURVE SMOOTH",
"602 314 LINE",
"442 679 LINE SMOOTH",
"437 691 OFFCURVE",
"434 710 OFFCURVE",
"434 721 CURVE SMOOTH",
"434 755 OFFCURVE",
"489 762 OFFCURVE",
"540 762 CURVE",
"540 826 LINE",
"25 826 LINE",
"25 762 LINE",
"96 762 OFFCURVE",
"129 755 OFFCURVE",
"155 698 CURVE SMOOTH",
"473 8 LINE"
);
},
{
closed = 1;
nodes = (
"382 -428 OFFCURVE",
"437 -351 OFFCURVE",
"491 -219 CURVE SMOOTH",
"583 8 LINE",
"496 65 LINE",
"388 -204 LINE SMOOTH",
"339 -327 OFFCURVE",
"316 -345 OFFCURVE",
"269 -345 CURVE SMOOTH",
"237 -345 OFFCURVE",
"227 -296 OFFCURVE",
"225 -255 CURVE",
"86 -383 LINE",
"128 -410 OFFCURVE",
"194 -428 OFFCURVE",
"242 -428 CURVE"
);
},
{
closed = 1;
nodes = (
"250 -351 LINE",
"287 -194 LINE",
"86 -213 LINE",
"86 -383 LINE"
);
}
);
width = 1027;
}
);
leftKerningGroup = v;
leftMetricsKey = v;
rightKerningGroup = v;
rightMetricsKey = v;
unicode = 0079;
},
{
glyphname = z;
lastChange = "2020-11-11 19:25:43 +0000";
layers = (
{
anchors = (
{
name = bottom;
position = "{384, 0}";
},
{
name = center;
position = "{384, 463}";
},
{
name = top;
position = "{384, 826}";
}
);
layerId = "14A1E899-FED4-4F52-86F4-A1F822586E10";
paths = (
{
closed = 1;
nodes = (
"646 0 LINE",
"673 286 LINE",
"613 286 LINE",
"584 131 OFFCURVE",
"566 74 OFFCURVE",
"480 74 CURVE SMOOTH",
"164 74 LINE",
"675 760 LINE",
"675 826 LINE",
"91 826 LINE",
"64 538 LINE",
"124 538 LINE",
"153 666 OFFCURVE",
"175 752 OFFCURVE",
"249 752 CURVE SMOOTH",
"552 752 LINE",
"45 66 LINE",
"45 0 LINE"
);
}
);
width = 720;
},
{
anchors = (
{
name = bottom;
position = "{411, 0}";
},
{
name = center;
position = "{411, 463}";
},
{
name = top;
position = "{411, 826}";
}
);
layerId = "72F22432-F665-4153-96BB-74D91BCC5F28";
paths = (
{
closed = 1;
nodes = (
"773 0 LINE",
"798 288 LINE",
"695 288 LINE",
"667 133 OFFCURVE",
"647 74 OFFCURVE",
"590 74 CURVE SMOOTH",
"273 74 LINE",
"769 760 LINE",
"769 826 LINE",
"61 826 LINE",
"35 538 LINE",
"138 538 LINE",
"166 666 OFFCURVE",
"186 752 OFFCURVE",
"231 752 CURVE SMOOTH",
"527 752 LINE",
"35 66 LINE",
"35 0 LINE"
);
}
);
width = 843;
}
);
leftKerningGroup = z;
leftMetricsKey = i;
rightKerningGroup = z;
rightMetricsKey = i;
unicode = 007A;
},
{
glyphname = f_l;
lastChange = "2020-11-11 22:30:53 +0000";
layers = (
{
anchors = (
{
name = bottom_1;
position = "{274, 0}";
},
{
name = bottom_2;
position = "{823, 0}";
},
{
name = caret_1;
position = "{548.5, 0}";
},
{
name = top_1;
position = "{274, 1500}";
},
{
name = top_2;
position = "{823, 1500}";
}
);
layerId = "14A1E899-FED4-4F52-86F4-A1F822586E10";
paths = (
{
closed = 1;
nodes = (
"476 0 LINE",
"476 64 LINE",
"366 64 OFFCURVE",
"338 65 OFFCURVE",
"338 122 CURVE SMOOTH",
"338 756 LINE",
"585 756 LINE",
"600 826 LINE",
"338 826 LINE",
"338 1021 LINE SMOOTH",
"338 1392 OFFCURVE",
"482 1447 OFFCURVE",
"606 1447 CURVE SMOOTH",
"721 1447 OFFCURVE",
"768 1401 OFFCURVE",
"800 1354 CURVE",
"906 1440 LINE",
"872 1478 OFFCURVE",
"769 1517 OFFCURVE",
"627 1517 CURVE SMOOTH",
"420 1517 OFFCURVE",
"228 1415 OFFCURVE",
"228 1031 CURVE SMOOTH",
"228 826 LINE",
"60 826 LINE",
"60 756 LINE",
"228 756 LINE",
"228 122 LINE SMOOTH",
"228 65 OFFCURVE",
"200 64 OFFCURVE",
"90 64 CURVE",
"90 0 LINE"
);
},
{
closed = 1;
nodes = (
"1052 0 LINE",
"1052 64 LINE",
"946 64 OFFCURVE",
"906 65 OFFCURVE",
"906 122 CURVE SMOOTH",
"906 1440 LINE",
"800 1354 LINE",
"800 122 LINE SMOOTH",
"800 65 OFFCURVE",
"757 64 OFFCURVE",
"651 64 CURVE",
"651 0 LINE"
);
}
);
width = 1097;
},
{
anchors = (
{
name = bottom_1;
position = "{310, 0}";
},
{
name = bottom_2;
position = "{931, 0}";
},
{
name = caret_1;
position = "{620.5, 0}";
},
{
name = top_1;
position = "{310, 1500}";
},
{
name = top_2;
position = "{931, 1500}";
}
);
layerId = "72F22432-F665-4153-96BB-74D91BCC5F28";
paths = (
{
closed = 1;
nodes = (
"549 0 LINE",
"549 64 LINE",
"445 64 OFFCURVE",
"436 91 OFFCURVE",
"436 157 CURVE SMOOTH",
"436 740 LINE",
"647 740 LINE",
"667 826 LINE",
"436 826 LINE",
"436 1076 LINE SMOOTH",
"436 1397 OFFCURVE",
"553 1430 OFFCURVE",
"666 1430 CURVE SMOOTH",
"755 1430 OFFCURVE",
"825 1383 OFFCURVE",
"832 1322 CURVE",
"1057 1410 LINE",
"1015 1469 OFFCURVE",
"830 1517 OFFCURVE",
"687 1517 CURVE SMOOTH",
"523 1517 OFFCURVE",
"219 1460 OFFCURVE",
"219 1041 CURVE SMOOTH",
"219 826 LINE",
"54 826 LINE",
"54 740 LINE",
"219 740 LINE",
"219 157 LINE SMOOTH",
"219 91 OFFCURVE",
"210 64 OFFCURVE",
"106 64 CURVE",
"106 0 LINE"
);
},
{
closed = 1;
nodes = (
"1196 0 LINE",
"1196 64 LINE",
"1096 64 OFFCURVE",
"1057 109 OFFCURVE",
"1057 175 CURVE SMOOTH",
"1057 1410 LINE",
"832 1322 LINE",
"832 175 LINE SMOOTH",
"832 109 OFFCURVE",
"790 64 OFFCURVE",
"690 64 CURVE",
"690 0 LINE"
);
}
);
width = 1241;
}
);
leftKerningGroup = f;
leftMetricsKey = f;
rightKerningGroup = l;
rightMetricsKey = l;
},
{
glyphname = ordmasculine;
lastChange = "2020-11-11 18:49:25 +0000";
layers = (
{
layerId = "14A1E899-FED4-4F52-86F4-A1F822586E10";
paths = (
{
closed = 1;
nodes = (
"380 1002 OFFCURVE",
"490 1072 OFFCURVE",
"490 1214 CURVE SMOOTH",
"490 1358 OFFCURVE",
"382 1422 OFFCURVE",
"282 1422 CURVE SMOOTH",
"178 1422 OFFCURVE",
"74 1348 OFFCURVE",
"74 1214 CURVE SMOOTH",
"74 1076 OFFCURVE",
"190 1002 OFFCURVE",
"282 1002 CURVE SMOOTH"
);
},
{
closed = 1;
nodes = (
"216 1054 OFFCURVE",
"164 1092 OFFCURVE",
"164 1220 CURVE SMOOTH",
"164 1318 OFFCURVE",
"216 1370 OFFCURVE",
"282 1370 CURVE SMOOTH",
"348 1370 OFFCURVE",
"398 1320 OFFCURVE",
"398 1202 CURVE SMOOTH",
"398 1104 OFFCURVE",
"348 1054 OFFCURVE",
"282 1054 CURVE SMOOTH"
);
}
);
width = 564;
},
{
layerId = "72F22432-F665-4153-96BB-74D91BCC5F28";
paths = (
{
closed = 1;
nodes = (
"410 1002 OFFCURVE",
"515 1072 OFFCURVE",
"515 1214 CURVE SMOOTH",
"515 1358 OFFCURVE",
"412 1422 OFFCURVE",
"298 1422 CURVE SMOOTH",
"181 1422 OFFCURVE",
"81 1348 OFFCURVE",
"81 1214 CURVE SMOOTH",
"81 1076 OFFCURVE",
"192 1002 OFFCURVE",
"298 1002 CURVE SMOOTH"
);
},
{
closed = 1;
nodes = (
"245 1079 OFFCURVE",
"225 1123 OFFCURVE",
"225 1220 CURVE SMOOTH",
"225 1287 OFFCURVE",
"245 1345 OFFCURVE",
"298 1345 CURVE SMOOTH",
"351 1345 OFFCURVE",
"369 1289 OFFCURVE",
"369 1202 CURVE SMOOTH",
"369 1135 OFFCURVE",
"351 1079 OFFCURVE",
"298 1079 CURVE SMOOTH"
);
}
);
width = 596;
}
);
leftMetricsKey = T;
rightMetricsKey = T;
unicode = 00BA;
},
{
glyphname = zero;
lastChange = "2020-10-16 00:57:24 +0000";
layers = (
{
layerId = "14A1E899-FED4-4F52-86F4-A1F822586E10";
paths = (
{
closed = 1;
nodes = (
"874 -24 OFFCURVE",
"1062 272 OFFCURVE",
"1062 698 CURVE SMOOTH",
"1062 1124 OFFCURVE",
"874 1422 OFFCURVE",
"580 1422 CURVE SMOOTH",
"286 1422 OFFCURVE",
"100 1124 OFFCURVE",
"100 698 CURVE SMOOTH",
"100 272 OFFCURVE",
"286 -24 OFFCURVE",
"580 -24 CURVE SMOOTH"
);
},
{
closed = 1;
nodes = (
"344 36 OFFCURVE",
"232 366 OFFCURVE",
"232 698 CURVE SMOOTH",
"232 1032 OFFCURVE",
"344 1362 OFFCURVE",
"580 1362 CURVE SMOOTH",
"816 1362 OFFCURVE",
"930 1032 OFFCURVE",
"930 698 CURVE SMOOTH",
"930 364 OFFCURVE",
"816 36 OFFCURVE",
"580 36 CURVE SMOOTH"
);
}
);
width = 1162;
},
{
layerId = "72F22432-F665-4153-96BB-74D91BCC5F28";
paths = (
{
closed = 1;
nodes = (
"954 -24 OFFCURVE",
"1152 272 OFFCURVE",
"1152 698 CURVE SMOOTH",
"1152 1124 OFFCURVE",
"954 1422 OFFCURVE",
"620 1422 CURVE SMOOTH",
"286 1422 OFFCURVE",
"90 1124 OFFCURVE",
"90 698 CURVE SMOOTH",
"90 272 OFFCURVE",
"286 -24 OFFCURVE",
"620 -24 CURVE SMOOTH"
);
},
{
closed = 1;
nodes = (
"444 46 OFFCURVE",
"392 434 OFFCURVE",
"392 698 CURVE SMOOTH",
"392 962 OFFCURVE",
"444 1352 OFFCURVE",
"620 1352 CURVE SMOOTH",
"796 1352 OFFCURVE",
"848 962 OFFCURVE",
"848 698 CURVE SMOOTH",
"848 434 OFFCURVE",
"796 46 OFFCURVE",
"620 46 CURVE SMOOTH"
);
}
);
width = 1242;
}
);
unicode = 0030;
},
{
glyphname = zero.osf;
lastChange = "2020-10-16 01:16:23 +0000";
layers = (
{
layerId = "14A1E899-FED4-4F52-86F4-A1F822586E10";
paths = (
{
closed = 1;
nodes = (
"834 -24 OFFCURVE",
"1022 183 OFFCURVE",
"1022 459 CURVE SMOOTH",
"1022 735 OFFCURVE",
"834 942 OFFCURVE",
"560 942 CURVE SMOOTH",
"286 942 OFFCURVE",
"100 735 OFFCURVE",
"100 459 CURVE SMOOTH",
"100 183 OFFCURVE",
"286 -24 OFFCURVE",
"560 -24 CURVE SMOOTH"
);
},
{
closed = 1;
nodes = (
"354 36 OFFCURVE",
"232 225 OFFCURVE",
"232 459 CURVE SMOOTH",
"232 693 OFFCURVE",
"354 882 OFFCURVE",
"560 882 CURVE SMOOTH",
"766 882 OFFCURVE",
"888 693 OFFCURVE",
"888 459 CURVE SMOOTH",
"888 225 OFFCURVE",
"766 36 OFFCURVE",
"560 36 CURVE SMOOTH"
);
}
);
width = 1122;
},
{
layerId = "72F22432-F665-4153-96BB-74D91BCC5F28";
paths = (
{
closed = 1;
nodes = (
"894 -24 OFFCURVE",
"1092 153 OFFCURVE",
"1092 459 CURVE SMOOTH",
"1092 765 OFFCURVE",
"894 942 OFFCURVE",
"590 942 CURVE SMOOTH",
"286 942 OFFCURVE",
"90 765 OFFCURVE",
"90 459 CURVE SMOOTH",
"90 153 OFFCURVE",
"286 -24 OFFCURVE",
"590 -24 CURVE SMOOTH"
);
},
{
closed = 1;
nodes = (
"444 46 OFFCURVE",
"382 235 OFFCURVE",
"382 459 CURVE SMOOTH",
"382 693 OFFCURVE",
"444 872 OFFCURVE",
"590 872 CURVE SMOOTH",
"736 872 OFFCURVE",
"798 693 OFFCURVE",
"798 459 CURVE SMOOTH",
"798 235 OFFCURVE",
"736 46 OFFCURVE",
"590 46 CURVE SMOOTH"
);
}
);
width = 1182;
}
);
leftMetricsKey = zero;
rightMetricsKey = zero;
},
{
glyphname = one;
lastChange = "2020-10-16 00:41:01 +0000";
layers = (
{
layerId = "14A1E899-FED4-4F52-86F4-A1F822586E10";
paths = (
{
closed = 1;
nodes = (
"514 0 LINE",
"514 64 LINE",
"392 64 OFFCURVE",
"362 69 OFFCURVE",
"362 132 CURVE SMOOTH",
"362 1400 LINE",
"302 1400 LINE",
"258 1316 OFFCURVE",
"200 1280 OFFCURVE",
"80 1280 CURVE",
"80 1220 LINE",
"246 1220 LINE",
"246 132 LINE SMOOTH",
"246 70 OFFCURVE",
"216 64 OFFCURVE",
"94 64 CURVE",
"94 0 LINE"
);
}
);
width = 594;
},
{
layerId = "72F22432-F665-4153-96BB-74D91BCC5F28";
paths = (
{
closed = 1;
nodes = (
"694 0 LINE",
"694 64 LINE",
"572 64 OFFCURVE",
"542 72 OFFCURVE",
"542 152 CURVE SMOOTH",
"542 1400 LINE",
"452 1400 LINE",
"406 1312 OFFCURVE",
"250 1250 OFFCURVE",
"80 1250 CURVE",
"80 1174 LINE",
"246 1174 LINE",
"246 152 LINE SMOOTH",
"246 90 OFFCURVE",
"216 64 OFFCURVE",
"94 64 CURVE",
"94 0 LINE"
);
}
);
width = 774;
}
);
unicode = 0031;
},
{
glyphname = one.osf;
lastChange = "2020-10-16 00:41:05 +0000";
layers = (
{
layerId = "14A1E899-FED4-4F52-86F4-A1F822586E10";
paths = (
{
closed = 1;
nodes = (
"509 0 LINE",
"509 64 LINE",
"387 64 OFFCURVE",
"357 65 OFFCURVE",
"357 142 CURVE SMOOTH",
"357 955 LINE",
"302 955 LINE",
"258 871 OFFCURVE",
"200 835 OFFCURVE",
"80 835 CURVE",
"80 775 LINE",
"246 775 LINE",
"246 142 LINE SMOOTH",
"246 80 OFFCURVE",
"216 64 OFFCURVE",
"94 64 CURVE",
"94 0 LINE"
);
}
);
width = 589;
},
{
layerId = "72F22432-F665-4153-96BB-74D91BCC5F28";
paths = (
{
closed = 1;
nodes = (
"694 0 LINE",
"694 64 LINE",
"572 64 OFFCURVE",
"542 72 OFFCURVE",
"542 152 CURVE SMOOTH",
"542 926 LINE",
"452 926 LINE",
"406 838 OFFCURVE",
"250 776 OFFCURVE",
"80 776 CURVE",
"80 700 LINE",
"246 700 LINE",
"246 152 LINE SMOOTH",
"246 90 OFFCURVE",
"216 64 OFFCURVE",
"94 64 CURVE",
"94 0 LINE"
);
}
);
width = 774;
}
);
leftMetricsKey = one;
rightMetricsKey = one;
},
{
glyphname = two;
lastChange = "2020-11-11 20:00:33 +0000";
layers = (
{
layerId = "14A1E899-FED4-4F52-86F4-A1F822586E10";
paths = (
{
closed = 1;
nodes = (
"888 0 LINE",
"948 401 LINE",
"874 401 LINE",
"823 168 OFFCURVE",
"778 107 OFFCURVE",
"672 107 CURVE SMOOTH",
"227 107 LINE",
"666 623 LINE SMOOTH",
"811 794 OFFCURVE",
"891 913 OFFCURVE",
"891 1090 CURVE SMOOTH",
"891 1313 OFFCURVE",
"724 1424 OFFCURVE",
"516 1424 CURVE SMOOTH",
"273 1424 OFFCURVE",
"126 1249 OFFCURVE",
"74 1142 CURVE",
"139 1108 LINE",
"195 1234 OFFCURVE",
"342 1340 OFFCURVE",
"482 1340 CURVE SMOOTH",
"608 1340 OFFCURVE",
"767 1278 OFFCURVE",
"767 1059 CURVE SMOOTH",
"767 925 OFFCURVE",
"681 764 OFFCURVE",
"575 640 CURVE SMOOTH",
"80 64 LINE",
"80 0 LINE"
);
}
);
width = 1026;
},
{
layerId = "72F22432-F665-4153-96BB-74D91BCC5F28";
paths = (
{
closed = 1;
nodes = (
"898 0 LINE",
"958 396 LINE",
"864 396 LINE",
"834 246 OFFCURVE",
"792 157 OFFCURVE",
"676 157 CURVE SMOOTH",
"298 157 LINE",
"575 483 LINE SMOOTH",
"722 656 OFFCURVE",
"926 900 OFFCURVE",
"926 1088 CURVE SMOOTH",
"926 1331 OFFCURVE",
"734 1424 OFFCURVE",
"526 1424 CURVE SMOOTH",
"273 1424 OFFCURVE",
"136 1249 OFFCURVE",
"74 1142 CURVE",
"149 1098 LINE",
"215 1214 OFFCURVE",
"332 1310 OFFCURVE",
"472 1310 CURVE SMOOTH",
"608 1310 OFFCURVE",
"654 1177 OFFCURVE",
"654 988 CURVE SMOOTH",
"654 834 OFFCURVE",
"640 727 OFFCURVE",
"477 537 CURVE SMOOTH",
"80 73 LINE",
"80 0 LINE"
);
}
);
width = 1026;
}
);
unicode = 0032;
},
{
glyphname = two.osf;
lastChange = "2020-11-11 19:09:11 +0000";
layers = (
{
layerId = "14A1E899-FED4-4F52-86F4-A1F822586E10";
paths = (
{
closed = 1;
nodes = (
"748 0 LINE",
"798 287 LINE",
"724 287 LINE",
"694 167 OFFCURVE",
"671 108 OFFCURVE",
"585 108 CURVE SMOOTH",
"262 108 LINE",
"451 280 LINE SMOOTH",
"621 434 OFFCURVE",
"746 554 OFFCURVE",
"746 709 CURVE SMOOTH",
"746 852 OFFCURVE",
"634 944 OFFCURVE",
"456 944 CURVE SMOOTH",
"263 944 OFFCURVE",
"136 819 OFFCURVE",
"74 712 CURVE",
"139 678 LINE",
"205 784 OFFCURVE",
"322 860 OFFCURVE",
"422 860 CURVE SMOOTH",
"518 860 OFFCURVE",
"614 829 OFFCURVE",
"614 685 CURVE SMOOTH",
"614 545 OFFCURVE",
"550 467 OFFCURVE",
"429 358 CURVE SMOOTH",
"111 70 LINE",
"111 0 LINE"
);
}
);
width = 876;
},
{
layerId = "72F22432-F665-4153-96BB-74D91BCC5F28";
paths = (
{
closed = 1;
nodes = (
"758 0 LINE",
"798 297 LINE",
"724 297 LINE",
"694 187 OFFCURVE",
"650 144 OFFCURVE",
"534 144 CURVE SMOOTH",
"328 144 LINE",
"468 267 LINE SMOOTH",
"640 418 OFFCURVE",
"776 538 OFFCURVE",
"776 707 CURVE SMOOTH",
"776 850 OFFCURVE",
"644 944 OFFCURVE",
"456 944 CURVE SMOOTH",
"263 944 OFFCURVE",
"136 819 OFFCURVE",
"74 712 CURVE",
"151 675 LINE",
"217 781 OFFCURVE",
"294 830 OFFCURVE",
"392 830 CURVE SMOOTH",
"478 830 OFFCURVE",
"524 759 OFFCURVE",
"524 665 CURVE SMOOTH",
"524 555 OFFCURVE",
"479 412 OFFCURVE",
"369 311 CURVE SMOOTH",
"111 74 LINE",
"111 0 LINE"
);
}
);
width = 866;
}
);
leftMetricsKey = two;
rightMetricsKey = two;
},
{
glyphname = three;
lastChange = "2020-10-16 00:45:49 +0000";
layers = (
{
layerId = "14A1E899-FED4-4F52-86F4-A1F822586E10";
paths = (
{
closed = 1;
nodes = (
"707 -24 OFFCURVE",
"941 100 OFFCURVE",
"941 404 CURVE SMOOTH",
"941 650 OFFCURVE",
"705 767 OFFCURVE",
"575 767 CURVE",
"693 795 OFFCURVE",
"897 911 OFFCURVE",
"897 1094 CURVE SMOOTH",
"897 1317 OFFCURVE",
"741 1422 OFFCURVE",
"532 1422 CURVE SMOOTH",
"294 1422 OFFCURVE",
"157 1251 OFFCURVE",
"103 1142 CURVE",
"169 1107 LINE",
"226 1230 OFFCURVE",
"358 1340 OFFCURVE",
"502 1340 CURVE SMOOTH",
"632 1340 OFFCURVE",
"775 1264 OFFCURVE",
"775 1082 CURVE SMOOTH",
"775 904 OFFCURVE",
"539 789 OFFCURVE",
"405 768 CURVE",
"405 718 LINE",
"625 714 OFFCURVE",
"815 642 OFFCURVE",
"815 376 CURVE SMOOTH",
"815 130 OFFCURVE",
"655 40 OFFCURVE",
"487 40 CURVE SMOOTH",
"297 40 OFFCURVE",
"217 160 OFFCURVE",
"197 402 CURVE",
"140 402 LINE",
"100 158 LINE",
"174 40 OFFCURVE",
"301 -24 OFFCURVE",
"485 -24 CURVE SMOOTH"
);
}
);
width = 1041;
},
{
layerId = "72F22432-F665-4153-96BB-74D91BCC5F28";
paths = (
{
closed = 1;
nodes = (
"707 -24 OFFCURVE",
"991 90 OFFCURVE",
"991 414 CURVE SMOOTH",
"991 660 OFFCURVE",
"755 767 OFFCURVE",
"595 767 CURVE",
"723 795 OFFCURVE",
"947 881 OFFCURVE",
"947 1084 CURVE SMOOTH",
"947 1327 OFFCURVE",
"751 1422 OFFCURVE",
"542 1422 CURVE SMOOTH",
"304 1422 OFFCURVE",
"147 1251 OFFCURVE",
"93 1142 CURVE",
"169 1100 LINE",
"227 1217 OFFCURVE",
"338 1310 OFFCURVE",
"482 1310 CURVE SMOOTH",
"592 1310 OFFCURVE",
"665 1234 OFFCURVE",
"665 1062 CURVE SMOOTH",
"665 884 OFFCURVE",
"539 789 OFFCURVE",
"405 768 CURVE",
"405 718 LINE",
"595 714 OFFCURVE",
"715 621 OFFCURVE",
"715 375 CURVE SMOOTH",
"715 179 OFFCURVE",
"645 50 OFFCURVE",
"487 50 CURVE SMOOTH",
"317 50 OFFCURVE",
"237 180 OFFCURVE",
"217 392 CURVE",
"120 392 LINE",
"80 138 LINE",
"174 30 OFFCURVE",
"291 -24 OFFCURVE",
"485 -24 CURVE SMOOTH"
);
}
);
width = 1041;
}
);
unicode = 0033;
},
{
glyphname = three.osf;
lastChange = "2020-10-16 00:46:12 +0000";
layers = (
{
layerId = "14A1E899-FED4-4F52-86F4-A1F822586E10";
paths = (
{
closed = 1;
nodes = (
"644 -359 OFFCURVE",
"853 -248 OFFCURVE",
"853 25 CURVE SMOOTH",
"853 245 OFFCURVE",
"642 350 OFFCURVE",
"525 350 CURVE",
"631 375 OFFCURVE",
"814 489 OFFCURVE",
"814 653 CURVE SMOOTH",
"814 853 OFFCURVE",
"674 937 OFFCURVE",
"487 937 CURVE SMOOTH",
"273 937 OFFCURVE",
"151 784 OFFCURVE",
"102 686 CURVE",
"165 651 LINE",
"217 761 OFFCURVE",
"334 864 OFFCURVE",
"460 864 CURVE SMOOTH",
"576 864 OFFCURVE",
"696 806 OFFCURVE",
"696 643 CURVE SMOOTH",
"696 484 OFFCURVE",
"493 375 OFFCURVE",
"373 356 CURVE",
"373 306 LINE",
"570 302 OFFCURVE",
"730 239 OFFCURVE",
"730 1 CURVE SMOOTH",
"730 -220 OFFCURVE",
"597 -297 OFFCURVE",
"446 -297 CURVE SMOOTH",
"286 -297 OFFCURVE",
"214 -194 OFFCURVE",
"197 23 CURVE",
"135 23 LINE",
"100 -196 LINE",
"166 -302 OFFCURVE",
"280 -359 OFFCURVE",
"445 -359 CURVE SMOOTH"
);
}
);
width = 953;
},
{
layerId = "72F22432-F665-4153-96BB-74D91BCC5F28";
paths = (
{
closed = 1;
nodes = (
"642 -359 OFFCURVE",
"909 -257 OFFCURVE",
"909 34 CURVE SMOOTH",
"909 255 OFFCURVE",
"707 350 OFFCURVE",
"564 350 CURVE",
"680 366 OFFCURVE",
"870 450 OFFCURVE",
"870 634 CURVE SMOOTH",
"870 864 OFFCURVE",
"683 938 OFFCURVE",
"485 938 CURVE SMOOTH",
"272 938 OFFCURVE",
"140 785 OFFCURVE",
"92 687 CURVE",
"160 649 LINE",
"212 754 OFFCURVE",
"311 837 OFFCURVE",
"440 837 CURVE SMOOTH",
"547 837 OFFCURVE",
"594 779 OFFCURVE",
"594 625 CURVE SMOOTH",
"594 465 OFFCURVE",
"492 370 OFFCURVE",
"371 351 CURVE",
"371 307 LINE",
"522 301 OFFCURVE",
"620 220 OFFCURVE",
"620 -1 CURVE SMOOTH",
"620 -177 OFFCURVE",
"577 -293 OFFCURVE",
"445 -293 CURVE SMOOTH",
"292 -293 OFFCURVE",
"212 -176 OFFCURVE",
"194 14 CURVE",
"116 14 LINE",
"80 -214 LINE",
"164 -311 OFFCURVE",
"269 -359 OFFCURVE",
"443 -359 CURVE SMOOTH"
);
}
);
width = 959;
}
);
leftMetricsKey = three;
rightMetricsKey = three;
},
{
glyphname = four;
lastChange = "2020-10-16 00:43:25 +0000";
layers = (
{
layerId = "14A1E899-FED4-4F52-86F4-A1F822586E10";
paths = (
{
closed = 1;
nodes = (
"846 0 LINE",
"846 64 LINE",
"750 64 OFFCURVE",
"704 69 OFFCURVE",
"704 122 CURVE SMOOTH",
"704 392 LINE",
"872 392 LINE",
"872 478 LINE",
"704 478 LINE",
"704 1400 LINE",
"668 1400 LINE",
"40 470 LINE",
"40 392 LINE",
"590 392 LINE",
"590 122 LINE SMOOTH",
"590 69 OFFCURVE",
"570 64 OFFCURVE",
"448 64 CURVE",
"448 0 LINE"
);
},
{
closed = 1;
nodes = (
"592 1147 LINE",
"592 478 LINE",
"146 478 LINE"
);
}
);
width = 932;
},
{
layerId = "72F22432-F665-4153-96BB-74D91BCC5F28";
paths = (
{
closed = 1;
nodes = (
"1010 0 LINE",
"1010 64 LINE",
"914 64 OFFCURVE",
"868 80 OFFCURVE",
"868 142 CURVE SMOOTH",
"868 382 LINE",
"1036 382 LINE",
"1036 488 LINE",
"868 488 LINE",
"868 1400 LINE",
"692 1400 LINE",
"40 480 LINE",
"40 382 LINE",
"590 382 LINE",
"590 142 LINE SMOOTH",
"590 80 OFFCURVE",
"570 64 OFFCURVE",
"448 64 CURVE",
"448 0 LINE"
);
},
{
closed = 1;
nodes = (
"592 1098 LINE",
"592 488 LINE",
"166 488 LINE"
);
}
);
width = 1096;
}
);
unicode = 0034;
},
{
glyphname = four.osf;
lastChange = "2020-10-16 00:43:30 +0000";
layers = (
{
layerId = "14A1E899-FED4-4F52-86F4-A1F822586E10";
paths = (
{
closed = 1;
nodes = (
"806 -346 LINE",
"806 -282 LINE",
"710 -282 OFFCURVE",
"664 -277 OFFCURVE",
"664 -224 CURVE SMOOTH",
"664 -4 LINE",
"832 -4 LINE",
"832 82 LINE",
"664 82 LINE",
"664 934 LINE",
"628 934 LINE",
"40 74 LINE",
"40 -4 LINE",
"550 -4 LINE",
"550 -224 LINE SMOOTH",
"550 -277 OFFCURVE",
"530 -282 OFFCURVE",
"408 -282 CURVE",
"408 -346 LINE"
);
},
{
closed = 1;
nodes = (
"552 691 LINE",
"552 82 LINE",
"142 82 LINE"
);
}
);
width = 892;
},
{
layerId = "72F22432-F665-4153-96BB-74D91BCC5F28";
paths = (
{
closed = 1;
nodes = (
"960 -346 LINE",
"960 -282 LINE",
"864 -282 OFFCURVE",
"818 -266 OFFCURVE",
"818 -204 CURVE SMOOTH",
"818 -24 LINE",
"986 -24 LINE",
"986 82 LINE",
"818 82 LINE",
"818 934 LINE",
"642 934 LINE",
"40 74 LINE",
"40 -24 LINE",
"540 -24 LINE",
"540 -204 LINE SMOOTH",
"540 -266 OFFCURVE",
"520 -282 OFFCURVE",
"398 -282 CURVE",
"398 -346 LINE"
);
},
{
closed = 1;
nodes = (
"542 632 LINE",
"542 82 LINE",
"166 82 LINE"
);
}
);
width = 1046;
}
);
leftMetricsKey = four;
rightMetricsKey = four;
},
{
glyphname = five;
lastChange = "2020-10-16 00:48:34 +0000";
layers = (
{
layerId = "14A1E899-FED4-4F52-86F4-A1F822586E10";
paths = (
{
closed = 1;
nodes = (
"761 -24 OFFCURVE",
"959 170 OFFCURVE",
"959 476 CURVE SMOOTH",
"959 780 OFFCURVE",
"737 904 OFFCURVE",
"565 904 CURVE SMOOTH",
"405 904 OFFCURVE",
"268 825 OFFCURVE",
"215 747 CURVE",
"286 1294 LINE",
"905 1294 LINE",
"951 1480 LINE",
"885 1480 LINE",
"864 1402 OFFCURVE",
"857 1400 OFFCURVE",
"812 1400 CURVE SMOOTH",
"219 1400 LINE",
"127 664 LINE",
"201 636 LINE",
"305 764 OFFCURVE",
"411 820 OFFCURVE",
"535 820 CURVE SMOOTH",
"685 820 OFFCURVE",
"831 700 OFFCURVE",
"831 436 CURVE SMOOTH",
"831 206 OFFCURVE",
"703 36 OFFCURVE",
"509 36 CURVE SMOOTH",
"319 36 OFFCURVE",
"211 164 OFFCURVE",
"195 402 CURVE",
"137 402 LINE",
"90 154 LINE",
"162 46 OFFCURVE",
"319 -24 OFFCURVE",
"499 -24 CURVE SMOOTH"
);
}
);
width = 1049;
},
{
layerId = "72F22432-F665-4153-96BB-74D91BCC5F28";
paths = (
{
closed = 1;
nodes = (
"794 -24 OFFCURVE",
"1042 140 OFFCURVE",
"1042 466 CURVE SMOOTH",
"1042 790 OFFCURVE",
"810 904 OFFCURVE",
"578 904 CURVE SMOOTH",
"418 904 OFFCURVE",
"328 844 OFFCURVE",
"265 788 CURVE",
"320 1226 LINE",
"980 1226 LINE",
"1034 1480 LINE",
"968 1480 LINE",
"957 1409 OFFCURVE",
"910 1400 OFFCURVE",
"875 1400 CURVE SMOOTH",
"220 1400 LINE",
"130 664 LINE",
"224 636 LINE",
"328 744 OFFCURVE",
"434 760 OFFCURVE",
"518 760 CURVE SMOOTH",
"678 760 OFFCURVE",
"744 570 OFFCURVE",
"744 386 CURVE SMOOTH",
"744 206 OFFCURVE",
"686 46 OFFCURVE",
"542 46 CURVE SMOOTH",
"352 46 OFFCURVE",
"264 184 OFFCURVE",
"238 402 CURVE",
"130 402 LINE",
"90 144 LINE",
"160 35 OFFCURVE",
"362 -24 OFFCURVE",
"522 -24 CURVE SMOOTH"
);
}
);
width = 1082;
}
);
unicode = 0035;
},
{
glyphname = five.osf;
lastChange = "2020-10-16 00:48:32 +0000";
layers = (
{
layerId = "14A1E899-FED4-4F52-86F4-A1F822586E10";
paths = (
{
closed = 1;
nodes = (
"699 -358 OFFCURVE",
"878 -182 OFFCURVE",
"878 95 CURVE SMOOTH",
"878 371 OFFCURVE",
"677 484 OFFCURVE",
"521 484 CURVE SMOOTH",
"376 484 OFFCURVE",
"264 419 OFFCURVE",
"216 358 CURVE",
"276 829 LINE",
"827 829 LINE",
"871 1006 LINE",
"803 1006 LINE",
"784 935 OFFCURVE",
"768 933 OFFCURVE",
"727 933 CURVE SMOOTH",
"207 933 LINE",
"124 266 LINE",
"191 241 LINE",
"285 357 OFFCURVE",
"381 407 OFFCURVE",
"494 407 CURVE SMOOTH",
"630 407 OFFCURVE",
"755 299 OFFCURVE",
"755 59 CURVE SMOOTH",
"755 -149 OFFCURVE",
"646 -300 OFFCURVE",
"470 -300 CURVE SMOOTH",
"298 -300 OFFCURVE",
"208 -188 OFFCURVE",
"193 28 CURVE",
"133 28 LINE",
"90 -197 LINE",
"155 -295 OFFCURVE",
"298 -358 OFFCURVE",
"461 -358 CURVE SMOOTH"
);
}
);
width = 968;
},
{
layerId = "72F22432-F665-4153-96BB-74D91BCC5F28";
paths = (
{
closed = 1;
nodes = (
"724 -357 OFFCURVE",
"956 -210 OFFCURVE",
"956 84 CURVE SMOOTH",
"956 375 OFFCURVE",
"738 477 OFFCURVE",
"529 477 CURVE SMOOTH",
"385 477 OFFCURVE",
"311 424 OFFCURVE",
"254 373 CURVE",
"303 768 LINE",
"887 768 LINE",
"936 996 LINE",
"870 996 LINE",
"860 932 OFFCURVE",
"818 924 OFFCURVE",
"787 924 CURVE SMOOTH",
"207 924 LINE",
"126 262 LINE",
"216 236 LINE",
"311 333 OFFCURVE",
"400 348 OFFCURVE",
"475 348 CURVE SMOOTH",
"620 348 OFFCURVE",
"678 177 OFFCURVE",
"678 11 CURVE SMOOTH",
"678 -150 OFFCURVE",
"626 -295 OFFCURVE",
"496 -295 CURVE SMOOTH",
"325 -295 OFFCURVE",
"253 -170 OFFCURVE",
"229 26 CURVE",
"126 26 LINE",
"90 -206 LINE",
"153 -304 OFFCURVE",
"334 -357 OFFCURVE",
"478 -357 CURVE SMOOTH"
);
}
);
width = 996;
}
);
leftMetricsKey = five;
rightMetricsKey = five;
},
{
glyphname = six;
lastChange = "2020-10-16 00:57:32 +0000";
layers = (
{
layerId = "14A1E899-FED4-4F52-86F4-A1F822586E10";
paths = (
{
closed = 1;
nodes = (
"762 -24 OFFCURVE",
"964 164 OFFCURVE",
"964 472 CURVE SMOOTH",
"964 740 OFFCURVE",
"774 904 OFFCURVE",
"568 904 CURVE SMOOTH",
"412 904 OFFCURVE",
"284 834 OFFCURVE",
"228 746 CURVE",
"306 1104 OFFCURVE",
"508 1265 OFFCURVE",
"782 1363 CURVE",
"770 1415 LINE",
"351 1329 OFFCURVE",
"90 992 OFFCURVE",
"90 576 CURVE SMOOTH",
"90 202 OFFCURVE",
"266 -24 OFFCURVE",
"518 -24 CURVE SMOOTH"
);
},
{
closed = 1;
nodes = (
"332 44 OFFCURVE",
"215 225 OFFCURVE",
"215 573 CURVE SMOOTH",
"215 619 OFFCURVE",
"217 635 OFFCURVE",
"223 658 CURVE",
"303 771 OFFCURVE",
"414 804 OFFCURVE",
"520 804 CURVE SMOOTH",
"714 804 OFFCURVE",
"828 706 OFFCURVE",
"828 432 CURVE SMOOTH",
"828 160 OFFCURVE",
"710 44 OFFCURVE",
"528 44 CURVE SMOOTH"
);
}
);
width = 1054;
},
{
layerId = "72F22432-F665-4153-96BB-74D91BCC5F28";
paths = (
{
closed = 1;
nodes = (
"850 -24 OFFCURVE",
"1072 174 OFFCURVE",
"1072 482 CURVE SMOOTH",
"1072 740 OFFCURVE",
"892 902 OFFCURVE",
"656 902 CURVE SMOOTH",
"520 902 OFFCURVE",
"422 822 OFFCURVE",
"396 766 CURVE",
"456 1104 OFFCURVE",
"574 1245 OFFCURVE",
"848 1343 CURVE",
"828 1415 LINE",
"369 1329 OFFCURVE",
"90 992 OFFCURVE",
"90 576 CURVE SMOOTH",
"90 202 OFFCURVE",
"284 -24 OFFCURVE",
"576 -24 CURVE SMOOTH"
);
},
{
closed = 1;
nodes = (
"430 44 OFFCURVE",
"376 294 OFFCURVE",
"376 573 CURVE SMOOTH",
"376 611 OFFCURVE",
"378 637 OFFCURVE",
"384 660 CURVE",
"434 732 OFFCURVE",
"502 782 OFFCURVE",
"598 782 CURVE SMOOTH",
"742 782 OFFCURVE",
"786 606 OFFCURVE",
"786 422 CURVE SMOOTH",
"786 180 OFFCURVE",
"738 44 OFFCURVE",
"586 44 CURVE SMOOTH"
);
}
);
width = 1162;
}
);
unicode = 0036;
},
{
glyphname = six.osf;
lastChange = "2020-10-16 00:58:05 +0000";
layers = (
{
layerId = "14A1E899-FED4-4F52-86F4-A1F822586E10";
paths = (
{
closed = 1;
nodes = (
"672 -24 OFFCURVE",
"855 137 OFFCURVE",
"855 401 CURVE SMOOTH",
"855 630 OFFCURVE",
"682 771 OFFCURVE",
"506 771 CURVE SMOOTH",
"380 771 OFFCURVE",
"273 711 OFFCURVE",
"225 635 CURVE",
"292 942 OFFCURVE",
"468 1070 OFFCURVE",
"702 1154 CURVE",
"679 1208 LINE",
"330 1124 OFFCURVE",
"90 846 OFFCURVE",
"90 490 CURVE SMOOTH",
"90 170 OFFCURVE",
"248 -24 OFFCURVE",
"463 -24 CURVE SMOOTH"
);
},
{
closed = 1;
nodes = (
"314 34 OFFCURVE",
"214 189 OFFCURVE",
"214 487 CURVE SMOOTH",
"214 527 OFFCURVE",
"216 540 OFFCURVE",
"221 560 CURVE",
"289 657 OFFCURVE",
"374 685 OFFCURVE",
"465 685 CURVE SMOOTH",
"631 685 OFFCURVE",
"719 601 OFFCURVE",
"719 366 CURVE SMOOTH",
"719 134 OFFCURVE",
"618 34 OFFCURVE",
"472 34 CURVE SMOOTH"
);
}
);
width = 945;
},
{
layerId = "72F22432-F665-4153-96BB-74D91BCC5F28";
paths = (
{
closed = 1;
nodes = (
"749 -24 OFFCURVE",
"942 148 OFFCURVE",
"942 415 CURVE SMOOTH",
"942 638 OFFCURVE",
"786 779 OFFCURVE",
"581 779 CURVE SMOOTH",
"463 779 OFFCURVE",
"378 710 OFFCURVE",
"356 661 CURVE",
"408 954 OFFCURVE",
"520 1076 OFFCURVE",
"758 1161 CURVE",
"730 1224 LINE",
"332 1149 OFFCURVE",
"90 857 OFFCURVE",
"90 496 CURVE SMOOTH",
"90 172 OFFCURVE",
"258 -24 OFFCURVE",
"512 -24 CURVE SMOOTH"
);
},
{
closed = 1;
nodes = (
"385 45 OFFCURVE",
"348 252 OFFCURVE",
"348 494 CURVE SMOOTH",
"348 527 OFFCURVE",
"350 539 OFFCURVE",
"355 559 CURVE",
"399 622 OFFCURVE",
"447 665 OFFCURVE",
"531 665 CURVE SMOOTH",
"656 665 OFFCURVE",
"684 522 OFFCURVE",
"684 363 CURVE SMOOTH",
"684 153 OFFCURVE",
"652 45 OFFCURVE",
"520 45 CURVE SMOOTH"
);
}
);
width = 1032;
}
);
leftMetricsKey = six;
rightMetricsKey = six;
},
{
glyphname = seven;
lastChange = "2020-10-16 01:17:29 +0000";
layers = (
{
layerId = "14A1E899-FED4-4F52-86F4-A1F822586E10";
paths = (
{
closed = 1;
nodes = (
"490 0 LINE",
"490 435 OFFCURVE",
"555 1060 OFFCURVE",
"864 1313 CURVE",
"864 1400 LINE",
"130 1400 LINE",
"80 1014 LINE",
"154 1014 LINE",
"183 1154 OFFCURVE",
"217 1295 OFFCURVE",
"333 1295 CURVE SMOOTH",
"768 1295 LINE",
"507 1095 OFFCURVE",
"372 527 OFFCURVE",
"372 0 CURVE"
);
}
);
width = 944;
},
{
layerId = "72F22432-F665-4153-96BB-74D91BCC5F28";
paths = (
{
closed = 1;
nodes = (
"630 0 LINE",
"630 591 OFFCURVE",
"645 1011 OFFCURVE",
"934 1264 CURVE",
"934 1400 LINE",
"130 1400 LINE",
"80 1004 LINE",
"164 1004 LINE",
"191 1154 OFFCURVE",
"237 1246 OFFCURVE",
"363 1246 CURVE SMOOTH",
"788 1246 LINE",
"496 1046 OFFCURVE",
"342 631 OFFCURVE",
"342 0 CURVE"
);
}
);
width = 1014;
}
);
unicode = 0037;
},
{
glyphname = seven.osf;
lastChange = "2020-10-16 01:17:41 +0000";
layers = (
{
layerId = "14A1E899-FED4-4F52-86F4-A1F822586E10";
paths = (
{
closed = 1;
nodes = (
"490 -344 LINE",
"490 91 OFFCURVE",
"535 586 OFFCURVE",
"844 839 CURVE",
"844 926 LINE",
"130 926 LINE",
"80 540 LINE",
"154 540 LINE",
"183 680 OFFCURVE",
"217 821 OFFCURVE",
"333 821 CURVE SMOOTH",
"748 821 LINE",
"487 621 OFFCURVE",
"372 183 OFFCURVE",
"372 -344 CURVE"
);
}
);
width = 924;
},
{
layerId = "72F22432-F665-4153-96BB-74D91BCC5F28";
paths = (
{
closed = 1;
nodes = (
"630 -343 LINE",
"630 248 OFFCURVE",
"645 537 OFFCURVE",
"934 790 CURVE",
"934 926 LINE",
"130 926 LINE",
"80 530 LINE",
"164 530 LINE",
"191 680 OFFCURVE",
"237 772 OFFCURVE",
"363 772 CURVE SMOOTH",
"788 772 LINE",
"496 572 OFFCURVE",
"342 288 OFFCURVE",
"342 -343 CURVE"
);
}
);
width = 1014;
}
);
leftMetricsKey = seven;
rightMetricsKey = seven;
},
{
glyphname = eight;
lastChange = "2020-10-16 01:19:00 +0000";
layers = (
{
layerId = "14A1E899-FED4-4F52-86F4-A1F822586E10";
paths = (
{
closed = 1;
nodes = (
"754 -24 OFFCURVE",
"978 114 OFFCURVE",
"978 382 CURVE SMOOTH",
"978 580 OFFCURVE",
"811 693 OFFCURVE",
"653 763 CURVE",
"803 847 OFFCURVE",
"926 940 OFFCURVE",
"926 1108 CURVE SMOOTH",
"926 1332 OFFCURVE",
"720 1424 OFFCURVE",
"554 1424 CURVE SMOOTH",
"340 1424 OFFCURVE",
"160 1318 OFFCURVE",
"160 1114 CURVE SMOOTH",
"160 927 OFFCURVE",
"285 808 OFFCURVE",
"430 741 CURVE",
"266 701 OFFCURVE",
"98 575 OFFCURVE",
"98 354 CURVE SMOOTH",
"98 94 OFFCURVE",
"320 -24 OFFCURVE",
"526 -24 CURVE SMOOTH"
);
},
{
closed = 1;
nodes = (
"358 42 OFFCURVE",
"204 144 OFFCURVE",
"204 362 CURVE SMOOTH",
"204 558 OFFCURVE",
"342 639 OFFCURVE",
"502 699 CURVE",
"678 619 OFFCURVE",
"868 531 OFFCURVE",
"868 335 CURVE SMOOTH",
"868 121 OFFCURVE",
"704 42 OFFCURVE",
"514 42 CURVE SMOOTH"
);
},
{
closed = 1;
nodes = (
"408 867 OFFCURVE",
"251 961 OFFCURVE",
"251 1132 CURVE SMOOTH",
"251 1282 OFFCURVE",
"391 1354 OFFCURVE",
"527 1354 CURVE SMOOTH",
"667 1354 OFFCURVE",
"812 1294 OFFCURVE",
"812 1108 CURVE SMOOTH",
"812 956 OFFCURVE",
"708 876 OFFCURVE",
"564 800 CURVE"
);
}
);
width = 1088;
},
{
layerId = "72F22432-F665-4153-96BB-74D91BCC5F28";
paths = (
{
closed = 1;
nodes = (
"805 -24 OFFCURVE",
"1029 124 OFFCURVE",
"1029 382 CURVE SMOOTH",
"1029 600 OFFCURVE",
"857 725 OFFCURVE",
"729 785 CURVE",
"879 879 OFFCURVE",
"957 980 OFFCURVE",
"957 1108 CURVE SMOOTH",
"957 1342 OFFCURVE",
"743 1424 OFFCURVE",
"557 1424 CURVE SMOOTH",
"323 1424 OFFCURVE",
"121 1298 OFFCURVE",
"121 1084 CURVE SMOOTH",
"121 877 OFFCURVE",
"243 756 OFFCURVE",
"343 706 CURVE",
"199 656 OFFCURVE",
"80 555 OFFCURVE",
"80 354 CURVE SMOOTH",
"80 94 OFFCURVE",
"311 -24 OFFCURVE",
"537 -24 CURVE SMOOTH"
);
},
{
closed = 1;
nodes = (
"390 52 OFFCURVE",
"290 147 OFFCURVE",
"290 350 CURVE SMOOTH",
"290 486 OFFCURVE",
"344 575 OFFCURVE",
"448 626 CURVE",
"601 556 OFFCURVE",
"774 432 OFFCURVE",
"774 285 CURVE SMOOTH",
"774 125 OFFCURVE",
"667 52 OFFCURVE",
"527 52 CURVE SMOOTH"
);
},
{
closed = 1;
nodes = (
"520 905 OFFCURVE",
"323 1004 OFFCURVE",
"323 1144 CURVE SMOOTH",
"323 1287 OFFCURVE",
"422 1349 OFFCURVE",
"542 1349 CURVE SMOOTH",
"666 1349 OFFCURVE",
"762 1278 OFFCURVE",
"762 1107 CURVE SMOOTH",
"762 983 OFFCURVE",
"716 923 OFFCURVE",
"617 857 CURVE"
);
}
);
width = 1109;
}
);
unicode = 0038;
},
{
glyphname = eight.osf;
lastChange = "2020-11-04 18:46:09 +0000";
layers = (
{
layerId = "14A1E899-FED4-4F52-86F4-A1F822586E10";
paths = (
{
closed = 1;
nodes = (
"661 -24 OFFCURVE",
"854 94 OFFCURVE",
"854 325 CURVE SMOOTH",
"854 495 OFFCURVE",
"710 592 OFFCURVE",
"575 652 CURVE",
"704 724 OFFCURVE",
"809 804 OFFCURVE",
"809 948 CURVE SMOOTH",
"809 1140 OFFCURVE",
"632 1219 OFFCURVE",
"490 1219 CURVE SMOOTH",
"306 1219 OFFCURVE",
"151 1127 OFFCURVE",
"151 952 CURVE SMOOTH",
"151 791 OFFCURVE",
"259 690 OFFCURVE",
"373 633 CURVE",
"242 588 OFFCURVE",
"98 490 OFFCURVE",
"98 301 CURVE SMOOTH",
"98 77 OFFCURVE",
"289 -24 OFFCURVE",
"466 -24 CURVE SMOOTH"
);
},
{
closed = 1;
nodes = (
"321 35 OFFCURVE",
"193 120 OFFCURVE",
"193 307 CURVE SMOOTH",
"193 476 OFFCURVE",
"308 535 OFFCURVE",
"435 597 CURVE",
"586 528 OFFCURVE",
"751 448 OFFCURVE",
"751 284 CURVE SMOOTH",
"751 110 OFFCURVE",
"619 35 OFFCURVE",
"455 35 CURVE SMOOTH"
);
},
{
closed = 1;
nodes = (
"381 741 OFFCURVE",
"238 822 OFFCURVE",
"238 968 CURVE SMOOTH",
"238 1097 OFFCURVE",
"350 1157 OFFCURVE",
"467 1157 CURVE SMOOTH",
"587 1157 OFFCURVE",
"708 1108 OFFCURVE",
"708 948 CURVE SMOOTH",
"708 817 OFFCURVE",
"629 749 OFFCURVE",
"505 683 CURVE"
);
}
);
width = 964;
},
{
layerId = "72F22432-F665-4153-96BB-74D91BCC5F28";
paths = (
{
closed = 1;
nodes = (
"703 -24 OFFCURVE",
"895 103 OFFCURVE",
"895 325 CURVE SMOOTH",
"895 512 OFFCURVE",
"747 620 OFFCURVE",
"637 672 CURVE",
"766 753 OFFCURVE",
"833 838 OFFCURVE",
"833 948 CURVE SMOOTH",
"833 1149 OFFCURVE",
"649 1219 OFFCURVE",
"490 1219 CURVE SMOOTH",
"289 1219 OFFCURVE",
"115 1111 OFFCURVE",
"115 927 CURVE SMOOTH",
"115 750 OFFCURVE",
"227 646 OFFCURVE",
"313 603 CURVE",
"189 560 OFFCURVE",
"80 473 OFFCURVE",
"80 301 CURVE SMOOTH",
"80 77 OFFCURVE",
"278 -24 OFFCURVE",
"472 -24 CURVE SMOOTH"
);
},
{
closed = 1;
nodes = (
"346 41 OFFCURVE",
"260 153 OFFCURVE",
"260 307 CURVE SMOOTH",
"260 424 OFFCURVE",
"307 492 OFFCURVE",
"396 535 CURVE",
"527 475 OFFCURVE",
"666 368 OFFCURVE",
"666 241 CURVE SMOOTH",
"666 104 OFFCURVE",
"584 41 OFFCURVE",
"464 41 CURVE SMOOTH"
);
},
{
closed = 1;
nodes = (
"458 774 OFFCURVE",
"296 862 OFFCURVE",
"296 979 CURVE SMOOTH",
"296 1102 OFFCURVE",
"374 1155 OFFCURVE",
"477 1155 CURVE SMOOTH",
"583 1155 OFFCURVE",
"656 1094 OFFCURVE",
"656 947 CURVE SMOOTH",
"656 841 OFFCURVE",
"626 789 OFFCURVE",
"541 732 CURVE"
);
}
);
width = 975;
}
);
leftMetricsKey = eight;
rightMetricsKey = eight;
},
{
glyphname = nine;
lastChange = "2020-10-16 01:11:13 +0000";
layers = (
{
layerId = "14A1E899-FED4-4F52-86F4-A1F822586E10";
paths = (
{
closed = 1;
nodes = (
"292 1415 OFFCURVE",
"90 1237 OFFCURVE",
"90 929 CURVE SMOOTH",
"90 661 OFFCURVE",
"280 487 OFFCURVE",
"486 487 CURVE SMOOTH",
"642 487 OFFCURVE",
"770 577 OFFCURVE",
"826 665 CURVE",
"748 307 OFFCURVE",
"546 126 OFFCURVE",
"272 28 CURVE",
"284 -24 LINE",
"703 62 OFFCURVE",
"964 419 OFFCURVE",
"964 835 CURVE SMOOTH",
"964 1209 OFFCURVE",
"788 1415 OFFCURVE",
"536 1415 CURVE SMOOTH"
);
},
{
closed = 1;
nodes = (
"722 1347 OFFCURVE",
"839 1186 OFFCURVE",
"839 838 CURVE SMOOTH",
"839 792 OFFCURVE",
"837 776 OFFCURVE",
"831 753 CURVE",
"751 640 OFFCURVE",
"640 587 OFFCURVE",
"534 587 CURVE SMOOTH",
"340 587 OFFCURVE",
"226 695 OFFCURVE",
"226 969 CURVE SMOOTH",
"226 1241 OFFCURVE",
"344 1347 OFFCURVE",
"526 1347 CURVE SMOOTH"
);
}
);
width = 1054;
},
{
layerId = "72F22432-F665-4153-96BB-74D91BCC5F28";
paths = (
{
closed = 1;
nodes = (
"282 1423 OFFCURVE",
"60 1245 OFFCURVE",
"60 937 CURVE SMOOTH",
"60 679 OFFCURVE",
"240 497 OFFCURVE",
"476 497 CURVE SMOOTH",
"612 497 OFFCURVE",
"710 577 OFFCURVE",
"736 633 CURVE",
"676 295 OFFCURVE",
"558 154 OFFCURVE",
"284 56 CURVE",
"304 -16 LINE",
"763 70 OFFCURVE",
"1042 427 OFFCURVE",
"1042 843 CURVE SMOOTH",
"1042 1217 OFFCURVE",
"848 1423 OFFCURVE",
"556 1423 CURVE SMOOTH"
);
},
{
closed = 1;
nodes = (
"702 1355 OFFCURVE",
"756 1105 OFFCURVE",
"756 826 CURVE SMOOTH",
"756 788 OFFCURVE",
"754 762 OFFCURVE",
"748 739 CURVE",
"698 667 OFFCURVE",
"630 617 OFFCURVE",
"534 617 CURVE SMOOTH",
"390 617 OFFCURVE",
"346 793 OFFCURVE",
"346 977 CURVE SMOOTH",
"346 1219 OFFCURVE",
"394 1355 OFFCURVE",
"546 1355 CURVE SMOOTH"
);
}
);
width = 1092;
}
);
unicode = 0039;
},
{
glyphname = nine.osf;
lastChange = "2020-10-16 01:11:15 +0000";
layers = (
{
layerId = "14A1E899-FED4-4F52-86F4-A1F822586E10";
paths = (
{
closed = 1;
nodes = (
"273 926 OFFCURVE",
"90 785 OFFCURVE",
"90 521 CURVE SMOOTH",
"90 292 OFFCURVE",
"263 131 OFFCURVE",
"439 131 CURVE SMOOTH",
"565 131 OFFCURVE",
"672 211 OFFCURVE",
"720 287 CURVE",
"653 -20 OFFCURVE",
"477 -168 OFFCURVE",
"243 -252 CURVE",
"266 -306 LINE",
"615 -222 OFFCURVE",
"855 76 OFFCURVE",
"855 432 CURVE SMOOTH",
"855 752 OFFCURVE",
"697 926 OFFCURVE",
"482 926 CURVE SMOOTH"
);
},
{
closed = 1;
nodes = (
"631 868 OFFCURVE",
"731 733 OFFCURVE",
"731 435 CURVE SMOOTH",
"731 395 OFFCURVE",
"729 382 OFFCURVE",
"724 362 CURVE",
"656 265 OFFCURVE",
"571 217 OFFCURVE",
"480 217 CURVE SMOOTH",
"314 217 OFFCURVE",
"226 321 OFFCURVE",
"226 556 CURVE SMOOTH",
"226 788 OFFCURVE",
"327 868 OFFCURVE",
"473 868 CURVE SMOOTH"
);
}
);
width = 945;
},
{
layerId = "72F22432-F665-4153-96BB-74D91BCC5F28";
paths = (
{
closed = 1;
nodes = (
"253 930 OFFCURVE",
"60 778 OFFCURVE",
"60 511 CURVE SMOOTH",
"60 288 OFFCURVE",
"216 127 OFFCURVE",
"421 127 CURVE SMOOTH",
"539 127 OFFCURVE",
"624 196 OFFCURVE",
"646 245 CURVE",
"594 -48 OFFCURVE",
"482 -170 OFFCURVE",
"244 -255 CURVE",
"272 -318 LINE",
"670 -243 OFFCURVE",
"912 69 OFFCURVE",
"912 430 CURVE SMOOTH",
"912 754 OFFCURVE",
"744 930 OFFCURVE",
"490 930 CURVE SMOOTH"
);
},
{
closed = 1;
nodes = (
"617 861 OFFCURVE",
"654 654 OFFCURVE",
"654 412 CURVE SMOOTH",
"654 379 OFFCURVE",
"652 367 OFFCURVE",
"647 347 CURVE",
"603 284 OFFCURVE",
"555 241 OFFCURVE",
"471 241 CURVE SMOOTH",
"346 241 OFFCURVE",
"318 384 OFFCURVE",
"318 543 CURVE SMOOTH",
"318 753 OFFCURVE",
"350 861 OFFCURVE",
"482 861 CURVE SMOOTH"
);
}
);
width = 962;
}
);
leftMetricsKey = nine;
rightMetricsKey = nine;
},
{
glyphname = period;
lastChange = "2020-11-04 19:06:33 +0000";
layers = (
{
layerId = "14A1E899-FED4-4F52-86F4-A1F822586E10";
paths = (
{
closed = 1;
nodes = (
"199 9 OFFCURVE",
"241 51 OFFCURVE",
"241 104 CURVE SMOOTH",
"241 157 OFFCURVE",
"199 199 OFFCURVE",
"146 199 CURVE SMOOTH",
"93 199 OFFCURVE",
"51 157 OFFCURVE",
"51 104 CURVE SMOOTH",
"51 51 OFFCURVE",
"93 9 OFFCURVE",
"146 9 CURVE SMOOTH"
);
}
);
width = 442;
},
{
layerId = "72F22432-F665-4153-96BB-74D91BCC5F28";
paths = (
{
closed = 1;
nodes = (
"216 -22 OFFCURVE",
"272 34 OFFCURVE",
"272 104 CURVE SMOOTH",
"272 174 OFFCURVE",
"216 230 OFFCURVE",
"146 230 CURVE SMOOTH",
"76 230 OFFCURVE",
"20 174 OFFCURVE",
"20 104 CURVE SMOOTH",
"20 34 OFFCURVE",
"76 -22 OFFCURVE",
"146 -22 CURVE SMOOTH"
);
}
);
width = 442;
}
);
leftKerningGroup = period;
rightKerningGroup = period;
unicode = 002E;
},
{
glyphname = comma;
lastChange = "2020-11-11 20:01:43 +0000";
layers = (
{
layerId = "14A1E899-FED4-4F52-86F4-A1F822586E10";
paths = (
{
closed = 1;
nodes = (
"132 -217 OFFCURVE",
"257 -81 OFFCURVE",
"257 68 CURVE SMOOTH",
"257 146 OFFCURVE",
"211 180 OFFCURVE",
"158 180 CURVE SMOOTH",
"102 180 OFFCURVE",
"58 144 OFFCURVE",
"58 88 CURVE SMOOTH",
"58 33 OFFCURVE",
"89 -4 OFFCURVE",
"143 -4 CURVE SMOOTH",
"162 -4 OFFCURVE",
"183 1 OFFCURVE",
"186 4 CURVE",
"176 -78 OFFCURVE",
"102 -181 OFFCURVE",
"42 -224 CURVE",
"76 -262 LINE"
);
}
);
width = 392;
},
{
layerId = "72F22432-F665-4153-96BB-74D91BCC5F28";
paths = (
{
closed = 1;
nodes = (
"152 -235 OFFCURVE",
"289 -120 OFFCURVE",
"289 78 CURVE SMOOTH",
"289 178 OFFCURVE",
"228 226 OFFCURVE",
"158 226 CURVE SMOOTH",
"88 226 OFFCURVE",
"26 178 OFFCURVE",
"26 104 CURVE SMOOTH",
"26 32 OFFCURVE",
"64 -18 OFFCURVE",
"138 -18 CURVE SMOOTH",
"164 -18 OFFCURVE",
"194 -11 OFFCURVE",
"198 -7 CURVE",
"197 -87 OFFCURVE",
"120 -178 OFFCURVE",
"28 -250 CURVE",
"66 -302 LINE"
);
}
);
width = 392;
}
);
leftKerningGroup = period;
rightKerningGroup = period;
unicode = 002C;
},
{
glyphname = exclam;
lastChange = "2020-11-11 19:39:09 +0000";
layers = (
{
components = (
{
name = period;
transform = "{1, 0, 0, 1, 8, 0}";
}
);
layerId = "14A1E899-FED4-4F52-86F4-A1F822586E10";
paths = (
{
closed = 1;
nodes = (
"176 342 LINE",
"214 1262 LINE",
"214 1400 LINE",
"96 1400 LINE",
"96 1262 LINE",
"132 342 LINE"
);
}
);
width = 380;
},
{
components = (
{
name = period;
transform = "{1, 0, 0, 1, 8, 0}";
}
);
layerId = "72F22432-F665-4153-96BB-74D91BCC5F28";
paths = (
{
closed = 1;
nodes = (
"206 352 LINE",
"254 1262 LINE",
"254 1400 LINE",
"56 1400 LINE",
"56 1262 LINE",
"102 352 LINE"
);
}
);
width = 380;
}
);
unicode = 0021;
},
{
glyphname = question;
lastChange = "2020-11-11 19:48:22 +0000";
layers = (
{
components = (
{
name = period;
transform = "{1, 0, 0, 1, 292, 0}";
}
);
layerId = "14A1E899-FED4-4F52-86F4-A1F822586E10";
paths = (
{
closed = 1;
nodes = (
"468 412 LINE",
"478 678 OFFCURVE",
"832 820 OFFCURVE",
"832 1096 CURVE SMOOTH",
"832 1336 OFFCURVE",
"622 1424 OFFCURVE",
"470 1424 CURVE SMOOTH",
"346 1424 OFFCURVE",
"162 1376 OFFCURVE",
"70 1248 CURVE",
"90 988 LINE",
"150 988 LINE",
"154 1240 OFFCURVE",
"259 1346 OFFCURVE",
"432 1346 CURVE SMOOTH",
"580 1346 OFFCURVE",
"706 1260 OFFCURVE",
"706 1096 CURVE SMOOTH",
"706 836 OFFCURVE",
"402 723 OFFCURVE",
"402 412 CURVE"
);
}
);
width = 902;
},
{
components = (
{
name = period;
transform = "{1, 0, 0, 1, 302, 0}";
}
);
layerId = "72F22432-F665-4153-96BB-74D91BCC5F28";
paths = (
{
closed = 1;
nodes = (
"488 352 LINE",
"498 588 OFFCURVE",
"892 820 OFFCURVE",
"892 1096 CURVE SMOOTH",
"892 1336 OFFCURVE",
"682 1424 OFFCURVE",
"490 1424 CURVE SMOOTH",
"366 1424 OFFCURVE",
"193 1376 OFFCURVE",
"71 1258 CURVE",
"90 968 LINE",
"180 968 LINE",
"214 1180 OFFCURVE",
"269 1346 OFFCURVE",
"442 1346 CURVE SMOOTH",
"590 1346 OFFCURVE",
"676 1230 OFFCURVE",
"676 1066 CURVE SMOOTH",
"676 816 OFFCURVE",
"402 648 OFFCURVE",
"402 352 CURVE"
);
}
);
width = 952;
}
);
unicode = 003F;
},
{
glyphname = periodcentered;
lastChange = "2020-10-13 20:08:34 +0000";
layers = (
{
layerId = "14A1E899-FED4-4F52-86F4-A1F822586E10";
paths = (
{
closed = 1;
nodes = (
"191 726 OFFCURVE",
"228 763 OFFCURVE",
"228 808 CURVE SMOOTH",
"228 853 OFFCURVE",
"191 890 OFFCURVE",
"146 890 CURVE SMOOTH",
"101 890 OFFCURVE",
"64 853 OFFCURVE",
"64 808 CURVE SMOOTH",
"64 763 OFFCURVE",
"101 726 OFFCURVE",
"146 726 CURVE SMOOTH"
);
}
);
width = 292;
},
{
layerId = "72F22432-F665-4153-96BB-74D91BCC5F28";
paths = (
{
closed = 1;
nodes = (
"206 700 OFFCURVE",
"254 748 OFFCURVE",
"254 808 CURVE SMOOTH",
"254 868 OFFCURVE",
"206 916 OFFCURVE",
"146 916 CURVE SMOOTH",
"86 916 OFFCURVE",
"38 868 OFFCURVE",
"38 808 CURVE SMOOTH",
"38 748 OFFCURVE",
"86 700 OFFCURVE",
"146 700 CURVE SMOOTH"
);
}
);
width = 292;
}
);
unicode = 00B7;
},
{
glyphname = bullet;
lastChange = "2020-10-29 17:13:06 +0000";
layers = (
{
layerId = "14A1E899-FED4-4F52-86F4-A1F822586E10";
paths = (
{
closed = 1;
nodes = (
"286 584 OFFCURVE",
"325 623 OFFCURVE",
"325 672 CURVE SMOOTH",
"325 720 OFFCURVE",
"286 759 OFFCURVE",
"238 759 CURVE SMOOTH",
"189 759 OFFCURVE",
"150 720 OFFCURVE",
"150 672 CURVE SMOOTH",
"150 623 OFFCURVE",
"189 584 OFFCURVE",
"238 584 CURVE SMOOTH"
);
}
);
width = 475;
},
{
layerId = "72F22432-F665-4153-96BB-74D91BCC5F28";
paths = (
{
closed = 1;
nodes = (
"365 485 OFFCURVE",
"441 561 OFFCURVE",
"441 656 CURVE SMOOTH",
"441 750 OFFCURVE",
"365 826 OFFCURVE",
"271 826 CURVE SMOOTH",
"176 826 OFFCURVE",
"100 750 OFFCURVE",
"100 656 CURVE SMOOTH",
"100 561 OFFCURVE",
"176 485 OFFCURVE",
"271 485 CURVE SMOOTH"
);
}
);
width = 541;
}
);
unicode = 2022;
},
{
glyphname = asterisk;
lastChange = "2020-10-29 17:17:32 +0000";
layers = (
{
layerId = "14A1E899-FED4-4F52-86F4-A1F822586E10";
paths = (
{
closed = 1;
nodes = (
"162 977 OFFCURVE",
"265 1059 OFFCURVE",
"325 1112 CURVE",
"351 1127 LINE",
"426 1152 OFFCURVE",
"544 1197 OFFCURVE",
"563 1208 CURVE SMOOTH",
"595 1227 OFFCURVE",
"611 1256 OFFCURVE",
"595 1284 CURVE SMOOTH",
"579 1312 OFFCURVE",
"545 1313 OFFCURVE",
"513 1294 CURVE SMOOTH",
"497 1285 OFFCURVE",
"396 1208 OFFCURVE",
"335 1157 CURVE",
"305 1138 LINE",
"231 1111 OFFCURVE",
"109 1061 OFFCURVE",
"93 1052 CURVE SMOOTH",
"61 1033 OFFCURVE",
"45 1004 OFFCURVE",
"61 976 CURVE SMOOTH",
"77 948 OFFCURVE",
"111 947 OFFCURVE",
"143 966 CURVE SMOOTH"
);
},
{
closed = 1;
nodes = (
"545 947 OFFCURVE",
"579 948 OFFCURVE",
"595 976 CURVE SMOOTH",
"611 1004 OFFCURVE",
"595 1033 OFFCURVE",
"563 1052 CURVE SMOOTH",
"544 1063 OFFCURVE",
"421 1111 OFFCURVE",
"345 1136 CURVE",
"319 1151 LINE",
"260 1204 OFFCURVE",
"162 1283 OFFCURVE",
"143 1294 CURVE SMOOTH",
"111 1313 OFFCURVE",
"77 1312 OFFCURVE",
"61 1284 CURVE SMOOTH",
"45 1256 OFFCURVE",
"61 1227 OFFCURVE",
"93 1208 CURVE SMOOTH",
"109 1199 OFFCURVE",
"226 1150 OFFCURVE",
"301 1123 CURVE",
"333 1106 LINE",
"393 1055 OFFCURVE",
"497 975 OFFCURVE",
"513 966 CURVE SMOOTH"
);
},
{
closed = 1;
nodes = (
"360 822 OFFCURVE",
"378 850 OFFCURVE",
"378 888 CURVE SMOOTH",
"378 910 OFFCURVE",
"358 1040 OFFCURVE",
"342 1118 CURVE",
"342 1148 LINE",
"358 1226 OFFCURVE",
"378 1350 OFFCURVE",
"378 1372 CURVE SMOOTH",
"378 1410 OFFCURVE",
"360 1438 OFFCURVE",
"328 1438 CURVE SMOOTH",
"296 1438 OFFCURVE",
"278 1410 OFFCURVE",
"278 1372 CURVE SMOOTH",
"278 1354 OFFCURVE",
"294 1228 OFFCURVE",
"308 1150 CURVE",
"310 1114 LINE",
"296 1036 OFFCURVE",
"278 906 OFFCURVE",
"278 888 CURVE SMOOTH",
"278 850 OFFCURVE",
"296 822 OFFCURVE",
"328 822 CURVE SMOOTH"
);
}
);
width = 710;
},
{
layerId = "72F22432-F665-4153-96BB-74D91BCC5F28";
paths = (
{
closed = 1;
nodes = (
"209 969 OFFCURVE",
"271 1049 OFFCURVE",
"330 1103 CURVE",
"356 1118 LINE",
"431 1143 OFFCURVE",
"527 1153 OFFCURVE",
"572 1179 CURVE SMOOTH",
"614 1203 OFFCURVE",
"616 1248 OFFCURVE",
"595 1284 CURVE SMOOTH",
"574 1320 OFFCURVE",
"534 1341 OFFCURVE",
"492 1317 CURVE SMOOTH",
"451 1293 OFFCURVE",
"391 1217 OFFCURVE",
"330 1166 CURVE",
"300 1146 LINE",
"226 1119 OFFCURVE",
"125 1105 OFFCURVE",
"84 1081 CURVE SMOOTH",
"42 1057 OFFCURVE",
"40 1012 OFFCURVE",
"61 976 CURVE SMOOTH",
"82 940 OFFCURVE",
"122 919 OFFCURVE",
"164 943 CURVE SMOOTH"
);
},
{
closed = 1;
nodes = (
"534 919 OFFCURVE",
"574 940 OFFCURVE",
"595 976 CURVE SMOOTH",
"616 1012 OFFCURVE",
"614 1057 OFFCURVE",
"572 1081 CURVE SMOOTH",
"527 1107 OFFCURVE",
"426 1121 OFFCURVE",
"350 1145 CURVE",
"324 1160 LINE",
"265 1213 OFFCURVE",
"209 1291 OFFCURVE",
"164 1317 CURVE SMOOTH",
"122 1341 OFFCURVE",
"82 1320 OFFCURVE",
"61 1284 CURVE SMOOTH",
"40 1248 OFFCURVE",
"42 1203 OFFCURVE",
"84 1179 CURVE SMOOTH",
"125 1155 OFFCURVE",
"221 1141 OFFCURVE",
"296 1114 CURVE",
"328 1098 LINE",
"388 1047 OFFCURVE",
"451 967 OFFCURVE",
"492 943 CURVE SMOOTH"
);
},
{
closed = 1;
nodes = (
"370 822 OFFCURVE",
"408 846 OFFCURVE",
"408 894 CURVE SMOOTH",
"408 946 OFFCURVE",
"369 1040 OFFCURVE",
"352 1118 CURVE",
"352 1148 LINE",
"368 1226 OFFCURVE",
"408 1314 OFFCURVE",
"408 1366 CURVE SMOOTH",
"408 1414 OFFCURVE",
"370 1438 OFFCURVE",
"328 1438 CURVE SMOOTH",
"286 1438 OFFCURVE",
"248 1414 OFFCURVE",
"248 1366 CURVE SMOOTH",
"248 1318 OFFCURVE",
"284 1228 OFFCURVE",
"298 1150 CURVE",
"300 1114 LINE",
"286 1036 OFFCURVE",
"248 942 OFFCURVE",
"248 894 CURVE SMOOTH",
"248 846 OFFCURVE",
"286 822 OFFCURVE",
"328 822 CURVE SMOOTH"
);
}
);
width = 710;
}
);
unicode = 002A;
},
{
glyphname = numbersign;
lastChange = "2020-10-29 17:16:14 +0000";
layers = (
{
layerId = "14A1E899-FED4-4F52-86F4-A1F822586E10";
paths = (
{
closed = 1;
nodes = (
"244 0 LINE",
"341 0 LINE",
"606 1400 LINE",
"509 1400 LINE"
);
},
{
closed = 1;
nodes = (
"603 0 LINE",
"700 0 LINE",
"965 1400 LINE",
"868 1400 LINE"
);
},
{
closed = 1;
nodes = (
"169 924 LINE",
"1120 924 LINE",
"1134 998 LINE",
"183 998 LINE"
);
},
{
closed = 1;
nodes = (
"90 408 LINE",
"1041 408 LINE",
"1055 482 LINE",
"104 482 LINE"
);
}
);
width = 1224;
},
{
layerId = "72F22432-F665-4153-96BB-74D91BCC5F28";
paths = (
{
closed = 1;
nodes = (
"186 0 LINE",
"373 0 LINE",
"638 1400 LINE",
"451 1400 LINE"
);
},
{
closed = 1;
nodes = (
"605 0 LINE",
"792 0 LINE",
"1057 1400 LINE",
"870 1400 LINE"
);
},
{
closed = 1;
nodes = (
"131 924 LINE",
"1182 924 LINE",
"1196 998 LINE",
"145 998 LINE"
);
},
{
closed = 1;
nodes = (
"52 408 LINE",
"1103 408 LINE",
"1117 482 LINE",
"66 482 LINE"
);
}
);
width = 1360;
}
);
unicode = 0023;
},
{
glyphname = slash;
lastChange = "2020-10-29 17:17:51 +0000";
layers = (
{
layerId = "14A1E899-FED4-4F52-86F4-A1F822586E10";
paths = (
{
closed = 1;
nodes = (
"129 -179 LINE",
"707 1500 LINE",
"621 1500 LINE",
"40 -179 LINE"
);
}
);
width = 854;
},
{
layerId = "72F22432-F665-4153-96BB-74D91BCC5F28";
paths = (
{
closed = 1;
nodes = (
"189 -179 LINE",
"767 1500 LINE",
"621 1500 LINE",
"40 -179 LINE"
);
}
);
width = 854;
}
);
unicode = 002F;
},
{
glyphname = backslash;
lastChange = "2020-10-29 17:17:56 +0000";
layers = (
{
layerId = "14A1E899-FED4-4F52-86F4-A1F822586E10";
paths = (
{
closed = 1;
nodes = (
"146 1500 LINE",
"60 1500 LINE",
"638 -179 LINE",
"727 -179 LINE"
);
}
);
width = 854;
},
{
layerId = "72F22432-F665-4153-96BB-74D91BCC5F28";
paths = (
{
closed = 1;
nodes = (
"206 1500 LINE",
"60 1500 LINE",
"638 -179 LINE",
"787 -179 LINE"
);
}
);
width = 854;
}
);
unicode = 005C;
},
{
glyphname = parenleft;
lastChange = "2020-10-29 17:19:37 +0000";
layers = (
{
layerId = "14A1E899-FED4-4F52-86F4-A1F822586E10";
paths = (
{
closed = 1;
nodes = (
"610 -429 LINE",
"478 -349 OFFCURVE",
"172 -133 OFFCURVE",
"172 515 CURVE SMOOTH",
"172 1163 OFFCURVE",
"480 1382 OFFCURVE",
"620 1465 CURVE",
"592 1516 LINE",
"506 1479 OFFCURVE",
"60 1221 OFFCURVE",
"60 515 CURVE SMOOTH",
"60 -190 OFFCURVE",
"496 -436 OFFCURVE",
"582 -480 CURVE"
);
}
);
width = 670;
},
{
layerId = "72F22432-F665-4153-96BB-74D91BCC5F28";
paths = (
{
closed = 1;
nodes = (
"630 -429 LINE",
"530 -368 OFFCURVE",
"282 -125 OFFCURVE",
"282 505 CURVE SMOOTH",
"282 1135 OFFCURVE",
"550 1383 OFFCURVE",
"640 1466 CURVE",
"592 1516 LINE",
"506 1479 OFFCURVE",
"60 1194 OFFCURVE",
"60 505 CURVE SMOOTH",
"60 -184 OFFCURVE",
"496 -436 OFFCURVE",
"582 -480 CURVE"
);
}
);
width = 670;
}
);
unicode = 0028;
},
{
glyphname = parenright;
lastChange = "2020-10-29 17:19:45 +0000";
layers = (
{
layerId = "14A1E899-FED4-4F52-86F4-A1F822586E10";
paths = (
{
closed = 1;
nodes = (
"184 -436 OFFCURVE",
"620 -190 OFFCURVE",
"620 515 CURVE SMOOTH",
"620 1221 OFFCURVE",
"174 1479 OFFCURVE",
"88 1516 CURVE",
"60 1465 LINE",
"200 1382 OFFCURVE",
"508 1163 OFFCURVE",
"508 515 CURVE SMOOTH",
"508 -133 OFFCURVE",
"202 -349 OFFCURVE",
"70 -429 CURVE",
"98 -480 LINE"
);
}
);
width = 670;
},
{
layerId = "72F22432-F665-4153-96BB-74D91BCC5F28";
paths = (
{
closed = 1;
nodes = (
"184 -436 OFFCURVE",
"620 -184 OFFCURVE",
"620 505 CURVE SMOOTH",
"620 1194 OFFCURVE",
"174 1479 OFFCURVE",
"88 1516 CURVE",
"40 1466 LINE",
"130 1383 OFFCURVE",
"398 1135 OFFCURVE",
"398 505 CURVE SMOOTH",
"398 -125 OFFCURVE",
"150 -368 OFFCURVE",
"50 -429 CURVE",
"98 -480 LINE"
);
}
);
width = 670;
}
);
unicode = 0029;
},
